<svg width="16" height="16" viewBox="0 0 16 16" fill="none" xmlns="http://www.w3.org/2000/svg">
<path d="M8 -5.72205e-06C9.58225 -5.72205e-06 11.129 0.469187 12.4446 1.34824C13.7602 2.22729 14.7855 3.47672 15.391 4.93853C15.9965 6.40034 16.155 8.00887 15.8463 9.56072C15.5376 11.1126 14.7757 12.538 13.6569 13.6569C12.538 14.7757 11.1126 15.5376 9.56072 15.8463C8.00887 16.155 6.40034 15.9965 4.93853 15.391C3.47672 14.7855 2.22729 13.7602 1.34824 12.4446C0.469187 11.129 -5.72205e-06 9.58225 -5.72205e-06 8C-5.72205e-06 5.87826 0.84285 3.84343 2.34314 2.34314C3.84343 0.84285 5.87826 -5.72205e-06 8 -5.72205e-06ZM8 14.9333C9.37128 14.9333 10.7118 14.5267 11.8519 13.7649C12.9921 13.003 13.8808 11.9202 14.4056 10.6533C14.9303 9.38637 15.0676 7.9923 14.8001 6.64737C14.5326 5.30243 13.8722 4.06703 12.9026 3.09739C11.933 2.12774 10.6976 1.46741 9.35262 1.19988C8.00769 0.93236 6.61362 1.06966 5.34672 1.59443C4.07982 2.1192 2.99698 3.00786 2.23514 4.14804C1.4733 5.28822 1.06666 6.62871 1.06666 8C1.06666 9.83883 1.79714 11.6024 3.09739 12.9026C4.39764 14.2029 6.16116 14.9333 8 14.9333Z" fill="white"/>
<path d="M7.99974 3.73314C8.21071 3.73314 8.41693 3.7957 8.59235 3.9129C8.76776 4.03011 8.90448 4.1967 8.98521 4.39161C9.06594 4.58652 9.08707 4.80099 9.04591 5.0079C9.00475 5.21481 8.90316 5.40488 8.75399 5.55405C8.60481 5.70323 8.41475 5.80482 8.20784 5.84598C8.00092 5.88713 7.78645 5.86601 7.59154 5.78528C7.39663 5.70454 7.23004 5.56783 7.11284 5.39241C6.99563 5.217 6.93307 5.01077 6.93307 4.7998C6.93307 4.51691 7.04545 4.2456 7.24549 4.04556C7.44553 3.84552 7.71684 3.73314 7.99974 3.73314ZM7.99974 6.93314C8.14119 6.93314 8.27684 6.98933 8.37686 7.08935C8.47688 7.18937 8.53307 7.32502 8.53307 7.46647V12.2665C8.53307 12.4079 8.47688 12.5436 8.37686 12.6436C8.27684 12.7436 8.14119 12.7998 7.99974 12.7998C7.85829 12.7998 7.72263 12.7436 7.62261 12.6436C7.5226 12.5436 7.46641 12.4079 7.46641 12.2665V7.46647C7.46641 7.32502 7.5226 7.18937 7.62261 7.08935C7.72263 6.98933 7.85829 6.93314 7.99974 6.93314Z" fill="#00CBB8"/>
</svg>
