<svg width="125" height="86" viewBox="0 0 125 86" fill="none" xmlns="http://www.w3.org/2000/svg">
<path d="M66.0016 78.4016C87.2093 78.4016 104.402 61.2093 104.402 40.0016C104.402 18.7938 87.2093 1.60156 66.0016 1.60156C44.7938 1.60156 27.6016 18.7938 27.6016 40.0016C27.6016 61.2093 44.7938 78.4016 66.0016 78.4016Z" fill="#F9A74E"/>
<path d="M65.9977 70.3977C82.7871 70.3977 96.3977 56.7871 96.3977 39.9977C96.3977 23.2082 82.7871 9.59766 65.9977 9.59766C49.2082 9.59766 35.5977 23.2082 35.5977 39.9977C35.5977 56.7871 49.2082 70.3977 65.9977 70.3977Z" fill="#FFDE39"/>
<path d="M66 0C43.9276 0 26 17.9276 26 40C26 62.0724 43.9276 80 66 80C88.0724 80 106 62.0724 106 40C106 17.9276 88.0724 0 66 0ZM66 3.2C86.343 3.2 102.8 19.657 102.8 40C102.8 60.343 86.343 76.8 66 76.8C45.657 76.8 29.2 60.343 29.2 40C29.2 19.657 45.657 3.2 66 3.2ZM66 8C48.3458 8 34 22.3458 34 40C34 47.1657 36.3612 53.7988 40.3469 59.1344C40.6009 59.4746 40.9797 59.7 41.3999 59.7609C41.8201 59.8219 42.2473 59.7134 42.5875 59.4594C42.9277 59.2053 43.1531 58.8265 43.2141 58.4064C43.275 57.9862 43.1665 57.559 42.9125 57.2188C39.324 52.4148 37.2 46.4638 37.2 40C37.2 24.0753 50.0753 11.2 66 11.2C81.9248 11.2 94.8 24.0753 94.8 40C94.8 55.9248 81.9248 68.8 66 68.8C61.3549 68.8 56.9779 67.7047 53.0969 65.7563C52.9091 65.6618 52.7046 65.6052 52.495 65.5898C52.2854 65.5744 52.0748 65.6005 51.8752 65.6665C51.6757 65.7325 51.4911 65.8372 51.332 65.9745C51.1729 66.1119 51.0424 66.2792 50.948 66.467C50.8536 66.6548 50.7972 66.8593 50.7818 67.0689C50.7665 67.2786 50.7926 67.4891 50.8586 67.6887C50.9247 67.8882 51.0294 68.0727 51.1668 68.2318C51.3042 68.3908 51.4716 68.5213 51.6594 68.6156C55.9733 70.7814 60.8505 72 66 72C83.6542 72 98 57.6542 98 40C98 22.3458 83.6542 8 66 8ZM65.9751 20.8156C65.5512 20.8222 65.1473 20.9968 64.8521 21.3008C64.5568 21.6049 64.3942 22.0137 64.4 22.4375V25.3625C64.1936 25.3991 63.9869 25.4146 63.7812 25.4657H63.778C60.0213 26.3983 57.2968 29.623 57.2968 33.375C57.2968 37.1141 60.0063 40.324 63.7437 41.2688C65.9679 41.9428 67.2975 41.6633 68.8468 42.2938C70.9816 43.4676 71.9449 45.6728 71.3312 47.7938C70.7114 49.9351 68.559 51.5157 66.0062 51.5157C63.4532 51.5157 61.2978 49.9351 60.678 47.7938C60.6196 47.5918 60.522 47.4034 60.3907 47.2392C60.2594 47.0749 60.097 46.9382 59.9129 46.8367C59.7288 46.7353 59.5264 46.6711 59.3175 46.6478C59.1085 46.6245 58.8971 46.6427 58.6951 46.7012C58.4932 46.7597 58.3047 46.8573 58.1405 46.9887C57.9763 47.12 57.8396 47.2824 57.7382 47.4666C57.6368 47.6508 57.5727 47.8531 57.5495 48.0621C57.5263 48.271 57.5445 48.4825 57.603 48.6844C58.501 51.7869 61.1987 53.9976 64.3999 54.5625V57.5626C64.3969 57.7746 64.4361 57.9851 64.5151 58.1818C64.5942 58.3786 64.7116 58.5577 64.8605 58.7086C65.0093 58.8596 65.1867 58.9795 65.3823 59.0614C65.5779 59.1432 65.7879 59.1854 65.9999 59.1854C66.2119 59.1854 66.4219 59.1432 66.6175 59.0614C66.8131 58.9795 66.9905 58.8596 67.1394 58.7086C67.2882 58.5577 67.4056 58.3786 67.4847 58.1818C67.5637 57.9851 67.6029 57.7746 67.5999 57.5626V54.5657C70.806 54.0043 73.507 51.791 74.4062 48.6844C75.4513 45.0727 73.7047 41.2384 70.3124 39.425C70.2706 39.4034 70.2279 39.3836 70.1843 39.3657C67.7824 38.3445 66.1691 38.6774 64.6374 38.2032C64.6085 38.194 64.5793 38.1857 64.5499 38.1782C62.0929 37.5683 60.4967 35.579 60.4967 33.3751C60.4967 31.1704 62.0928 29.182 64.5499 28.572C67.0068 27.9627 69.5846 28.982 70.7999 30.9313C70.911 31.1097 71.0563 31.2644 71.2273 31.3867C71.3983 31.5089 71.5917 31.5963 71.7964 31.6438C72.0012 31.6912 72.2133 31.6979 72.4206 31.6634C72.6279 31.6289 72.8264 31.5539 73.0048 31.4426C73.1831 31.3314 73.3378 31.1862 73.46 31.0151C73.5822 30.8441 73.6695 30.6507 73.7169 30.4459C73.7643 30.2411 73.7709 30.0291 73.7364 29.8217C73.7018 29.6144 73.6268 29.4159 73.5155 29.2376C72.1948 27.1191 70.011 25.7482 67.5999 25.3282V22.4376C67.6028 22.2235 67.5627 22.011 67.4821 21.8127C67.4014 21.6144 67.2818 21.4343 67.1303 21.2831C66.9787 21.1319 66.7984 21.0126 66.6 20.9323C66.4015 20.852 66.1891 20.8123 65.9751 20.8156Z" fill="#D28D55"/>
<path d="M114.266 9.13761L115.257 6.52294C115.587 5.82569 116.578 5.82569 116.743 6.52294L117.734 9.13761C118.56 11.2294 120.046 12.7982 122.028 13.6697L124.505 14.7156C125.165 15.0642 125.165 16.1101 124.505 16.2844L122.028 17.3303C120.046 18.2018 118.56 19.7706 117.734 21.8624L116.743 24.4771C116.413 25.1743 115.422 25.1743 115.257 24.4771L114.266 21.8624C113.44 19.7706 111.954 18.2018 109.972 17.3303L107.495 16.2844C106.835 15.9358 106.835 14.8899 107.495 14.7156L109.972 13.6697C111.954 12.7982 113.606 11.055 114.266 9.13761Z" fill="white"/>
<path d="M4.84404 20.1468L5.50459 18.3578C5.72477 17.8807 6.38532 17.8807 6.49542 18.3578L7.15596 20.1468C7.70642 21.578 8.69725 22.6514 10.0183 23.2477L11.6697 23.9633C12.1101 24.2018 12.1101 24.9174 11.6697 25.0367L10.0183 25.7523C8.69725 26.3486 7.70642 27.422 7.15596 28.8532L6.49542 30.6422C6.27523 31.1193 5.61468 31.1193 5.50459 30.6422L4.84404 28.8532C4.29358 27.422 3.30275 26.3486 1.98165 25.7523L0.330275 25.0367C-0.110092 24.7982 -0.110092 24.0826 0.330275 23.9633L1.98165 23.2477C3.30275 22.6514 4.40367 21.4587 4.84404 20.1468Z" fill="white"/>
<path d="M22.0367 76.8165L22.5872 75.3028C22.7706 74.8991 23.3211 74.8991 23.4128 75.3028L23.9633 76.8165C24.422 78.0275 25.2477 78.9358 26.3486 79.4404L27.7248 80.0459C28.0917 80.2477 28.0917 80.8532 27.7248 80.9541L26.3486 81.5596C25.2477 82.0642 24.422 82.9725 23.9633 84.1835L23.4128 85.6972C23.2294 86.1009 22.6789 86.1009 22.5872 85.6972L22.0367 84.1835C21.578 82.9725 20.7523 82.0642 19.6514 81.5596L18.2752 80.9541C17.9083 80.7523 17.9083 80.1468 18.2752 80.0459L19.6514 79.4404C20.7523 78.9358 21.6697 77.9266 22.0367 76.8165Z" fill="white"/>
</svg>
