<svg width="14" height="13" viewBox="0 0 14 13" fill="none" xmlns="http://www.w3.org/2000/svg">
<path d="M9.5582 0.17709C9.8213 0.191901 10.0243 0.394857 10.0173 0.63609V1.28312C12.1074 1.46561 13.1766 2.50527 13.1766 4.37446V9.54513C13.1766 11.6245 11.8597 12.6807 9.26825 12.6807H4.58068C1.98923 12.6807 0.672363 11.6245 0.672363 9.54513V4.37446C0.672363 3.13018 1.14354 2.23983 2.11004 1.72L2.17784 1.68522C2.31795 1.62637 2.48228 1.63176 2.61886 1.70313C2.77821 1.78639 2.87232 1.94508 2.86177 2.11278C2.85123 2.28047 2.73787 2.42824 2.56914 2.49421C1.92882 2.83708 1.62679 3.43434 1.62679 4.37446V4.54036H10.4401C10.7037 4.54036 10.9174 4.73596 10.9174 4.97724C10.9174 5.21853 10.7037 5.41412 10.4401 5.41412H1.62679V9.54513C1.62679 11.1323 2.48457 11.7904 4.58068 11.8014H9.26825C11.3342 11.8014 12.2161 11.1267 12.2161 9.5396V4.36893C12.2161 2.9864 11.5456 2.31725 10.0173 2.15688V2.57717C9.98205 2.80118 9.7678 2.96472 9.52075 2.95619C9.2737 2.94765 9.07353 2.7698 9.05682 2.54399V0.59738L9.06566 0.52823C9.08533 0.437613 9.13605 0.354384 9.21144 0.291185C9.30568 0.212187 9.43059 0.171088 9.5582 0.17709ZM9.83308 9.05262L9.90999 9.05708C10.0419 9.07196 10.1656 9.1264 10.2611 9.21296C10.3757 9.31683 10.4401 9.45833 10.4401 9.60596C10.4401 9.91138 10.1697 10.159 9.83607 10.159C9.50245 10.159 9.232 9.91138 9.232 9.60596C9.232 9.30054 9.50245 9.05295 9.83607 9.05295L9.83308 9.05262ZM6.93655 9.05295L7.01232 9.05726C7.31017 9.09138 7.54061 9.32404 7.54061 9.60596C7.54061 9.91138 7.27016 10.159 6.93655 10.159C6.60293 10.159 6.33248 9.91138 6.33248 9.60596C6.33248 9.30054 6.60293 9.05295 6.93655 9.05295ZM4.04016 9.05262L4.11698 9.05708C4.24888 9.07196 4.37258 9.1264 4.46807 9.21296C4.58267 9.31683 4.64713 9.45833 4.64713 9.60596C4.64713 9.91138 4.37668 10.159 4.04306 10.159C3.70944 10.159 3.43899 9.91138 3.43899 9.60596C3.43899 9.30054 3.70944 9.05295 4.04306 9.05295L4.04016 9.05262ZM9.83308 6.81312L9.90999 6.81737C10.0419 6.83226 10.1656 6.88669 10.2611 6.97325C10.3757 7.07712 10.4401 7.21863 10.4401 7.36626C10.4401 7.67168 10.1697 7.91927 9.83607 7.91927C9.50245 7.91927 9.232 7.67168 9.232 7.36626C9.232 7.06084 9.50245 6.81325 9.83607 6.81325L9.83308 6.81312ZM6.93655 6.81325L7.01232 6.81756C7.31017 6.85168 7.54061 7.08433 7.54061 7.36626C7.54061 7.67168 7.27016 7.91927 6.93655 7.91927C6.60293 7.91927 6.33248 7.67168 6.33248 7.36626C6.33248 7.06084 6.60293 6.81325 6.93655 6.81325ZM4.04016 6.81312L4.11698 6.81737C4.24888 6.83226 4.37258 6.88669 4.46807 6.97325C4.58267 7.07712 4.64713 7.21863 4.64713 7.36626C4.64713 7.67168 4.37668 7.91927 4.04306 7.91927C3.70944 7.91927 3.43899 7.67168 3.43899 7.36626C3.43899 7.06084 3.70944 6.81325 4.04306 6.81325L4.04016 6.81312ZM4.31187 0.243066C4.55789 0.243066 4.76464 0.412272 4.79211 0.63609V1.23887H7.52249C7.78605 1.23887 7.9997 1.43447 7.9997 1.67576C7.9997 1.91704 7.78605 2.11264 7.52249 2.11264H4.78002V2.54952C4.78003 2.66635 4.72893 2.77832 4.63812 2.86041C4.54732 2.9425 4.42438 2.98788 4.29677 2.9864L4.22699 2.98012C3.99962 2.94416 3.82855 2.76142 3.8316 2.54399V0.63609L3.84509 0.570698C3.90084 0.380123 4.09045 0.243066 4.31187 0.243066Z" fill="white"/>
</svg>
