<svg width="15" height="20" viewBox="0 0 15 20" fill="none" xmlns="http://www.w3.org/2000/svg">
<path d="M7.27273 16.3636C6.27273 16.3636 5.45455 17.1818 5.45455 18.1818C5.45455 19.1818 6.27273 20 7.27273 20C8.27273 20 9.09091 19.1818 9.09091 18.1818C9.09091 17.1818 8.27273 16.3636 7.27273 16.3636ZM1.81818 0C0.818182 0 0 0.818182 0 1.81818C0 2.81818 0.818182 3.63636 1.81818 3.63636C2.81818 3.63636 3.63636 2.81818 3.63636 1.81818C3.63636 0.818182 2.81818 0 1.81818 0ZM1.81818 5.45455C0.818182 5.45455 0 6.27273 0 7.27273C0 8.27273 0.818182 9.09091 1.81818 9.09091C2.81818 9.09091 3.63636 8.27273 3.63636 7.27273C3.63636 6.27273 2.81818 5.45455 1.81818 5.45455ZM1.81818 10.9091C0.818182 10.9091 0 11.7273 0 12.7273C0 13.7273 0.818182 14.5455 1.81818 14.5455C2.81818 14.5455 3.63636 13.7273 3.63636 12.7273C3.63636 11.7273 2.81818 10.9091 1.81818 10.9091ZM12.7273 3.63636C13.7273 3.63636 14.5455 2.81818 14.5455 1.81818C14.5455 0.818182 13.7273 0 12.7273 0C11.7273 0 10.9091 0.818182 10.9091 1.81818C10.9091 2.81818 11.7273 3.63636 12.7273 3.63636ZM7.27273 10.9091C6.27273 10.9091 5.45455 11.7273 5.45455 12.7273C5.45455 13.7273 6.27273 14.5455 7.27273 14.5455C8.27273 14.5455 9.09091 13.7273 9.09091 12.7273C9.09091 11.7273 8.27273 10.9091 7.27273 10.9091ZM12.7273 10.9091C11.7273 10.9091 10.9091 11.7273 10.9091 12.7273C10.9091 13.7273 11.7273 14.5455 12.7273 14.5455C13.7273 14.5455 14.5455 13.7273 14.5455 12.7273C14.5455 11.7273 13.7273 10.9091 12.7273 10.9091ZM12.7273 5.45455C11.7273 5.45455 10.9091 6.27273 10.9091 7.27273C10.9091 8.27273 11.7273 9.09091 12.7273 9.09091C13.7273 9.09091 14.5455 8.27273 14.5455 7.27273C14.5455 6.27273 13.7273 5.45455 12.7273 5.45455ZM7.27273 5.45455C6.27273 5.45455 5.45455 6.27273 5.45455 7.27273C5.45455 8.27273 6.27273 9.09091 7.27273 9.09091C8.27273 9.09091 9.09091 8.27273 9.09091 7.27273C9.09091 6.27273 8.27273 5.45455 7.27273 5.45455ZM7.27273 0C6.27273 0 5.45455 0.818182 5.45455 1.81818C5.45455 2.81818 6.27273 3.63636 7.27273 3.63636C8.27273 3.63636 9.09091 2.81818 9.09091 1.81818C9.09091 0.818182 8.27273 0 7.27273 0Z" fill="white"/>
<circle cx="7.27131" cy="1.81818" r="1.81818" fill="#00CBB8"/>
<circle cx="7.27131" cy="18.1815" r="1.81818" fill="#00CBB8"/>
<circle cx="7.27131" cy="7.27228" r="1.81818" fill="#00CBB8"/>
<circle cx="12.7283" cy="7.27228" r="1.81818" fill="#00CBB8"/>
</svg>
