<svg width="20" height="20" viewBox="0 0 20 20" fill="none" xmlns="http://www.w3.org/2000/svg">
<g filter="url(#filter0_d_345_1940)">
<path fill-rule="evenodd" clip-rule="evenodd" d="M14.5851 4.44188C14.3601 4.44686 14.1435 4.52755 13.9701 4.67089L7.86306 9.57494L5.80006 6.82299C5.7212 6.71793 5.62242 6.62937 5.50936 6.56249C5.3963 6.49561 5.27117 6.45162 5.14112 6.4331C5.01108 6.41457 4.87865 6.42193 4.75141 6.45458C4.62417 6.48723 4.50461 6.54454 4.39956 6.6234C4.2945 6.70226 4.206 6.80111 4.13912 6.91417C4.07224 7.02723 4.02828 7.15229 4.00975 7.28234C3.99123 7.41239 3.9985 7.54487 4.03115 7.67211C4.0638 7.79935 4.1212 7.91886 4.20006 8.02392L6.88206 11.6C6.9625 11.7073 7.0637 11.7972 7.17963 11.8646C7.29556 11.932 7.42387 11.9754 7.55691 11.9922C7.68994 12.009 7.825 11.9989 7.95404 11.9624C8.08309 11.9259 8.20348 11.8638 8.30806 11.7799L15.2221 6.22997C15.3876 6.10069 15.5083 5.92254 15.5669 5.72081C15.6256 5.51909 15.6192 5.30396 15.5487 5.10607C15.4782 4.90818 15.3471 4.73749 15.1742 4.61828C15.0012 4.49906 14.7951 4.43734 14.5851 4.44188Z" fill="url(#paint0_linear_345_1940)"/>
</g>
<defs>
<filter id="filter0_d_345_1940" x="-2" y="0" width="24" height="24" filterUnits="userSpaceOnUse" color-interpolation-filters="sRGB">
<feFlood flood-opacity="0" result="BackgroundImageFix"/>
<feColorMatrix in="SourceAlpha" type="matrix" values="0 0 0 0 0 0 0 0 0 0 0 0 0 0 0 0 0 0 127 0" result="hardAlpha"/>
<feOffset dy="4"/>
<feGaussianBlur stdDeviation="2"/>
<feComposite in2="hardAlpha" operator="out"/>
<feColorMatrix type="matrix" values="0 0 0 0 0 0 0 0 0 0 0 0 0 0 0 0 0 0 0.25 0"/>
<feBlend mode="normal" in2="BackgroundImageFix" result="effect1_dropShadow_345_1940"/>
<feBlend mode="normal" in="SourceGraphic" in2="effect1_dropShadow_345_1940" result="shape"/>
</filter>
<linearGradient id="paint0_linear_345_1940" x1="4.00006" y1="8.22091" x2="15.6061" y2="8.22091" gradientUnits="userSpaceOnUse">
<stop offset="0.284375" stop-color="white"/>
<stop offset="1" stop-color="#00BDAB"/>
</linearGradient>
</defs>
</svg>
