<svg width="28" height="27" viewBox="0 0 28 27" fill="none" xmlns="http://www.w3.org/2000/svg">
<path d="M14.0005 26.1186C21.4233 26.1186 27.4405 20.4877 27.4405 13.5417C27.4405 6.59571 21.4233 0.964844 14.0005 0.964844C6.57784 0.964844 0.560547 6.59571 0.560547 13.5417C0.560547 20.4877 6.57784 26.1186 14.0005 26.1186Z" fill="#F9A74E"/>
<path d="M13.9994 23.4984C19.8757 23.4984 24.6394 19.0406 24.6394 13.5417C24.6394 8.04273 19.8757 3.58496 13.9994 3.58496C8.12306 3.58496 3.35938 8.04273 3.35938 13.5417C3.35938 19.0406 8.12306 23.4984 13.9994 23.4984Z" fill="#FFDE39"/>
<path d="M14 0.44043C6.27465 0.44043 0 6.31212 0 13.5413C0 20.7706 6.27465 26.6423 14 26.6423C21.7254 26.6423 28 20.7706 28 13.5413C28 6.31212 21.7254 0.44043 14 0.44043ZM14 1.4885C21.1201 1.4885 26.88 6.87854 26.88 13.5413C26.88 20.2042 21.1201 25.5942 14 25.5942C6.87994 25.5942 1.12 20.2042 1.12 13.5413C1.12 6.87854 6.87994 1.4885 14 1.4885ZM14 3.06061C7.82104 3.06061 2.8 7.75921 2.8 13.5413C2.8 15.8883 3.62641 18.0608 5.02141 19.8083C5.11032 19.9197 5.2429 19.9935 5.38997 20.0135C5.53703 20.0335 5.68655 19.9979 5.80562 19.9147C5.9247 19.8315 6.00359 19.7075 6.02492 19.5699C6.04625 19.4322 6.00828 19.2923 5.91937 19.1809C4.66338 17.6075 3.92 15.6584 3.92 13.5413C3.92 8.32563 8.42634 4.10869 14 4.10869C19.5737 4.10869 24.08 8.32563 24.08 13.5413C24.08 18.7571 19.5737 22.974 14 22.974C12.3742 22.974 10.8423 22.6153 9.48391 21.9771C9.41819 21.9462 9.3466 21.9277 9.27324 21.9226C9.19988 21.9176 9.12618 21.9261 9.05634 21.9477C8.9865 21.9693 8.92189 22.0036 8.86621 22.0486C8.81053 22.0936 8.76486 22.1484 8.73182 22.2099C8.69878 22.2714 8.67901 22.3384 8.67364 22.407C8.66827 22.4757 8.67741 22.5447 8.70053 22.61C8.72364 22.6754 8.76029 22.7358 8.80838 22.7879C8.85647 22.84 8.91505 22.8827 8.98078 22.9136C10.4907 23.623 12.1977 24.0221 14 24.0221C20.179 24.0221 25.2 19.3235 25.2 13.5413C25.2 7.75921 20.179 3.06061 14 3.06061ZM13.9913 7.25802C13.8429 7.26019 13.7016 7.31735 13.5982 7.41694C13.4949 7.51653 13.438 7.65042 13.44 7.78923V8.74723C13.3678 8.75923 13.2954 8.76431 13.2234 8.78102H13.2223C11.9075 9.08649 10.9539 10.1426 10.9539 11.3715C10.9539 12.5962 11.9022 13.6475 13.2103 13.9569C13.9888 14.1777 14.4541 14.0861 14.9964 14.2926C15.7436 14.6771 16.0807 15.3993 15.8659 16.094C15.649 16.7953 14.8957 17.313 14.0022 17.313C13.1086 17.313 12.3542 16.7953 12.1373 16.094C12.1169 16.0278 12.0827 15.9661 12.0367 15.9123C11.9908 15.8586 11.934 15.8138 11.8695 15.7805C11.8051 15.7473 11.7343 15.7263 11.6611 15.7187C11.588 15.711 11.514 15.717 11.4433 15.7361C11.3726 15.7553 11.3066 15.7873 11.2492 15.8303C11.1917 15.8733 11.1439 15.9265 11.1084 15.9868C11.0729 16.0472 11.0504 16.1134 11.0423 16.1819C11.0342 16.2503 11.0406 16.3196 11.0611 16.3857C11.3754 17.4018 12.3196 18.1259 13.44 18.3109V19.2935C13.4389 19.3629 13.4526 19.4319 13.4803 19.4963C13.508 19.5608 13.5491 19.6194 13.6012 19.6689C13.6533 19.7183 13.7153 19.7576 13.7838 19.7844C13.8523 19.8112 13.9258 19.825 14 19.825C14.0742 19.825 14.1477 19.8112 14.2161 19.7844C14.2846 19.7576 14.3467 19.7183 14.3988 19.6689C14.4509 19.6194 14.492 19.5608 14.5196 19.4963C14.5473 19.4319 14.561 19.3629 14.56 19.2935V18.3119C15.6821 18.1281 16.6275 17.4032 16.9422 16.3857C17.308 15.2028 16.6966 13.947 15.5093 13.353C15.4947 13.3459 15.4797 13.3395 15.4645 13.3336C14.6238 12.9991 14.0592 13.1082 13.5231 12.9528C13.513 12.9499 13.5027 12.9471 13.4924 12.9447C12.6325 12.7449 12.0739 12.0934 12.0739 11.3715C12.0739 10.6495 12.6325 9.9982 13.4924 9.79841C14.3524 9.59885 15.2546 9.9327 15.6799 10.5712C15.7189 10.6296 15.7697 10.6803 15.8296 10.7203C15.8894 10.7603 15.9571 10.7889 16.0288 10.8045C16.1004 10.82 16.1746 10.8222 16.2472 10.8109C16.3198 10.7996 16.3893 10.775 16.4517 10.7386C16.5141 10.7022 16.5682 10.6546 16.611 10.5986C16.6538 10.5426 16.6843 10.4792 16.7009 10.4122C16.7175 10.3451 16.7198 10.2756 16.7077 10.2077C16.6956 10.1398 16.6694 10.0748 16.6304 10.0164C16.1682 9.32255 15.4038 8.87354 14.5599 8.736V7.78926C14.561 7.71915 14.547 7.64955 14.5187 7.5846C14.4905 7.51966 14.4486 7.46067 14.3956 7.41114C14.3426 7.3616 14.2794 7.32254 14.21 7.29625C14.1405 7.26995 14.0662 7.25693 13.9913 7.25802Z" fill="#D28D55"/>
</svg>
