<svg width="18" height="19" viewBox="0 0 18 19" fill="none" xmlns="http://www.w3.org/2000/svg">
<path d="M13.3183 18.0703L9.90532 14.8273C9.71946 14.6507 9.47287 14.5522 9.21649 14.5522H2.50004C2.30153 14.5506 2.10526 14.5067 1.92244 14.4232C1.73962 14.3396 1.57383 14.2179 1.43454 14.0652C1.29526 13.9124 1.18519 13.7315 1.11064 13.5328C1.03609 13.3341 0.998514 13.1214 1.00005 12.907V2.647C0.998404 2.43249 1.0359 2.21972 1.11039 2.02085C1.18488 1.82199 1.29491 1.64091 1.4342 1.48797C1.57348 1.33503 1.7393 1.21322 1.92218 1.12949C2.10506 1.04577 2.30142 1.00177 2.50004 1H15.5C15.6986 1.00177 15.8949 1.04577 16.0778 1.12949C16.2607 1.21322 16.4265 1.33503 16.5658 1.48797C16.7051 1.64091 16.8151 1.82199 16.8896 2.02085C16.9641 2.21972 17.0016 2.43249 16.9999 2.647V12.907C17.0015 13.1214 16.9639 13.3341 16.8894 13.5328C16.8148 13.7315 16.7047 13.9124 16.5655 14.0652C16.4262 14.2179 16.2604 14.3396 16.0776 14.4232C15.8947 14.5067 15.6985 14.5506 15.5 14.5522H14.3113C14.1727 14.5522 14.0717 14.6837 14.0741 14.8222V17.6869C14.0741 18.0703 13.9366 18.2791 13.7291 18.2791C13.5736 18.2644 13.428 18.1904 13.3183 18.0703ZM2.50004 11.907C2.50004 12.4593 2.94776 12.907 3.50004 12.907H9.77569C10.0321 12.907 10.2786 13.0055 10.4645 13.1821L10.5975 13.3084L12.3879 15.0097C12.4581 15.0765 12.5741 15.0267 12.5741 14.9298C12.5741 14.9211 12.5731 14.9125 12.5711 14.9041L12.3885 14.1417C12.238 13.513 12.7146 12.9088 13.3611 12.9088H14.5C15.0522 12.9088 15.5 12.4611 15.5 11.9088V3.6488C15.5 3.09652 15.0522 2.6488 14.5 2.6488H3.50004C2.94776 2.6488 2.50004 3.09652 2.50004 3.6488V11.907Z" fill="white" stroke="#202426" stroke-width="0.5"/>
<rect x="4.83203" y="4.24316" width="8.33328" height="0.900002" rx="0.450001" fill="#00CBB8"/>
<rect x="4.83203" y="6.04297" width="8.33328" height="0.900002" rx="0.450001" fill="#00CBB8"/>
<rect x="4.83203" y="7.84375" width="8.33328" height="0.900002" rx="0.450001" fill="#00CBB8"/>
<rect x="4.83203" y="9.64258" width="8.33328" height="0.900002" rx="0.450001" fill="#00CBB8"/>
</svg>
