<svg width="19" height="19" viewBox="0 0 19 19" fill="none" xmlns="http://www.w3.org/2000/svg">
<path d="M13.9233 12.4271C13.7578 12.261 13.5612 12.1293 13.3447 12.0394C13.1282 11.9495 12.896 11.9032 12.6616 11.9032C12.4272 11.9032 12.195 11.9495 11.9785 12.0394C11.762 12.1293 11.5654 12.261 11.3999 12.4271L10.5389 13.288C9.56959 12.6728 8.67149 11.952 7.86113 11.1387C7.04955 10.3268 6.32884 9.42886 5.71176 8.46085L6.57269 7.59991C6.73875 7.43443 6.87051 7.23779 6.96042 7.02128C7.05032 6.80476 7.0966 6.57263 7.0966 6.33819C7.0966 6.10376 7.05032 5.87162 6.96042 5.65511C6.87051 5.4386 6.73875 5.24196 6.57269 5.07648L4.89238 3.4021C4.72924 3.23549 4.53426 3.10338 4.31904 3.01362C4.10382 2.92386 3.87275 2.87828 3.63957 2.8796C3.40473 2.87902 3.1721 2.92489 2.95505 3.01456C2.73801 3.10423 2.54084 3.23594 2.37488 3.4021L1.56738 4.20366C1.1825 4.61749 0.895241 5.11231 0.726731 5.65174C0.558221 6.19118 0.51274 6.76153 0.593633 7.32085C0.783633 9.54741 2.24426 12.2252 4.49457 14.4815C6.74488 16.7377 9.45238 18.1924 11.6789 18.4062C11.8451 18.415 12.0116 18.415 12.1777 18.4062C12.657 18.4263 13.1355 18.3505 13.5851 18.1833C14.0347 18.0161 14.4465 17.7608 14.7961 17.4324L15.5977 16.6249C15.7639 16.459 15.8956 16.2618 15.9852 16.0447C16.0749 15.8277 16.1208 15.5951 16.1202 15.3602C16.1215 15.127 16.0759 14.896 15.9862 14.6808C15.8964 14.4655 15.7643 14.2706 15.5977 14.1074L13.9233 12.4271ZM14.7605 15.7877L13.953 16.5893C13.6544 16.8381 13.3059 17.0199 12.931 17.1223C12.5561 17.2248 12.1635 17.2455 11.7799 17.183C9.85019 17.0168 7.39207 15.6512 5.36144 13.6205C3.33082 11.5899 1.9652 9.1496 1.78113 7.21991C1.7171 6.8363 1.73703 6.44336 1.83953 6.06819C1.94204 5.69302 2.12469 5.34455 2.37488 5.04679L3.21207 4.23929C3.26755 4.18426 3.33335 4.14072 3.40569 4.11117C3.47803 4.08163 3.55549 4.06665 3.63363 4.0671C3.71177 4.06665 3.78924 4.08163 3.86158 4.11117C3.93392 4.14072 3.99972 4.18426 4.0552 4.23929L5.73551 5.93741C5.84609 6.04866 5.90817 6.19915 5.90817 6.35601C5.90817 6.51287 5.84609 6.66335 5.73551 6.7746L4.54801 7.9621C4.45508 8.05457 4.39537 8.17519 4.37819 8.30514C4.361 8.4351 4.38731 8.5671 4.45301 8.68054C5.16396 9.89087 6.02807 11.0044 7.02395 11.9937C8.01318 12.9895 9.12674 13.8536 10.3371 14.5646C10.4505 14.6303 10.5825 14.6566 10.7125 14.6394C10.8424 14.6222 10.963 14.5625 11.0555 14.4696L12.243 13.2821C12.3543 13.1715 12.5047 13.1094 12.6616 13.1094C12.8185 13.1094 12.9689 13.1715 13.0802 13.2821L14.7605 14.9624C14.8155 15.0179 14.8591 15.0837 14.8886 15.156C14.9182 15.2284 14.9331 15.3058 14.9327 15.384C14.929 15.5356 14.8674 15.6801 14.7605 15.7877Z" fill="white"/>
<path d="M14.2054 4.46516C14.5423 4.80008 14.8089 5.19903 14.9894 5.63851C15.1699 6.07799 15.2606 6.54914 15.2563 7.02422C15.2563 7.18169 15.3189 7.33271 15.4302 7.44406C15.5416 7.55541 15.6926 7.61797 15.8501 7.61797C16.0075 7.61797 16.1585 7.55541 16.2699 7.44406C16.3812 7.33271 16.4438 7.18169 16.4438 7.02422C16.4517 6.39546 16.3346 5.7714 16.0994 5.18823C15.8642 4.60507 15.5156 4.0744 15.0737 3.62701C14.6319 3.17963 14.1056 2.82442 13.5254 2.58201C12.9452 2.3396 12.3226 2.21479 11.6938 2.21484C11.5363 2.21484 11.3853 2.2774 11.274 2.38875C11.1626 2.5001 11.1001 2.65112 11.1001 2.80859C11.1001 2.96607 11.1626 3.11709 11.274 3.22844C11.3853 3.33979 11.5363 3.40234 11.6938 3.40234C12.1617 3.40587 12.6244 3.50154 13.0553 3.6839C13.4863 3.86626 13.877 4.13174 14.2054 4.46516Z" fill="#00CBB8"/>
<path d="M12.4139 6.59699C12.7509 6.93192 13.0174 7.33086 13.1979 7.77035C13.3784 8.20983 13.4692 8.68097 13.4648 9.15605C13.4648 9.31353 13.5274 9.46455 13.6387 9.5759C13.7501 9.68725 13.9011 9.7498 14.0586 9.7498C14.2161 9.7498 14.3671 9.68725 14.4784 9.5759C14.5898 9.46455 14.6523 9.31353 14.6523 9.15605C14.6602 8.5273 14.5431 7.90324 14.308 7.32007C14.0728 6.7369 13.7241 6.20624 13.2823 5.75885C12.8404 5.31146 12.3141 4.95626 11.7339 4.71385C11.1537 4.47143 10.5312 4.34663 9.90234 4.34668C9.74487 4.34668 9.59385 4.40924 9.4825 4.52058C9.37115 4.63193 9.30859 4.78296 9.30859 4.94043C9.30859 5.0979 9.37115 5.24892 9.4825 5.36027C9.59385 5.47162 9.74487 5.53418 9.90234 5.53418C10.3703 5.5377 10.8329 5.63338 11.2639 5.81574C11.6948 5.9981 12.0856 6.26357 12.4139 6.59699Z" fill="#00CBB8"/>
</svg>
