<svg width="22" height="22" viewBox="0 0 22 22" fill="none" xmlns="http://www.w3.org/2000/svg">
<path d="M15.2126 1.00092C15.6334 1.02461 15.9581 1.34923 15.9469 1.73508V2.76997C19.2899 3.06186 21 4.72477 21 7.71446V15.9848C21 19.3106 18.8937 21 14.7488 21H7.25121C3.10628 21 1 19.3106 1 15.9848V7.71446C1 5.72428 1.75362 4.30019 3.29952 3.46874L3.40795 3.41312C3.63205 3.31898 3.89489 3.32761 4.11335 3.44176C4.36823 3.57494 4.51874 3.82876 4.50188 4.09698C4.48502 4.3652 4.3037 4.60155 4.03382 4.70708C3.00966 5.25548 2.52657 6.21077 2.52657 7.71446V7.97981H16.6232C17.0447 7.97981 17.3865 8.29266 17.3865 8.67859C17.3865 9.06451 17.0447 9.37736 16.6232 9.37736H2.52657V15.9848C2.52657 18.5233 3.89855 19.5759 7.25121 19.5936H14.7488C18.0531 19.5936 19.4638 18.5145 19.4638 15.9759V7.70561C19.4638 5.4943 18.3913 4.42403 15.9469 4.16752V4.83975C15.8905 5.19806 15.5478 5.45964 15.1527 5.44599C14.7575 5.43234 14.4373 5.14786 14.4106 4.78668V1.67316L14.4248 1.56256C14.4562 1.41762 14.5374 1.2845 14.6579 1.18341C14.8087 1.05706 15.0085 0.991322 15.2126 1.00092ZM15.6522 15.197L15.7752 15.2041C15.9862 15.2279 16.1841 15.315 16.3368 15.4534C16.5201 15.6196 16.6232 15.8459 16.6232 16.082C16.6232 16.5706 16.1906 16.9666 15.657 16.9666C15.1234 16.9666 14.6908 16.5706 14.6908 16.082C14.6908 15.5935 15.1234 15.1975 15.657 15.1975L15.6522 15.197ZM11.0193 15.1975L11.1405 15.2044C11.6169 15.259 11.9855 15.6311 11.9855 16.082C11.9855 16.5706 11.5529 16.9666 11.0193 16.9666C10.4857 16.9666 10.0531 16.5706 10.0531 16.082C10.0531 15.5935 10.4857 15.1975 11.0193 15.1975ZM6.38667 15.197L6.50954 15.2041C6.7205 15.2279 6.91835 15.315 7.07109 15.4534C7.25438 15.6196 7.35749 15.8459 7.35749 16.082C7.35749 16.5706 6.92491 16.9666 6.3913 16.9666C5.8577 16.9666 5.42512 16.5706 5.42512 16.082C5.42512 15.5935 5.8577 15.1975 6.3913 15.1975L6.38667 15.197ZM15.6522 11.615L15.7752 11.6218C15.9862 11.6456 16.1841 11.7327 16.3368 11.8711C16.5201 12.0373 16.6232 12.2636 16.6232 12.4997C16.6232 12.9882 16.1906 13.3843 15.657 13.3843C15.1234 13.3843 14.6908 12.9882 14.6908 12.4997C14.6908 12.0112 15.1234 11.6152 15.657 11.6152L15.6522 11.615ZM11.0193 11.6152L11.1405 11.6221C11.6169 11.6767 11.9855 12.0488 11.9855 12.4997C11.9855 12.9882 11.5529 13.3843 11.0193 13.3843C10.4857 13.3843 10.0531 12.9882 10.0531 12.4997C10.0531 12.0112 10.4857 11.6152 11.0193 11.6152ZM6.38667 11.615L6.50954 11.6218C6.7205 11.6456 6.91835 11.7327 7.07109 11.8711C7.25438 12.0373 7.35749 12.2636 7.35749 12.4997C7.35749 12.9882 6.92491 13.3843 6.3913 13.3843C5.8577 13.3843 5.42512 12.9882 5.42512 12.4997C5.42512 12.0112 5.8577 11.6152 6.3913 11.6152L6.38667 11.615ZM6.82126 1.10645C7.21476 1.10645 7.54545 1.37709 7.58937 1.73508V2.69921H11.9565C12.3781 2.69921 12.7198 3.01206 12.7198 3.39798C12.7198 3.7839 12.3781 4.09675 11.9565 4.09675H7.57005V4.79553C7.57007 4.9824 7.48832 5.16149 7.34308 5.29279C7.19784 5.42409 7.00121 5.49667 6.7971 5.4943L6.68549 5.48427C6.32182 5.42674 6.0482 5.13445 6.05307 4.78668V1.73508L6.07465 1.63048C6.16383 1.32566 6.46711 1.10645 6.82126 1.10645Z" fill="white" stroke="#202426" stroke-width="0.4"/>
</svg>
