<svg width="18" height="23" viewBox="0 0 18 23" fill="none" xmlns="http://www.w3.org/2000/svg">
<path d="M15.8885 8.50115L15.5525 18.7386C15.5239 19.6154 15.1569 20.4464 14.5295 21.0553C13.9021 21.6642 13.0636 22.0031 12.192 22H5.80714C4.93613 22.0031 4.09814 21.6647 3.47082 21.0565C2.8435 20.4483 2.47616 19.6181 2.44668 18.742L2.11063 8.50115C2.10328 8.27688 2.18474 8.05887 2.33709 7.89506C2.48945 7.73125 2.70021 7.63506 2.92302 7.62766C3.14584 7.62026 3.36244 7.70225 3.5252 7.8556C3.68795 8.00894 3.78351 8.22108 3.79086 8.44534L4.12691 18.6853C4.14364 19.1224 4.32803 19.5361 4.64134 19.8393C4.95465 20.1425 5.3725 20.3117 5.80714 20.3114H12.192C12.6272 20.3116 13.0456 20.142 13.359 19.838C13.6724 19.5341 13.8564 19.1197 13.8722 18.6819L14.2083 8.44534C14.2156 8.22108 14.3112 8.00894 14.474 7.8556C14.6367 7.70225 14.8533 7.62026 15.0761 7.62766C15.2989 7.63506 15.5097 7.73125 15.6621 7.89506C15.8144 8.05887 15.8959 8.27688 15.8885 8.50115ZM17 5.0943C17 5.31857 16.9115 5.53364 16.7539 5.69222C16.5964 5.8508 16.3827 5.93988 16.1599 5.93988H1.84012C1.6173 5.93988 1.40362 5.8508 1.24606 5.69222C1.08851 5.53364 1 5.31857 1 5.0943C1 4.87004 1.08851 4.65497 1.24606 4.49639C1.40362 4.33781 1.6173 4.24873 1.84012 4.24873H4.44447C4.71066 4.24945 4.9676 4.15046 5.16528 3.97103C5.36296 3.79161 5.48724 3.54457 5.51394 3.278C5.57594 2.65268 5.86701 2.07299 6.33044 1.65187C6.79388 1.23075 7.39648 0.998374 8.02085 1.00001H9.97831C10.6027 0.998374 11.2053 1.23075 11.6687 1.65187C12.1322 2.07299 12.4232 2.65268 12.4852 3.278C12.5119 3.54457 12.6362 3.79161 12.8339 3.97103C13.0316 4.15046 13.2885 4.24945 13.5547 4.24873H16.159C16.3819 4.24873 16.5955 4.33781 16.7531 4.49639C16.9106 4.65497 16.9992 4.87004 16.9992 5.0943H17ZM6.97238 4.24873H11.0285C10.9181 3.99483 10.8459 3.72581 10.8142 3.4505C10.7934 3.24207 10.6965 3.04884 10.5422 2.90824C10.3879 2.76764 10.1873 2.68968 9.97915 2.68948H8.02169C7.81356 2.68968 7.61292 2.76764 7.45864 2.90824C7.30436 3.04884 7.20742 3.24207 7.18661 3.4505C7.15471 3.72585 7.08307 3.99488 6.97238 4.24873ZM7.81838 17.0601V9.85999C7.81838 9.63573 7.72987 9.42065 7.57231 9.26208C7.41476 9.1035 7.20107 9.01441 6.97826 9.01441C6.75545 9.01441 6.54176 9.1035 6.38421 9.26208C6.22666 9.42065 6.13815 9.63573 6.13815 9.85999V17.0635C6.13815 17.2877 6.22666 17.5028 6.38421 17.6614C6.54176 17.82 6.75545 17.9091 6.97826 17.9091C7.20107 17.9091 7.41476 17.82 7.57231 17.6614C7.72987 17.5028 7.81838 17.2877 7.81838 17.0635V17.0601ZM11.8627 17.0601V9.85999C11.8627 9.63573 11.7742 9.42065 11.6166 9.26208C11.4591 9.1035 11.2454 9.01441 11.0226 9.01441C10.7998 9.01441 10.5861 9.1035 10.4285 9.26208C10.271 9.42065 10.1825 9.63573 10.1825 9.85999V17.0635C10.1825 17.2877 10.271 17.5028 10.4285 17.6614C10.5861 17.82 10.7998 17.9091 11.0226 17.9091C11.2454 17.9091 11.4591 17.82 11.6166 17.6614C11.7742 17.5028 11.8627 17.2877 11.8627 17.0635V17.0601Z" fill="#FF4D4D" stroke="#202426" stroke-width="0.5"/>
</svg>
