<svg width="30" height="30" viewBox="0 0 30 30" fill="none" xmlns="http://www.w3.org/2000/svg">
<path d="M15.5072 24.8425C15.1942 24.6582 14.8058 24.6582 14.4928 24.8425L7.62924 28.8823C6.88886 29.3181 5.97988 28.679 6.13937 27.8349L7.70056 19.5717C7.76285 19.242 7.65563 18.903 7.41505 18.6691L1.49294 12.911C0.89155 12.3262 1.23395 11.3055 2.0663 11.2017L9.98606 10.214C10.3357 10.1704 10.6365 9.94609 10.7781 9.62347L14.0843 2.08735C14.4342 1.28969 15.5658 1.28969 15.9157 2.08735L19.2219 9.62347C19.3635 9.94609 19.6643 10.1704 20.0139 10.214L27.9337 11.2017C28.7661 11.3055 29.1084 12.3262 28.5071 12.911L22.5849 18.6691C22.3444 18.903 22.2371 19.242 22.2994 19.5717L23.8606 27.8349C24.0201 28.679 23.1111 29.3181 22.3708 28.8823L15.5072 24.8425Z" fill="#00CBB8"/>
<path d="M15.5067 22.1156C15.1936 21.9313 14.8053 21.9313 14.4922 22.1156L10.2772 24.5965C9.53678 25.0323 8.62781 24.3932 8.7873 23.5491L9.75705 18.4163C9.81934 18.0866 9.71212 17.7476 9.47154 17.5137L5.7781 13.9225C5.17671 13.3378 5.5191 12.317 6.35146 12.2132L11.257 11.6015C11.6066 11.5579 11.9074 11.3335 12.049 11.0109L14.0837 6.373C14.4336 5.57533 15.5652 5.57533 15.9152 6.373L17.9499 11.0109C18.0914 11.3335 18.3923 11.5579 18.7419 11.6015L23.6474 12.2132C24.4798 12.317 24.8222 13.3378 24.2208 13.9225L20.5273 17.5137C20.2868 17.7476 20.1795 18.0866 20.2418 18.4163L21.2116 23.5491C21.3711 24.3932 20.4621 25.0323 19.7217 24.5965L15.5067 22.1156Z" fill="#14181B"/>
</svg>
