<svg width="14" height="14" viewBox="0 0 14 14" fill="none" xmlns="http://www.w3.org/2000/svg">
<path d="M7.25362 11.6031C7.09709 11.511 6.90291 11.511 6.74638 11.6031L3.62361 13.4412C3.25342 13.659 2.79893 13.3395 2.87868 12.9174L3.59027 9.15105C3.62141 8.9862 3.5678 8.8167 3.44751 8.69975L0.746469 6.0735C0.445775 5.78114 0.616973 5.27076 1.03315 5.21886L4.64137 4.76889C4.81617 4.74709 4.9666 4.63492 5.03737 4.47361L6.54213 1.04368C6.7171 0.644844 7.2829 0.644843 7.45787 1.04368L8.96263 4.47361C9.0334 4.63492 9.18383 4.74709 9.35863 4.76889L12.9669 5.21886C13.383 5.27076 13.5542 5.78114 13.2535 6.0735L10.5525 8.69975C10.4322 8.8167 10.3786 8.9862 10.4097 9.15105L11.1213 12.9174C11.2011 13.3395 10.7466 13.659 10.3764 13.4412L7.25362 11.6031Z" fill="#00CBB8"/>
<path d="M7.00005 10.1813L7 7L7.00003 4.38418C7.00003 3.84282 7.74041 3.68756 7.9579 4.18331L8.36933 5.12111C8.4401 5.28242 8.59053 5.3946 8.76533 5.41639L10.9669 5.69095C11.3831 5.74285 11.5543 6.25322 11.2536 6.54559L9.59258 8.16059C9.47229 8.27755 9.41868 8.44704 9.44983 8.6119L9.88542 10.9174C9.96516 11.3395 9.51068 11.659 9.14049 11.4412L7.00005 10.1813Z" fill="#14181B"/>
</svg>
