<svg width="24" height="24" viewBox="0 0 24 24" fill="none" xmlns="http://www.w3.org/2000/svg">
<path d="M22.1626 6.84906L20.7685 5.71233V1.95898C20.7802 1.82091 20.7631 1.68192 20.7183 1.5508C20.6735 1.41968 20.602 1.29929 20.5082 1.19726C20.4145 1.09523 20.3006 1.01378 20.1737 0.958058C20.0468 0.902339 19.9098 0.873568 19.7712 0.873568C19.6327 0.873568 19.4956 0.902339 19.3687 0.958058C19.2419 1.01378 19.128 1.09523 19.0342 1.19726C18.9405 1.29929 18.8689 1.41968 18.8241 1.5508C18.7793 1.68192 18.7622 1.82091 18.7739 1.95898V4.0537L15.1635 1.12967C14.2697 0.399096 13.1508 0 11.9964 0C10.842 0 9.72313 0.399096 8.82931 1.12967L1.83021 6.84906C1.25793 7.31338 0.796611 7.89969 0.479962 8.56515C0.163314 9.2306 -0.000667169 9.9584 2.04007e-06 10.6953V18.774C2.04007e-06 20.1013 0.527257 21.3742 1.46578 22.3127C2.4043 23.2512 3.6772 23.7785 5.00447 23.7785H18.9955C20.3228 23.7785 21.5957 23.2512 22.5342 22.3127C23.4727 21.3742 24 20.1013 24 18.774V10.6668C23.9956 9.93406 23.8284 9.21149 23.5107 8.55127C23.1929 7.89104 22.7325 7.30963 22.1626 6.84906ZM9.00089 21.7409V14.8205C9.0385 14.0504 9.3709 13.3243 9.92922 12.7925C10.4875 12.2608 11.229 11.9643 12 11.9643C12.771 11.9643 13.5125 12.2608 14.0708 12.7925C14.6291 13.3243 14.9615 14.0504 14.9991 14.8205V21.7409H9.00089ZM22.0054 18.7454C22.0035 19.5393 21.6873 20.3001 21.1259 20.8615C20.5645 21.4228 19.8037 21.739 19.0098 21.7409H17.0009V14.8205C17.0009 13.4932 16.4736 12.2203 15.5351 11.2818C14.5966 10.3432 13.3237 9.81599 11.9964 9.81599C10.6692 9.81599 9.39625 10.3432 8.45773 11.2818C7.51921 12.2203 6.99196 13.4932 6.99196 14.8205V21.7409H4.99017C4.19505 21.7409 3.43239 21.4256 2.86948 20.864C2.30657 20.3024 1.98938 19.5405 1.98749 18.7454V10.6668C1.98702 10.222 2.08558 9.78276 2.27601 9.38087C2.46645 8.97897 2.74399 8.62452 3.08847 8.34325L10.0876 2.62386C10.6235 2.18969 11.2924 1.95278 11.9821 1.95278C12.6719 1.95278 13.3407 2.18969 13.8767 2.62386L20.8758 8.34325C21.2255 8.62171 21.5085 8.97491 21.7039 9.37696C21.8994 9.77902 22.0024 10.2197 22.0054 10.6668V18.7454Z" fill="white"/>
</svg>
