<svg width="44" height="44" viewBox="0 0 44 44" fill="none" xmlns="http://www.w3.org/2000/svg">
<g filter="url(#filter0_d_505_13291)">
<path d="M32.1626 16.8491L30.7685 15.7123V11.959C30.7802 11.8209 30.7631 11.6819 30.7183 11.5508C30.6735 11.4197 30.602 11.2993 30.5082 11.1973C30.4145 11.0952 30.3006 11.0138 30.1737 10.9581C30.0468 10.9023 29.9098 10.8736 29.7712 10.8736C29.6327 10.8736 29.4956 10.9023 29.3687 10.9581C29.2419 11.0138 29.128 11.0952 29.0342 11.1973C28.9405 11.2993 28.8689 11.4197 28.8241 11.5508C28.7793 11.6819 28.7622 11.8209 28.7739 11.959V14.0537L25.1635 11.1297C24.2697 10.3991 23.1508 10 21.9964 10C20.842 10 19.7231 10.3991 18.8293 11.1297L11.8302 16.8491C11.2579 17.3134 10.7966 17.8997 10.48 18.5651C10.1633 19.2306 9.99933 19.9584 10 20.6953V28.774C10 30.1013 10.5273 31.3742 11.4658 32.3127C12.4043 33.2512 13.6772 33.7785 15.0045 33.7785H28.9955C30.3228 33.7785 31.5957 33.2512 32.5342 32.3127C33.4727 31.3742 34 30.1013 34 28.774V20.6668C33.9956 19.9341 33.8284 19.2115 33.5107 18.5513C33.1929 17.891 32.7325 17.3096 32.1626 16.8491ZM19.0009 31.7409V24.8205C19.0385 24.0504 19.3709 23.3243 19.9292 22.7925C20.4875 22.2608 21.229 21.9643 22 21.9643C22.771 21.9643 23.5125 22.2608 24.0708 22.7925C24.6291 23.3243 24.9615 24.0504 24.9991 24.8205V31.7409H19.0009ZM32.0054 28.7454C32.0035 29.5393 30.7351 25.167 30.1737 25.7283C29.6123 26.2897 29.8281 28.7721 29.0342 28.774L27.0009 31.7409L30.3753 30.0179L26.2876 25.5C26.2876 24.1727 25.4385 23.4385 24.5 22.5C23.5615 21.5615 23.3237 19.816 21.9964 19.816C20.6692 19.816 18.6663 22.7925 18.6663 22.7925C17.7278 23.7311 16.992 23.4932 16.992 24.8205L17.1717 31.665C16.3765 31.665 16.1045 23.7117 15.5416 23.1502C14.9787 22.5886 15.0019 24.7951 15 24C14.8096 24.4019 14.9995 23.5553 15 24C15.1904 23.5981 16.6927 32.8518 17.0372 32.5705L18.6401 22.8686C19.176 22.4345 21.3067 19.816 21.9964 19.816C22.6862 19.816 27.6946 27.7964 28.2306 28.2306L32.1626 20.3664C32.5124 20.6449 31.5085 18.9749 31.7039 19.377C31.8994 19.779 26.9979 31.2939 27.0009 31.7409L32.0054 28.7454Z" fill="#00CBB8"/>
</g>
<defs>
<filter id="filter0_d_505_13291" x="0" y="0" width="44" height="43.7783" filterUnits="userSpaceOnUse" color-interpolation-filters="sRGB">
<feFlood flood-opacity="0" result="BackgroundImageFix"/>
<feColorMatrix in="SourceAlpha" type="matrix" values="0 0 0 0 0 0 0 0 0 0 0 0 0 0 0 0 0 0 127 0" result="hardAlpha"/>
<feOffset/>
<feGaussianBlur stdDeviation="5"/>
<feComposite in2="hardAlpha" operator="out"/>
<feColorMatrix type="matrix" values="0 0 0 0 0 0 0 0 0 0.796078 0 0 0 0 0.721569 0 0 0 1 0"/>
<feBlend mode="normal" in2="BackgroundImageFix" result="effect1_dropShadow_505_13291"/>
<feBlend mode="normal" in="SourceGraphic" in2="effect1_dropShadow_505_13291" result="shape"/>
</filter>
</defs>
</svg>
