<svg width="162" height="176" viewBox="0 0 162 176" fill="none" xmlns="http://www.w3.org/2000/svg">
<path d="M106.953 40.8247V141.33C106.953 143.384 105.287 145.051 103.233 145.051H55.1254C53.0716 145.051 51.3984 143.384 51.3984 141.33V40.8247C51.3984 38.7709 53.0716 37.1044 55.1254 37.1044H103.233C105.287 37.1044 106.953 38.7709 106.953 40.8247Z" fill="#09776E"/>
<g filter="url(#filter0_d_345_1847)">
<path d="M32.4755 28.0977C30.2285 29.1607 28.9836 30.4057 27.9205 32.6532C27.4785 33.5882 26.1249 33.5882 25.6829 32.6532C24.6193 30.4057 23.3749 29.1607 21.128 28.0977C20.1927 27.6557 20.1927 26.3026 21.128 25.8606C23.3749 24.7976 24.6196 23.5526 25.6829 21.3051C26.1249 20.3701 27.4785 20.3701 27.9205 21.3051C28.9836 23.5526 30.2285 24.7976 32.4755 25.8606C33.4107 26.3026 33.4107 27.6557 32.4755 28.0977ZM140.873 150.14C138.626 151.203 137.381 152.448 136.318 154.696C135.875 155.63 134.522 155.63 134.08 154.696C133.017 152.448 131.772 151.203 129.524 150.14C128.59 149.698 128.59 148.345 129.524 147.903C131.772 146.84 133.017 145.595 134.08 143.347C134.522 142.413 135.875 142.413 136.318 143.347C137.381 145.595 138.626 146.84 140.873 147.903C141.808 148.345 141.808 149.697 140.873 150.14ZM105.599 37.9518C105.781 38.1017 105.949 38.2698 106.105 38.4576C105.955 38.2764 105.781 38.1017 105.599 37.9518Z" fill="#00CBB8"/>
</g>
<path d="M107.567 26.8094H50.7941C47.6796 26.8094 45.1572 29.3252 45.1572 32.4399V145.661C45.1572 148.769 47.6796 151.291 50.7877 151.291H107.566C110.675 151.291 113.196 148.769 113.196 145.661V32.4402C113.197 29.3313 110.676 26.8094 107.567 26.8094ZM106.954 141.329C106.954 143.382 105.288 145.049 103.235 145.049H72.9602C70.4078 145.049 68.1038 143.42 67.3608 140.98C66.5063 138.158 65.1885 135.536 63.4912 133.208H55.1267C53.0665 133.208 51.3997 131.541 51.3997 129.487V40.8233C51.3997 40.6174 51.4183 40.4172 51.4496 40.2235C51.4496 40.211 51.4563 40.1991 51.4563 40.1866C51.4682 40.0989 51.4873 40.0179 51.5062 39.9427C51.5317 39.8492 51.5561 39.7555 51.5877 39.6684C51.6127 39.5932 51.6377 39.5185 51.6688 39.4431C51.7062 39.3496 51.7434 39.2564 51.7939 39.1687C51.8188 39.1066 51.8499 39.05 51.881 38.9939C51.9867 38.8067 52.1118 38.626 52.2489 38.4574C52.4051 38.2762 52.5743 38.1014 52.7552 37.9516C52.8423 37.877 52.9419 37.8018 53.042 37.7394C53.1292 37.6772 53.2163 37.6206 53.3103 37.5771C53.3483 37.5521 53.3794 37.5335 53.4166 37.521C53.4912 37.4769 53.5664 37.44 53.6474 37.4148C53.6604 37.4023 53.6785 37.3962 53.6973 37.3898C53.7845 37.3524 53.8726 37.3152 53.9598 37.2902C54.2089 37.2087 54.4708 37.1465 54.7458 37.1215C54.8709 37.1091 54.9957 37.1024 55.1272 37.1024H103.236C103.366 37.1024 103.492 37.1091 103.616 37.1215C103.722 37.134 103.822 37.1465 103.922 37.1715C103.997 37.1776 104.066 37.1964 104.134 37.215C104.222 37.2336 104.316 37.2586 104.403 37.2961C104.484 37.3152 104.565 37.3463 104.64 37.3837C104.672 37.3898 104.703 37.4023 104.734 37.4212C104.815 37.4522 104.896 37.4897 104.971 37.5338C104.99 37.5399 105.015 37.5524 105.033 37.5712C105.133 37.6148 105.227 37.6775 105.315 37.7399C105.414 37.8021 105.508 37.8706 105.602 37.9522C105.783 38.102 105.951 38.2701 106.107 38.4579C106.244 38.6266 106.369 38.8069 106.476 38.9945C106.507 39.0505 106.537 39.1071 106.563 39.1692C106.613 39.2569 106.65 39.3504 106.687 39.4436C106.72 39.5188 106.744 39.5934 106.769 39.6689C106.8 39.756 106.826 39.85 106.85 39.9433C106.869 40.0184 106.888 40.0995 106.9 40.1871C106.9 40.1996 106.906 40.2116 106.906 40.224C106.938 40.4177 106.956 40.6177 106.956 40.8238V141.329H106.954Z" fill="#DDFFFC"/>
<path d="M106.953 40.8233V129.487C106.953 131.541 105.287 133.207 103.234 133.207H55.1254C53.0652 133.207 51.3984 131.541 51.3984 129.487V40.8233C51.3984 40.6174 51.417 40.4172 51.4484 40.2235C51.4484 40.211 51.455 40.1991 51.455 40.1866C51.467 40.105 51.4861 40.0179 51.505 39.9427C51.5305 39.8492 51.5549 39.7555 51.5865 39.6684C51.6046 39.5932 51.6364 39.5185 51.6675 39.4431C51.705 39.3496 51.7422 39.2564 51.7926 39.1687C51.8176 39.1066 51.8487 39.05 51.8797 38.9939C51.9855 38.8067 52.1106 38.626 52.2476 38.4574C52.4038 38.2762 52.573 38.1014 52.7539 37.9516C52.8474 37.877 52.9407 37.8079 53.0408 37.7394C53.1279 37.6828 53.2214 37.6268 53.3091 37.5771C53.3471 37.5521 53.3781 37.5335 53.4153 37.521C53.49 37.4769 53.5651 37.4459 53.6462 37.4148C53.6592 37.4023 53.6772 37.3962 53.6961 37.3898C53.7832 37.3524 53.8714 37.3213 53.9585 37.2902C54.2077 37.2087 54.4696 37.1465 54.7445 37.1215C54.8696 37.1091 54.9945 37.1024 55.126 37.1024H103.235C103.359 37.1024 103.49 37.1091 103.615 37.1215C103.721 37.134 103.821 37.1465 103.921 37.1715C103.996 37.1776 104.065 37.1964 104.133 37.215C104.221 37.2336 104.314 37.2586 104.402 37.2961C104.483 37.3152 104.564 37.3463 104.639 37.3837C104.67 37.3898 104.701 37.4023 104.733 37.4212C104.814 37.4522 104.895 37.4897 104.97 37.5338C104.989 37.5399 105.014 37.5524 105.032 37.5712C105.132 37.6212 105.226 37.6775 105.313 37.7399C105.413 37.8084 105.507 37.8775 105.6 37.9522C105.782 38.102 105.956 38.277 106.106 38.4579C106.243 38.6266 106.368 38.8069 106.474 38.9945C106.506 39.0505 106.536 39.1071 106.562 39.1692C106.612 39.2569 106.649 39.3504 106.686 39.4436C106.718 39.5188 106.749 39.5934 106.768 39.6689C106.799 39.756 106.824 39.85 106.849 39.9433C106.867 40.0184 106.887 40.1056 106.899 40.1871C106.899 40.1996 106.905 40.2116 106.905 40.224C106.935 40.4172 106.953 40.6174 106.953 40.8233Z" fill="#14181B"/>
<path d="M79.9335 30.2153H67.0337V33.9606H79.9335V30.2153Z" fill="#09776E"/>
<path d="M92.2095 30.2153H83.887V33.9606H92.2095V30.2153Z" fill="#09776E"/>
<path d="M102.198 54.7991H98.4527V48.9368H92.5909V45.1909H99.1723C100.841 45.1909 102.198 46.5485 102.198 48.2172V54.7991ZM99.1723 125.513H92.5909V121.767H98.4527V115.905H102.198V122.486C102.198 124.155 100.841 125.513 99.1723 125.513ZM59.5073 54.7991H55.762V48.2172C55.762 46.5488 57.119 45.1909 58.7882 45.1909H65.3691V48.9368H59.5073V54.7991ZM65.3691 125.513H58.7882C57.1193 125.513 55.762 124.156 55.762 122.486V115.905H59.5073V121.767H65.3691V125.513Z" fill="#09776E"/>
<path d="M88.2015 94.5124H70.5178V76.8218H88.2015V94.5124Z" fill="white"/>
<path d="M88.2035 76.8218H70.5198V94.5124H88.2035V76.8218Z" fill="#14181B"/>
<path d="M95.5375 83.7419H91.3228V75.8602C91.3228 74.6681 90.3551 73.7004 89.1694 73.7004H81.2333V69.3328H77.4882V73.7004H69.55C68.364 73.7004 67.3971 74.6681 67.3971 75.8602V83.638H63.0786V87.3833H67.3971V95.4735C67.3971 96.6656 68.3643 97.6332 69.55 97.6332H77.3844V101.792H81.1297V97.6332H89.1694C90.3554 97.6332 91.3228 96.6656 91.3228 95.4735V87.4872H95.5375V83.7419ZM88.2017 94.5124H70.518V76.8218H88.2017V94.5124Z" fill="white"/>
<path d="M106.903 40.2255H51.4478C51.7357 38.4527 53.2702 37.1044 55.1251 37.1044H103.234C105.08 37.1044 106.616 38.4527 106.903 40.2255ZM51.4478 130.084H106.903C106.617 131.857 105.081 133.205 103.227 133.205H55.1187C53.2702 133.205 51.7357 131.857 51.4478 130.084Z" fill="#14181B"/>
<path d="M78.8884 145.055C80.9921 145.055 82.6975 143.349 82.6975 141.246C82.6975 139.142 80.9921 137.437 78.8884 137.437C76.7847 137.437 75.0793 139.142 75.0793 141.246C75.0793 143.349 76.7847 145.055 78.8884 145.055Z" fill="white"/>
<defs>
<filter id="filter0_d_345_1847" x="0.426514" y="0.603882" width="161.147" height="174.793" filterUnits="userSpaceOnUse" color-interpolation-filters="sRGB">
<feFlood flood-opacity="0" result="BackgroundImageFix"/>
<feColorMatrix in="SourceAlpha" type="matrix" values="0 0 0 0 0 0 0 0 0 0 0 0 0 0 0 0 0 0 127 0" result="hardAlpha"/>
<feOffset/>
<feGaussianBlur stdDeviation="10"/>
<feComposite in2="hardAlpha" operator="out"/>
<feColorMatrix type="matrix" values="0 0 0 0 0 0 0 0 0 0.796078 0 0 0 0 0.721569 0 0 0 1 0"/>
<feBlend mode="normal" in2="BackgroundImageFix" result="effect1_dropShadow_345_1847"/>
<feBlend mode="normal" in="SourceGraphic" in2="effect1_dropShadow_345_1847" result="shape"/>
</filter>
</defs>
</svg>
