<svg width="115" height="43" viewBox="0 0 115 43" fill="none" xmlns="http://www.w3.org/2000/svg">
<path d="M28.116 1.284V29.008C28.116 33.3 26.898 36.606 24.462 38.926C22.0647 41.246 18.8167 42.406 14.718 42.406C10.426 42.406 6.98467 41.188 4.394 38.752C1.80333 36.316 0.508 32.8553 0.508 28.37H10.368C10.368 30.0713 10.716 31.3667 11.412 32.256C12.108 33.1067 13.1133 33.532 14.428 33.532C15.6267 33.532 16.5547 33.1453 17.212 32.372C17.8693 31.5987 18.198 30.4773 18.198 29.008V1.284H28.116ZM55.3833 42.406C51.5553 42.406 48.0366 41.5167 44.8273 39.738C41.6566 37.9593 39.1239 35.4847 37.2293 32.314C35.3732 29.1047 34.4452 25.5087 34.4452 21.526C34.4452 17.5433 35.3732 13.9667 37.2293 10.796C39.1239 7.62533 41.6566 5.15067 44.8273 3.372C48.0366 1.59333 51.5553 0.703999 55.3833 0.703999C59.2113 0.703999 62.7106 1.59333 65.8813 3.372C69.0906 5.15067 71.6039 7.62533 73.4213 10.796C75.2773 13.9667 76.2053 17.5433 76.2053 21.526C76.2053 25.5087 75.2773 29.1047 73.4213 32.314C71.5653 35.4847 69.0519 37.9593 65.8813 39.738C62.7106 41.5167 59.2113 42.406 55.3833 42.406ZM55.3833 33.358C58.6313 33.358 61.2219 32.2753 63.1552 30.11C65.1273 27.9447 66.1133 25.0833 66.1133 21.526C66.1133 17.93 65.1273 15.0687 63.1552 12.942C61.2219 10.7767 58.6313 9.694 55.3833 9.694C52.0966 9.694 49.4673 10.7573 47.4953 12.884C45.5619 15.0107 44.5953 17.8913 44.5953 21.526C44.5953 25.122 45.5619 28.0027 47.4953 30.168C49.4673 32.2947 52.0966 33.358 55.3833 33.358ZM106.373 21.12C108.732 21.6227 110.626 22.802 112.057 24.658C113.488 26.4753 114.203 28.5633 114.203 30.922C114.203 34.3247 113.004 37.0313 110.607 39.042C108.248 41.014 104.942 42 100.689 42H81.723V1.284H100.051C104.188 1.284 107.417 2.23133 109.737 4.126C112.096 6.02066 113.275 8.592 113.275 11.84C113.275 14.2373 112.637 16.2287 111.361 17.814C110.124 19.3993 108.461 20.5013 106.373 21.12ZM91.641 17.756H98.137C99.761 17.756 100.998 17.408 101.849 16.712C102.738 15.9773 103.183 14.914 103.183 13.522C103.183 12.13 102.738 11.0667 101.849 10.332C100.998 9.59733 99.761 9.23 98.137 9.23H91.641V17.756ZM98.949 33.996C100.612 33.996 101.888 33.6287 102.777 32.894C103.705 32.1207 104.169 31.0187 104.169 29.588C104.169 28.1573 103.686 27.036 102.719 26.224C101.791 25.412 100.496 25.006 98.833 25.006H91.641V33.996H98.949Z" fill="white"/>
</svg>
