<svg width="45" height="31" viewBox="0 0 45 31" fill="none" xmlns="http://www.w3.org/2000/svg">
<g filter="url(#filter0_d_505_13304)">
<path d="M39.4354 12.7298C39.7741 12.7298 39.9999 12.504 39.9999 12.1653V7.64912C39.9999 6.68944 39.266 5.95557 38.3063 5.95557H8.95137C7.99169 5.95557 7.25781 6.68944 7.25781 7.64912V21.1976C7.25781 22.1572 7.99169 22.8911 8.95137 22.8911H38.3063C39.266 22.8911 39.9999 22.1572 39.9999 21.1976V14.4233C39.9999 14.0846 39.7741 13.8588 39.4354 13.8588C39.0966 13.8588 38.8708 14.0846 38.8708 14.4233V21.1976C38.8708 21.5363 39.2145 19.8534 38.8758 19.8534L38.6048 21.2257C40.2419 16.9353 40.4113 11.4031 39 6.99982C38.8871 6.71756 27.8627 7.0846 27.524 7.14106C27.2418 7.25396 27.0724 8.27009 27.1289 8.6088C28.4837 12.9556 28.2579 17.5846 26.5643 21.7621H8.95137C8.61266 21.7621 8.38685 21.5363 8.38685 21.1976L8.90852 8.12711C8.90852 7.7884 9.34283 8.12711 8.95137 7.0846C7.37072 11.262 7.36248 17.5905 8.60443 21.9373C8.66088 22.1631 19.1691 21.8483 19.4514 21.8483H19.5212C19.9164 23.2402 20.0724 20.2379 20.0159 19.9556C18.774 15.7217 18.9998 11.2056 20.6369 7.14106H38.3063C38.645 7.14106 39 6.66111 39 6.99982L38.8708 12.2217C38.8708 12.504 39.0966 12.7298 39.4354 12.7298ZM37.2902 23.5685C37.0079 23.3992 36.6692 23.5121 36.4999 23.7379C36.4434 23.9072 36.2176 24.0202 36.0482 24.0202H14.9917C14.653 24.0202 14.4272 24.246 14.4272 24.5847C14.4272 24.9234 14.653 25.1492 14.9917 25.1492H36.0482C36.6128 25.1492 37.1773 24.8669 37.4595 24.3589C37.6289 24.0766 37.5724 23.7379 37.2902 23.5685ZM12.8465 24.0202H11.9998C11.6611 24.0202 11.4352 24.246 11.4352 24.5847C11.4352 24.9234 11.6611 25.1492 11.9998 25.1492H12.8465C13.1853 25.1492 13.4111 24.9234 13.4111 24.5847C13.4111 24.246 13.1288 24.0202 12.8465 24.0202Z" fill="#00CBB8"/>
<path d="M10.0807 24.0204H6.69355C6.35484 24.0204 6.12904 23.7946 6.12904 23.4559V9.90742C6.12904 9.79452 6.12904 9.73807 6.18549 9.62516C6.35484 9.3429 6.24194 9.00419 5.95968 8.83484C5.67742 8.66548 5.33871 8.77839 5.16936 9.06064C5.05645 9.28645 5 9.62516 5 9.90742V23.4559C5 24.4155 5.73387 25.1494 6.69355 25.1494H10.0807C10.4194 25.1494 10.6452 24.9236 10.6452 24.5849C10.6452 24.2462 10.4194 24.0204 10.0807 24.0204ZM23.6291 10.4719C24.5888 10.4719 25.3227 11.2058 25.3227 12.1655C25.3227 12.5042 25.5485 12.73 25.8872 12.73C26.2259 12.73 26.4517 12.5042 26.4517 12.1655C26.4517 10.8107 25.492 9.68162 24.1936 9.39936V8.77839C24.1936 8.43967 23.9678 8.21387 23.6291 8.21387C23.2904 8.21387 23.0646 8.43967 23.0646 8.77839V9.39936C21.7662 9.68162 20.8065 10.8107 20.8065 12.1655C20.8065 13.7461 22.0485 14.9881 23.6291 14.9881C24.5888 14.9881 25.3227 15.722 25.3227 16.6816C25.3227 17.6413 24.5888 18.3752 23.6291 18.3752C22.6694 18.3752 21.9355 17.6413 21.9355 16.6816C21.9355 16.3429 21.7097 16.1171 21.371 16.1171C21.0323 16.1171 20.8065 16.3429 20.8065 16.6816C20.8065 18.0365 21.7662 19.1655 23.0646 19.4478V20.0688C23.0646 20.4075 23.2904 20.6333 23.6291 20.6333C23.9678 20.6333 24.1936 20.4075 24.1936 20.0688V19.4478C25.492 19.1655 26.4517 18.0365 26.4517 16.6816C26.4517 15.101 25.2098 13.8591 23.6291 13.8591C22.6694 13.8591 21.9355 13.1252 21.9355 12.1655C21.9355 11.2058 22.6694 10.4719 23.6291 10.4719ZM10.6452 9.45581C10.6452 9.39936 10.7016 9.3429 10.7581 9.3429H12.3387C12.6774 9.3429 12.9033 9.1171 12.9033 8.77839C12.9033 8.43967 12.6774 8.21387 12.3387 8.21387H10.7581C10.0807 8.21387 9.51615 8.77839 9.51615 9.45581V11.0365C9.51615 11.3752 9.74195 11.601 10.0807 11.601C10.4194 11.601 10.6452 11.3752 10.6452 11.0365V9.45581ZM10.0807 12.73C9.74195 12.73 9.51615 12.9558 9.51615 13.2945V14.4236C9.51615 14.7623 9.74195 14.9881 10.0807 14.9881C10.4194 14.9881 10.6452 14.7623 10.6452 14.4236V13.2945C10.6452 12.9558 10.4194 12.73 10.0807 12.73ZM36.613 17.8107V19.4478L36.5566 19.5042H34.9195C34.5808 19.5042 34.355 19.73 34.355 20.0688C34.355 20.4075 34.5808 20.6333 34.9195 20.6333H36.5566C37.234 20.6333 37.7421 20.1252 37.7421 19.4478V17.8107C37.7421 17.472 37.5163 17.2462 37.1775 17.2462C36.8388 17.2462 36.613 17.472 36.613 17.8107Z" fill="#00CBB8"/>
</g>
<path d="M10.4721 9.367C10.4721 9.31055 10.5286 9.2541 10.585 9.2541H12.1657C12.5044 9.2541 12.7302 9.02829 12.7302 8.68958C12.7302 8.35087 12.5044 8.12506 12.1657 8.12506H10.585C9.9076 8.12506 9.34308 8.68958 9.34308 9.367V10.9477C9.34308 11.2864 9.56889 11.5122 9.9076 11.5122C10.2463 11.5122 10.4721 11.2864 10.4721 10.9477V9.367ZM9.9076 12.6412C9.56889 12.6412 9.34308 12.867 9.34308 13.2057V14.3348C9.34308 14.6735 9.56889 14.8993 9.9076 14.8993C10.2463 14.8993 10.4721 14.6735 10.4721 14.3348V13.2057C10.4721 12.867 10.2463 12.6412 9.9076 12.6412Z" fill="black"/>
<path d="M37.3081 18.5905V20.2276L37.2517 20.2841H35.6146C35.2759 20.2841 35.0501 20.5099 35.0501 20.8486C35.0501 21.1873 35.2759 21.4131 35.6146 21.4131H37.2517C37.9291 21.4131 38.4372 20.905 38.4372 20.2276V18.5905C38.4372 18.2518 38.2114 18.026 37.8726 18.026C37.5339 18.026 37.3081 18.2518 37.3081 18.5905Z" fill="black"/>
<defs>
<filter id="filter0_d_505_13304" x="0" y="0.955566" width="45" height="29.1938" filterUnits="userSpaceOnUse" color-interpolation-filters="sRGB">
<feFlood flood-opacity="0" result="BackgroundImageFix"/>
<feColorMatrix in="SourceAlpha" type="matrix" values="0 0 0 0 0 0 0 0 0 0 0 0 0 0 0 0 0 0 127 0" result="hardAlpha"/>
<feOffset/>
<feGaussianBlur stdDeviation="2.5"/>
<feComposite in2="hardAlpha" operator="out"/>
<feColorMatrix type="matrix" values="0 0 0 0 0 0 0 0 0 0.796078 0 0 0 0 0.721569 0 0 0 1 0"/>
<feBlend mode="normal" in2="BackgroundImageFix" result="effect1_dropShadow_505_13304"/>
<feBlend mode="normal" in="SourceGraphic" in2="effect1_dropShadow_505_13304" result="shape"/>
</filter>
</defs>
</svg>
