<svg width="35" height="21" viewBox="0 0 35 21" fill="none" xmlns="http://www.w3.org/2000/svg">
<path d="M34.4354 7.24922C34.7741 7.24922 34.9999 7.00758 34.9999 6.64512V1.81231C34.9999 0.785333 34.266 0 33.3063 0H3.95137C2.99169 0 2.25781 0.785333 2.25781 1.81231V16.3108C2.25781 17.3377 2.99169 18.1231 3.95137 18.1231H33.3063C34.266 18.1231 34.9999 17.3377 34.9999 16.3108V9.06153C34.9999 8.69907 34.7741 8.45743 34.4354 8.45743C34.0966 8.45743 33.8708 8.69907 33.8708 9.06153V16.3108C33.8708 16.6732 33.645 16.9149 33.3063 16.9149H22.8627C24.4998 12.3237 24.6692 7.18882 23.2579 2.47682C23.145 2.17477 22.8627 1.99354 22.524 2.05395C22.2418 2.17477 22.0724 2.47682 22.1289 2.83928C23.4837 7.49087 23.2579 12.4445 21.5643 16.9149H3.95137C3.61266 16.9149 3.38685 16.6732 3.38685 16.3108V1.81231C3.38685 1.44984 3.61266 1.2082 3.95137 1.2082H14.395C12.8143 5.67856 12.6449 10.6322 13.8869 15.2838C13.9433 15.5254 14.1691 15.7067 14.4514 15.7067H14.6208C14.903 15.5858 15.0724 15.2838 15.0159 14.9817C13.774 10.451 13.9998 5.61815 15.6369 1.26861H33.3063C33.645 1.26861 33.8708 1.51026 33.8708 1.87272V6.70553C33.8708 7.00758 34.0966 7.24922 34.4354 7.24922ZM32.2902 18.848C32.0079 18.6668 31.6692 18.7876 31.4999 19.0292C31.4434 19.2104 31.2176 19.3313 31.0482 19.3313H9.99171C9.653 19.3313 9.4272 19.5729 9.4272 19.9354C9.4272 20.2978 9.653 20.5395 9.99171 20.5395H31.0482C31.6128 20.5395 32.1773 20.2374 32.4595 19.6937C32.6289 19.3917 32.5724 19.0292 32.2902 18.848ZM7.84654 19.3313H6.99977C6.66106 19.3313 6.43525 19.5729 6.43525 19.9354C6.43525 20.2978 6.66106 20.5395 6.99977 20.5395H7.84654C8.18525 20.5395 8.41106 20.2978 8.41106 19.9354C8.41106 19.5729 8.1288 19.3313 7.84654 19.3313Z" fill="white"/>
<path d="M5.08066 19.3314H1.69355C1.35484 19.3314 1.12904 19.0897 1.12904 18.7273V4.22881C1.12904 4.10799 1.12904 4.04758 1.18549 3.92676C1.35484 3.62471 1.24194 3.26225 0.959681 3.08102C0.677422 2.89979 0.338711 3.02061 0.169355 3.32266C0.0564518 3.5643 0 3.92676 0 4.22881V18.7273C0 19.7542 0.733874 20.5396 1.69355 20.5396H5.08066C5.41938 20.5396 5.64518 20.2979 5.64518 19.9355C5.64518 19.573 5.41938 19.3314 5.08066 19.3314ZM18.6291 4.83291C19.5888 4.83291 20.3227 5.61825 20.3227 6.64522C20.3227 7.00768 20.5485 7.24932 20.8872 7.24932C21.2259 7.24932 21.4517 7.00768 21.4517 6.64522C21.4517 5.19537 20.492 3.98717 19.1936 3.68512V3.02061C19.1936 2.65814 18.9678 2.4165 18.6291 2.4165C18.2904 2.4165 18.0646 2.65814 18.0646 3.02061V3.68512C16.7662 3.98717 15.8065 5.19537 15.8065 6.64522C15.8065 8.3367 17.0485 9.66573 18.6291 9.66573C19.5888 9.66573 20.3227 10.4511 20.3227 11.478C20.3227 12.505 19.5888 13.2903 18.6291 13.2903C17.6694 13.2903 16.9355 12.505 16.9355 11.478C16.9355 11.1156 16.7097 10.8739 16.371 10.8739C16.0323 10.8739 15.8065 11.1156 15.8065 11.478C15.8065 12.9279 16.7662 14.1361 18.0646 14.4381V15.1026C18.0646 15.4651 18.2904 15.7068 18.6291 15.7068C18.9678 15.7068 19.1936 15.4651 19.1936 15.1026V14.4381C20.492 14.1361 21.4517 12.9279 21.4517 11.478C21.4517 9.78655 20.2098 8.45753 18.6291 8.45753C17.6694 8.45753 16.9355 7.67219 16.9355 6.64522C16.9355 5.61825 17.6694 4.83291 18.6291 4.83291ZM5.64518 3.74553C5.64518 3.68512 5.70163 3.62471 5.75809 3.62471H7.33874C7.67745 3.62471 7.90326 3.38307 7.90326 3.02061C7.90326 2.65814 7.67745 2.4165 7.33874 2.4165H5.75809C5.08066 2.4165 4.51615 3.02061 4.51615 3.74553V5.43701C4.51615 5.79948 4.74195 6.04112 5.08066 6.04112C5.41938 6.04112 5.64518 5.79948 5.64518 5.43701V3.74553ZM5.08066 7.24932C4.74195 7.24932 4.51615 7.49096 4.51615 7.85342V9.06163C4.51615 9.42409 4.74195 9.66573 5.08066 9.66573C5.41938 9.66573 5.64518 9.42409 5.64518 9.06163V7.85342C5.64518 7.49096 5.41938 7.24932 5.08066 7.24932ZM31.613 12.6862V14.4381L31.5566 14.4985H29.9195C29.5808 14.4985 29.355 14.7402 29.355 15.1026C29.355 15.4651 29.5808 15.7068 29.9195 15.7068H31.5566C32.234 15.7068 32.7421 15.1631 32.7421 14.4381V12.6862C32.7421 12.3238 32.5163 12.0821 32.1775 12.0821C31.8388 12.0821 31.613 12.3238 31.613 12.6862Z" fill="white"/>
</svg>
