<svg width="310" height="334" viewBox="0 0 310 334" fill="none" xmlns="http://www.w3.org/2000/svg">
<path d="M250 120C283.137 120 310 93.1371 310 60C310 26.8629 283.137 0 250 0C216.863 0 190 26.8629 190 60C190 93.1371 216.863 120 250 120Z" fill="#79B4AF"/>
<path d="M250 110C277.614 110 300 87.6142 300 60C300 32.3858 277.614 10 250 10C222.386 10 200 32.3858 200 60C200 87.6142 222.386 110 250 110Z" fill="#09776E"/>
<path d="M270 106H230V88C230 86.9 230.9 86 232 86H268C269.1 86 270 86.9 270 88V106Z" fill="#0A675F"/>
<path d="M273 109H227L228 106H272L273 109Z" fill="#085A53"/>
<path d="M258 102H242C239.8 102 238 100.2 238 98V95C238 92.8 239.8 91 242 91H258C260.2 91 262 92.8 262 95V98C262 100.2 260.2 102 258 102Z" fill="white"/>
<path d="M244.801 64.5H255.301V81H244.801V64.5Z" fill="#F9A74E"/>
<path opacity="0.2" d="M252.199 64.5H255.199V81H252.199V64.5Z" fill="#382673"/>
<path d="M259 80H241C237.7 80 235 82.7 235 86H265C265 82.7 262.3 80 259 80Z" fill="#FFDE39"/>
<path d="M259 80H254C257.3 80 260 82.7 260 86H265C265 82.7 262.3 80 259 80Z" fill="#FEC632"/>
<path d="M255.1 73H244.9C242.2 73 240 70.8 240 68.1V67H260V68.1C260 70.8 257.8 73 255.1 73Z" fill="#FFDE39"/>
<path d="M256.002 67V68.1C256.002 70.8 254.802 73 252.102 73H255.102C257.802 73 260.002 70.8 260.002 68.1V67H256.002Z" fill="#FEC632"/>
<path d="M267 86H233C233 84.9 233.9 84 235 84H265C266.1 84 267 84.9 267 86Z" fill="#F9A74E"/>
<path opacity="0.2" d="M265 84H260C261.1 84 262 84.9 262 86H267C267 84.9 266.1 84 265 84Z" fill="#382673"/>
<path d="M262 65H238V68C238 69.1 238.9 70 240 70H260C261.1 70 262 69.1 262 68V65Z" fill="#F9A74E"/>
<path d="M262 65H238V68C238 69.1 238.9 70 240 70H260C261.1 70 262 69.1 262 68V65Z" fill="#F9A74E"/>
<path opacity="0.2" d="M257 65L255 68C256 68 256.1 70 255 70H260C261.1 70 262 69.1 262 68V65H257Z" fill="#382673"/>
<path d="M264 33H283V34C283 44.5 274.5 53 264 53" stroke="#F9A74E" stroke-width="4" stroke-miterlimit="10" stroke-linecap="round" stroke-linejoin="round"/>
<path d="M236 33H217V34C217 44.5 225.5 53 236 53" stroke="#FEC632" stroke-width="4" stroke-miterlimit="10" stroke-linecap="round" stroke-linejoin="round"/>
<path d="M258.5 68H241.5C235.1 68 230 62.9 230 56.5V25H270V56.5C270 62.9 264.9 68 258.5 68Z" fill="#FFDE39"/>
<path opacity="0.3" d="M236 28V48" stroke="white" stroke-width="2" stroke-miterlimit="10" stroke-linecap="round" stroke-linejoin="round"/>
<path d="M265 25V56.5C265 62.9 259.9 68 253.5 68H258.5C264.9 68 270 62.9 270 56.5V25H265Z" fill="#FEC632"/>
<path d="M273 25H227L230 28H270L273 25Z" fill="#F9A74E"/>
<path opacity="0.2" d="M267 25L265 28H270L273 25H267Z" fill="#382673"/>
<path d="M274 21H226C224.9 21 224 21.9 224 23C224 24.1 224.9 25 226 25H274C275.1 25 276 24.1 276 23C276 21.9 275.1 21 274 21Z" fill="#FFDE39"/>
<path d="M274 21H268C269.1 21 270 21.9 270 23C270 24.1 269.1 25 268 25H274C275.1 25 276 24.1 276 23C276 21.9 275.1 21 274 21Z" fill="#FEC632"/>
<path opacity="0.3" d="M236 52.4004V54.7004" stroke="white" stroke-width="2" stroke-miterlimit="10" stroke-linecap="round" stroke-linejoin="round"/>
<path d="M234.9 17.3996L235.5 15.8996C235.7 15.4996 236.3 15.4996 236.4 15.8996L237 17.3996C237.5 18.5996 238.4 19.4996 239.6 19.9996L241.1 20.5996C241.5 20.7996 241.5 21.3996 241.1 21.4996L239.6 22.0996C238.4 22.5996 237.5 23.4996 237 24.6996L236.4 26.1996C236.2 26.5996 235.6 26.5996 235.5 26.1996L234.9 24.6996C234.4 23.4996 233.5 22.5996 232.3 22.0996L230.8 21.4996C230.4 21.2996 230.4 20.6996 230.8 20.5996L232.3 19.9996C233.5 19.4996 234.5 18.4996 234.9 17.3996Z" fill="white"/>
<path d="M250.001 50.5008L254.301 52.8008C254.901 53.1008 255.701 52.6008 255.601 51.9008L254.701 47.0008L258.201 43.6008C258.701 43.1008 258.401 42.2008 257.701 42.1008L252.901 41.4008L250.701 37.0008C250.401 36.4008 249.501 36.4008 249.201 37.0008L247.001 41.4008L242.201 42.1008C241.501 42.2008 241.201 43.1008 241.701 43.6008L245.201 47.0008L244.401 51.8008C244.301 52.5008 245.001 53.0008 245.701 52.7008L250.001 50.5008Z" fill="#FEC632"/>
<circle cx="250" cy="60" r="60" fill="black" fill-opacity="0.2"/>
<path d="M60 334C93.1371 334 120 307.137 120 274C120 240.863 93.1371 214 60 214C26.8629 214 0 240.863 0 274C0 307.137 26.8629 334 60 334Z" fill="#79B4AF"/>
<path d="M60 324C87.6142 324 110 301.614 110 274C110 246.386 87.6142 224 60 224C32.3858 224 10 246.386 10 274C10 301.614 32.3858 324 60 324Z" fill="#09776E"/>
<path d="M80 320H40V302C40 300.9 40.9 300 42 300H78C79.1 300 80 300.9 80 302V320Z" fill="#0A675F"/>
<path d="M83 323H37L38 320H82L83 323Z" fill="#085A53"/>
<path d="M68 316H52C49.8 316 48 314.2 48 312V309C48 306.8 49.8 305 52 305H68C70.2 305 72 306.8 72 309V312C72 314.2 70.2 316 68 316Z" fill="white"/>
<path d="M54.8008 278.5H65.3008V295H54.8008V278.5Z" fill="#F9A74E"/>
<path opacity="0.2" d="M62.1992 278.5H65.1992V295H62.1992V278.5Z" fill="#382673"/>
<path d="M69 294H51C47.7 294 45 296.7 45 300H75C75 296.7 72.3 294 69 294Z" fill="#FFDE39"/>
<path d="M69 294H64C67.3 294 70 296.7 70 300H75C75 296.7 72.3 294 69 294Z" fill="#FEC632"/>
<path d="M65.1 287H54.9C52.2 287 50 284.8 50 282.1V281H70V282.1C70 284.8 67.8 287 65.1 287Z" fill="#FFDE39"/>
<path d="M66.0016 281V282.1C66.0016 284.8 64.8016 287 62.1016 287H65.1016C67.8016 287 70.0016 284.8 70.0016 282.1V281H66.0016Z" fill="#FEC632"/>
<path d="M77 300H43C43 298.9 43.9 298 45 298H75C76.1 298 77 298.9 77 300Z" fill="#F9A74E"/>
<path opacity="0.2" d="M75 298H70C71.1 298 72 298.9 72 300H77C77 298.9 76.1 298 75 298Z" fill="#382673"/>
<path d="M72 279H48V282C48 283.1 48.9 284 50 284H70C71.1 284 72 283.1 72 282V279Z" fill="#F9A74E"/>
<path d="M72 279H48V282C48 283.1 48.9 284 50 284H70C71.1 284 72 283.1 72 282V279Z" fill="#F9A74E"/>
<path opacity="0.2" d="M67 279L65 282C66 282 66.1 284 65 284H70C71.1 284 72 283.1 72 282V279H67Z" fill="#382673"/>
<path d="M74 247H93V248C93 258.5 84.5 267 74 267" stroke="#F9A74E" stroke-width="4" stroke-miterlimit="10" stroke-linecap="round" stroke-linejoin="round"/>
<path d="M46 247H27V248C27 258.5 35.5 267 46 267" stroke="#FEC632" stroke-width="4" stroke-miterlimit="10" stroke-linecap="round" stroke-linejoin="round"/>
<path d="M68.5 282H51.5C45.1 282 40 276.9 40 270.5V239H80V270.5C80 276.9 74.9 282 68.5 282Z" fill="#FFDE39"/>
<path opacity="0.3" d="M46 242V262" stroke="white" stroke-width="2" stroke-miterlimit="10" stroke-linecap="round" stroke-linejoin="round"/>
<path d="M75 239V270.5C75 276.9 69.9 282 63.5 282H68.5C74.9 282 80 276.9 80 270.5V239H75Z" fill="#FEC632"/>
<path d="M83 239H37L40 242H80L83 239Z" fill="#F9A74E"/>
<path opacity="0.2" d="M77 239L75 242H80L83 239H77Z" fill="#382673"/>
<path d="M84 235H36C34.9 235 34 235.9 34 237C34 238.1 34.9 239 36 239H84C85.1 239 86 238.1 86 237C86 235.9 85.1 235 84 235Z" fill="#FFDE39"/>
<path d="M84 235H78C79.1 235 80 235.9 80 237C80 238.1 79.1 239 78 239H84C85.1 239 86 238.1 86 237C86 235.9 85.1 235 84 235Z" fill="#FEC632"/>
<path opacity="0.3" d="M46 266.4V268.7" stroke="white" stroke-width="2" stroke-miterlimit="10" stroke-linecap="round" stroke-linejoin="round"/>
<path d="M44.9 231.4L45.5 229.9C45.7 229.5 46.3 229.5 46.4 229.9L47 231.4C47.5 232.6 48.4 233.5 49.6 234L51.1 234.6C51.5 234.8 51.5 235.4 51.1 235.5L49.6 236.1C48.4 236.6 47.5 237.5 47 238.7L46.4 240.2C46.2 240.6 45.6 240.6 45.5 240.2L44.9 238.7C44.4 237.5 43.5 236.6 42.3 236.1L40.8 235.5C40.4 235.3 40.4 234.7 40.8 234.6L42.3 234C43.5 233.5 44.5 232.5 44.9 231.4Z" fill="white"/>
<path d="M60.0014 264.501L64.3014 266.801C64.9014 267.101 65.7014 266.601 65.6014 265.901L64.7014 261.001L68.2014 257.601C68.7014 257.101 68.4014 256.201 67.7014 256.101L62.9014 255.401L60.7014 251.001C60.4014 250.401 59.5014 250.401 59.2014 251.001L57.0014 255.401L52.2014 256.101C51.5014 256.201 51.2014 257.101 51.7014 257.601L55.2014 261.001L54.4014 265.801C54.3014 266.501 55.0014 267.001 55.7014 266.701L60.0014 264.501Z" fill="#FEC632"/>
<circle cx="60" cy="274" r="60" fill="black" fill-opacity="0.2"/>
<path d="M235.537 167.083C235.537 164.749 233.986 163.193 231.661 163.193H215.77C213.444 163.193 211.894 164.749 211.894 167.083C211.894 169.417 213.444 170.972 215.77 170.972H231.661C233.599 170.972 235.537 169.028 235.537 167.083ZM262.28 176.029C263.83 176.029 264.993 175.251 265.768 173.695C266.543 171.75 265.768 169.417 263.83 168.639C258.792 166.305 253.366 164.36 247.552 163.582C245.614 163.193 243.288 164.749 243.288 166.694C242.901 168.639 244.451 170.972 246.389 170.972C251.428 171.75 256.079 173.306 260.342 175.251C261.117 176.029 261.892 176.029 262.28 176.029ZM296 223.874V219.984C296 215.706 295.612 211.427 294.45 207.148C294.062 205.203 291.737 203.647 289.799 204.036C287.861 204.425 286.31 206.759 286.698 208.704C287.473 212.205 287.861 216.095 287.861 219.596V223.485C287.861 225.819 289.411 227.375 291.737 227.375C294.062 227.375 296 226.208 296 223.874ZM260.73 278.721C261.117 278.721 261.892 278.721 262.28 278.332C267.319 275.998 272.357 272.886 276.621 269.386C278.171 267.83 278.559 265.496 277.008 263.94C275.458 262.384 273.132 261.995 271.582 263.551C267.706 266.663 263.83 269.386 259.179 271.33C257.241 272.108 256.466 274.442 257.241 276.387C257.629 277.554 259.179 278.721 260.73 278.721ZM285.148 197.423C285.923 197.423 286.31 197.423 287.086 197.034C289.023 195.867 289.411 193.534 288.636 191.589C285.923 186.532 282.435 182.253 278.171 178.363C276.621 176.807 274.295 176.807 272.745 178.752C271.194 180.308 271.194 182.642 273.132 184.198C276.621 187.699 279.721 191.2 282.047 195.478C282.434 196.645 283.597 197.423 285.148 197.423ZM198.328 275.22C196.003 275.22 194.452 276.776 194.452 279.11C194.452 281.444 196.003 283 198.328 283H214.219C216.545 283 218.095 281.444 218.095 279.11C218.095 276.776 216.545 275.22 214.219 275.22H198.328ZM282.047 257.327C282.822 257.716 283.21 257.716 283.985 257.716C285.148 257.716 286.698 256.938 287.473 255.771C290.574 251.103 292.512 245.657 294.062 240.212C294.45 238.267 293.287 235.933 291.349 235.544C289.411 235.155 287.086 236.322 286.698 238.267C285.535 242.935 283.597 247.602 280.884 251.881C279.721 253.826 280.109 256.549 282.047 257.327ZM229.723 283H239.025C241.35 283 243.676 283 246.001 282.611C247.939 282.222 249.49 280.277 249.49 278.332C249.102 276.387 247.164 274.831 245.226 274.831C243.288 275.22 241.35 275.22 239.412 275.22H230.11C227.785 275.22 226.234 276.776 226.234 279.11C226.234 281.444 227.785 283 229.723 283ZM41.3559 162.415C42.131 162.804 42.5186 162.804 43.2938 162.804C44.4566 162.804 46.0069 162.026 46.7821 160.859C47.9448 158.914 47.1697 156.58 45.6193 155.413C41.3559 152.69 37.8676 149.578 34.3793 146.077C32.829 144.521 30.5034 144.133 28.9531 145.688C27.4028 147.244 27.0152 149.578 28.5655 151.134C32.4414 155.802 36.7048 159.692 41.3559 162.415ZM18.4883 116.904C16.5503 117.293 15 119.238 15 121.182C15.7752 127.017 17.3255 132.463 19.651 137.52C20.4262 139.076 21.589 139.854 23.1393 139.854C23.5269 139.854 24.3021 139.854 24.6897 139.465C26.6276 138.687 27.4028 136.353 26.6276 134.408C24.6897 130.129 23.1393 125.072 22.7517 120.404C22.3641 118.071 20.4262 116.515 18.4883 116.904ZM49.1076 65.5577C47.9448 63.6127 45.6193 62.8348 43.6814 64.0017C38.6428 66.7246 34.3793 70.2255 30.1159 74.5043C28.5655 76.0602 28.5655 78.3941 30.1159 79.9501C30.891 80.728 31.6662 81.117 32.829 81.117C33.9917 81.117 34.7669 80.728 35.5421 79.9501C39.0303 76.4492 42.9062 73.3373 47.1697 71.0034C49.1076 69.8365 49.8828 67.5026 49.1076 65.5577ZM71.2 57C67.3241 57 63.0607 57.389 59.1848 58.167C57.2469 58.5559 55.6966 60.5009 56.0841 62.8348C56.4717 64.7797 58.0221 65.9466 59.96 65.9466H60.7352C64.2235 65.1687 67.3241 64.7797 70.8124 64.7797H75.4635C77.789 64.7797 79.3393 63.2238 79.3393 60.8898C79.3393 58.5559 77.789 57 75.4635 57H71.2ZM57.2469 169.028C61.8979 170.194 66.549 170.972 71.5876 170.972H73.5255C75.851 170.972 77.4014 169.417 77.4014 167.083C77.4014 164.749 75.851 163.193 73.5255 163.193H71.2C66.9366 163.193 62.6731 162.804 58.7972 161.637C56.8593 161.248 54.5338 162.415 54.1462 164.36C53.7586 166.305 54.9214 168.639 57.2469 169.028ZM25.8524 86.1738C23.9145 85.3959 21.589 86.1738 20.8138 87.7298C18.1007 92.7866 16.5503 98.2324 15.3876 103.678C15 105.623 16.5503 107.957 18.4883 108.346H19.2634C21.2014 108.346 22.7517 107.179 23.1393 105.234C23.9145 100.566 25.4648 95.8984 27.7903 91.2306C28.5655 89.6747 27.7903 87.3408 25.8524 86.1738ZM170.81 57H154.919C152.593 57 151.043 58.5559 151.043 60.8898C151.043 63.2238 152.593 64.7797 154.919 64.7797H170.81C173.135 64.7797 174.686 63.2238 174.686 60.8898C174.686 58.5559 172.748 57 170.81 57ZM172.36 167.083C172.36 164.749 170.81 163.193 168.484 163.193H152.593C150.268 163.193 148.717 164.749 148.717 167.083C148.717 169.417 150.268 170.972 152.593 170.972H168.484C170.422 170.972 172.36 169.028 172.36 167.083ZM107.633 57H91.7421C89.4166 57 87.8662 58.5559 87.8662 60.8898C87.8662 63.2238 89.4166 64.7797 91.7421 64.7797H107.633C109.959 64.7797 111.509 63.2238 111.509 60.8898C111.509 58.5559 109.571 57 107.633 57ZM135.152 283H151.043C153.368 283 154.919 281.444 154.919 279.11C154.919 276.776 153.368 275.22 151.043 275.22H135.152C132.826 275.22 131.276 276.776 131.276 279.11C131.276 281.444 132.826 283 135.152 283ZM85.5407 167.083C85.5407 169.417 87.091 170.972 89.4165 170.972H105.308C107.633 170.972 109.183 169.417 109.183 167.083C109.183 164.749 107.633 163.193 105.308 163.193H89.4165C87.4786 163.193 85.5407 164.749 85.5407 167.083ZM139.028 64.7797C141.353 64.7797 142.903 63.2238 142.903 60.8898C142.903 58.5559 141.353 57 139.028 57H123.137C120.811 57 119.261 58.5559 119.261 60.8898C119.261 63.2238 120.811 64.7797 123.137 64.7797H139.028ZM180.112 167.083C180.112 169.417 181.662 170.972 183.988 170.972H199.879C202.204 170.972 203.754 169.417 203.754 167.083C203.754 164.749 202.204 163.193 199.879 163.193H183.988C182.05 163.193 180.112 164.749 180.112 167.083ZM162.67 279.11C162.67 281.444 164.221 283 166.546 283H182.437C184.763 283 186.313 281.444 186.313 279.11C186.313 276.776 184.763 275.22 182.437 275.22H166.546C164.608 275.22 162.67 277.165 162.67 279.11ZM140.578 167.083C140.578 164.749 139.028 163.193 136.702 163.193H120.811C118.486 163.193 116.935 164.749 116.935 167.083C116.935 169.417 118.486 170.972 120.811 170.972H136.702C139.028 170.972 140.578 169.028 140.578 167.083Z" fill="white" fill-opacity="0.8"/>
</svg>
