<svg width="120" height="120" viewBox="0 0 120 120" fill="none" xmlns="http://www.w3.org/2000/svg">
<path d="M60 120C93.1371 120 120 93.1371 120 60C120 26.8629 93.1371 0 60 0C26.8629 0 0 26.8629 0 60C0 93.1371 26.8629 120 60 120Z" fill="#79B4AF"/>
<path d="M60 110C87.6142 110 110 87.6142 110 60C110 32.3858 87.6142 10 60 10C32.3858 10 10 32.3858 10 60C10 87.6142 32.3858 110 60 110Z" fill="#09776E"/>
<path d="M80 106H40V88C40 86.9 40.9 86 42 86H78C79.1 86 80 86.9 80 88V106Z" fill="#0A675F"/>
<path d="M83 109H37L38 106H82L83 109Z" fill="#085A53"/>
<path d="M68 102H52C49.8 102 48 100.2 48 98V95C48 92.8 49.8 91 52 91H68C70.2 91 72 92.8 72 95V98C72 100.2 70.2 102 68 102Z" fill="white"/>
<path d="M54.8008 64.5H65.3008V81H54.8008V64.5Z" fill="#F9A74E"/>
<path opacity="0.2" d="M62.1992 64.5H65.1992V81H62.1992V64.5Z" fill="#382673"/>
<path d="M69 80H51C47.7 80 45 82.7 45 86H75C75 82.7 72.3 80 69 80Z" fill="#FFDE39"/>
<path d="M69 80H64C67.3 80 70 82.7 70 86H75C75 82.7 72.3 80 69 80Z" fill="#FEC632"/>
<path d="M65.1 73H54.9C52.2 73 50 70.8 50 68.1V67H70V68.1C70 70.8 67.8 73 65.1 73Z" fill="#FFDE39"/>
<path d="M66.0016 67V68.1C66.0016 70.8 64.8016 73 62.1016 73H65.1016C67.8016 73 70.0016 70.8 70.0016 68.1V67H66.0016Z" fill="#FEC632"/>
<path d="M77 86H43C43 84.9 43.9 84 45 84H75C76.1 84 77 84.9 77 86Z" fill="#F9A74E"/>
<path opacity="0.2" d="M75 84H70C71.1 84 72 84.9 72 86H77C77 84.9 76.1 84 75 84Z" fill="#382673"/>
<path d="M72 65H48V68C48 69.1 48.9 70 50 70H70C71.1 70 72 69.1 72 68V65Z" fill="#F9A74E"/>
<path d="M72 65H48V68C48 69.1 48.9 70 50 70H70C71.1 70 72 69.1 72 68V65Z" fill="#F9A74E"/>
<path opacity="0.2" d="M67 65L65 68C66 68 66.1 70 65 70H70C71.1 70 72 69.1 72 68V65H67Z" fill="#382673"/>
<path d="M74 33H93V34C93 44.5 84.5 53 74 53" stroke="#F9A74E" stroke-width="4" stroke-miterlimit="10" stroke-linecap="round" stroke-linejoin="round"/>
<path d="M46 33H27V34C27 44.5 35.5 53 46 53" stroke="#FEC632" stroke-width="4" stroke-miterlimit="10" stroke-linecap="round" stroke-linejoin="round"/>
<path d="M68.5 68H51.5C45.1 68 40 62.9 40 56.5V25H80V56.5C80 62.9 74.9 68 68.5 68Z" fill="#FFDE39"/>
<path opacity="0.3" d="M46 28V48" stroke="white" stroke-width="2" stroke-miterlimit="10" stroke-linecap="round" stroke-linejoin="round"/>
<path d="M75 25V56.5C75 62.9 69.9 68 63.5 68H68.5C74.9 68 80 62.9 80 56.5V25H75Z" fill="#FEC632"/>
<path d="M83 25H37L40 28H80L83 25Z" fill="#F9A74E"/>
<path opacity="0.2" d="M77 25L75 28H80L83 25H77Z" fill="#382673"/>
<path d="M84 21H36C34.9 21 34 21.9 34 23C34 24.1 34.9 25 36 25H84C85.1 25 86 24.1 86 23C86 21.9 85.1 21 84 21Z" fill="#FFDE39"/>
<path d="M84 21H78C79.1 21 80 21.9 80 23C80 24.1 79.1 25 78 25H84C85.1 25 86 24.1 86 23C86 21.9 85.1 21 84 21Z" fill="#FEC632"/>
<path opacity="0.3" d="M46 52.4004V54.7004" stroke="white" stroke-width="2" stroke-miterlimit="10" stroke-linecap="round" stroke-linejoin="round"/>
<path d="M44.9 17.3996L45.5 15.8996C45.7 15.4996 46.3 15.4996 46.4 15.8996L47 17.3996C47.5 18.5996 48.4 19.4996 49.6 19.9996L51.1 20.5996C51.5 20.7996 51.5 21.3996 51.1 21.4996L49.6 22.0996C48.4 22.5996 47.5 23.4996 47 24.6996L46.4 26.1996C46.2 26.5996 45.6 26.5996 45.5 26.1996L44.9 24.6996C44.4 23.4996 43.5 22.5996 42.3 22.0996L40.8 21.4996C40.4 21.2996 40.4 20.6996 40.8 20.5996L42.3 19.9996C43.5 19.4996 44.5 18.4996 44.9 17.3996Z" fill="white"/>
<path d="M60.0014 50.4998L64.3014 52.7998C64.9014 53.0998 65.7014 52.5998 65.6014 51.8998L64.7014 46.9998L68.2014 43.5998C68.7014 43.0998 68.4014 42.1998 67.7014 42.0998L62.9014 41.3998L60.7014 36.9998C60.4014 36.3998 59.5014 36.3998 59.2014 36.9998L57.0014 41.3998L52.2014 42.0998C51.5014 42.1998 51.2014 43.0998 51.7014 43.5998L55.2014 46.9998L54.4014 51.7998C54.3014 52.4998 55.0014 52.9998 55.7014 52.6998L60.0014 50.4998Z" fill="#FEC632"/>
</svg>
