<svg width="20" height="22" viewBox="0 0 20 22" fill="none" xmlns="http://www.w3.org/2000/svg">
<path d="M9 10.8995V15.9997C9 16.265 9.10536 16.5193 9.29289 16.7069C9.48043 16.8944 9.73478 16.9998 10 16.9998C10.2652 16.9998 10.5196 16.8944 10.7071 16.7069C10.8946 16.5193 11 16.265 11 15.9997V10.8995C12.214 10.6517 13.2928 9.96185 14.0272 8.9638C14.7616 7.96574 15.0992 6.73055 14.9747 5.49768C14.8501 4.26482 14.2723 3.12211 13.3532 2.29111C12.434 1.4601 11.2391 1 10 1C8.76092 1 7.56598 1.4601 6.64685 2.29111C5.72771 3.12211 5.14986 4.26482 5.02532 5.49768C4.90078 6.73055 5.23843 7.96574 5.9728 8.9638C6.70718 9.96185 7.78596 10.6517 9 10.8995ZM10 2.99908C10.5933 2.99908 11.1734 3.17504 11.6667 3.5047C12.1601 3.83436 12.5446 4.30292 12.7716 4.85113C12.9987 5.39933 13.0581 6.00256 12.9424 6.58454C12.8266 7.16651 12.5409 7.70108 12.1213 8.12066C11.7018 8.54024 11.1672 8.82598 10.5853 8.94174C10.0033 9.0575 9.40013 8.99809 8.85195 8.77101C8.30377 8.54394 7.83524 8.1594 7.50559 7.66603C7.17595 7.17266 7 6.59261 7 5.99923C7 5.20354 7.31607 4.44044 7.87868 3.87781C8.44129 3.31517 9.20435 2.99908 10 2.99908ZM14.21 13.4196C14.0787 13.392 13.9432 13.3906 13.8113 13.4154C13.6795 13.4401 13.5537 13.4907 13.4414 13.564C13.329 13.6374 13.2322 13.7322 13.1565 13.8429C13.0808 13.9537 13.0276 14.0783 13 14.2097C12.9724 14.341 12.971 14.4765 12.9958 14.6083C13.0205 14.7402 13.071 14.8659 13.1444 14.9783C13.2178 15.0907 13.3125 15.1875 13.4233 15.2632C13.5341 15.339 13.6587 15.3921 13.79 15.4197C16.06 15.8697 17 16.6798 17 16.9998C17 17.5798 14.55 18.9999 10 18.9999C5.45 18.9999 3 17.5798 3 16.9998C3 16.6798 3.94 15.8697 6.21 15.3797C6.34132 15.3521 6.46593 15.299 6.5767 15.2232C6.68747 15.1475 6.78224 15.0507 6.8556 14.9383C6.92896 14.8259 6.97947 14.7002 7.00424 14.5683C7.02902 14.4365 7.02758 14.301 7 14.1697C6.97242 14.0383 6.91925 13.9137 6.84352 13.8029C6.76778 13.6922 6.67097 13.5974 6.55861 13.524C6.44626 13.4507 6.32055 13.4001 6.18867 13.3754C6.05679 13.3506 5.92132 13.352 5.79 13.3796C2.75 14.0796 1 15.3897 1 16.9998C1 19.6299 5.53 21 10 21C14.47 21 19 19.6299 19 16.9998C19 15.3897 17.25 14.0796 14.21 13.4196Z" fill="white" stroke="#202426" stroke-width="0.7"/>
</svg>
