<svg width="18" height="22" viewBox="0 0 18 22" fill="none" xmlns="http://www.w3.org/2000/svg">
<path d="M14.8182 8.27273V6.81818C14.8182 5.2751 14.2052 3.79523 13.1141 2.70411C12.023 1.61299 10.5431 1 9 1C7.45692 1 5.97704 1.61299 4.88592 2.70411C3.7948 3.79523 3.18182 5.2751 3.18182 6.81818V8.27273C2.60316 8.27273 2.04821 8.5026 1.63904 8.91177C1.22987 9.32094 1 9.87589 1 10.4545V19.1818C1 19.7605 1.22987 20.3154 1.63904 20.7246C2.04821 21.1338 2.60316 21.3636 3.18182 21.3636H14.8182C15.3968 21.3636 15.9518 21.1338 16.361 20.7246C16.7701 20.3154 17 19.7605 17 19.1818V10.4545C17 9.87589 16.7701 9.32094 16.361 8.91177C15.9518 8.5026 15.3968 8.27273 14.8182 8.27273ZM4.63636 6.81818C4.63636 5.66087 5.0961 4.55097 5.91444 3.73263C6.73278 2.91428 7.84269 2.45455 9 2.45455C10.1573 2.45455 11.2672 2.91428 12.0856 3.73263C12.9039 4.55097 13.3636 5.66087 13.3636 6.81818V8.27273H4.63636V6.81818ZM15.5455 19.1818C15.5455 19.3747 15.4688 19.5597 15.3324 19.6961C15.1961 19.8325 15.0111 19.9091 14.8182 19.9091H3.18182C2.98893 19.9091 2.80395 19.8325 2.66756 19.6961C2.53117 19.5597 2.45455 19.3747 2.45455 19.1818V10.4545C2.45455 10.2617 2.53117 10.0767 2.66756 9.94029C2.80395 9.8039 2.98893 9.72727 3.18182 9.72727H14.8182C15.0111 9.72727 15.1961 9.8039 15.3324 9.94029C15.4688 10.0767 15.5455 10.2617 15.5455 10.4545V19.1818Z" fill="white" stroke="#202426" stroke-width="0.5"/>
<path d="M11.6596 13.3404C11.6615 12.9309 11.5554 12.5283 11.3521 12.1729C11.1488 11.8175 10.8554 11.522 10.5016 11.3161C10.1477 11.1102 9.74583 11.0012 9.33641 11C8.927 10.9989 8.52451 11.1056 8.16949 11.3095C7.81446 11.5134 7.51943 11.8073 7.31412 12.1615C7.10881 12.5157 7.00047 12.9178 7 13.3272C6.99954 13.7366 7.10696 14.1389 7.31147 14.4936C7.51597 14.8483 7.81033 15.1428 8.16489 15.3475V16.8351C8.16489 17.144 8.28762 17.4403 8.50608 17.6588C8.72455 17.8773 9.02085 18 9.3298 18C9.63875 18 9.93505 17.8773 10.1535 17.6588C10.372 17.4403 10.4947 17.144 10.4947 16.8351V15.3475C10.8478 15.1444 11.1413 14.8521 11.3458 14.4998C11.5502 14.1475 11.6585 13.7477 11.6596 13.3404Z" fill="#00CBB8" stroke="#202426" stroke-width="0.5"/>
</svg>
