<svg width="17" height="17" viewBox="0 0 17 17" fill="none" xmlns="http://www.w3.org/2000/svg">
<path d="M12.1474 10.5871L12.9681 11.4078L16.2511 8.1248L12.9681 4.8418L12.1473 5.66257L14.0293 7.54445H5.80469V8.70516H14.0293L12.1474 10.5871Z" fill="#FF4D4D"/>
<path d="M13.0396 13.0495C11.7243 14.3649 9.97554 15.0893 8.11542 15.0893C6.25512 15.0893 4.50611 14.3649 3.19066 13.0495C1.87517 11.7341 1.16071 9.98523 1.16071 8.125C1.16071 6.26492 1.87517 4.51609 3.19069 3.20063C4.50618 1.88518 6.25516 1.16071 8.11542 1.16071C9.97543 1.16071 11.7242 1.88518 13.0396 3.2006C13.1308 3.29201 13.2195 3.3859 13.3056 3.48214H14.783C13.3149 1.37733 10.8761 0 8.11542 0C3.62799 0 0 3.63804 0 8.125C0 12.6124 3.62799 16.25 8.11542 16.25C10.8762 16.25 13.3151 14.8727 14.7831 12.7679H13.3057C13.2196 12.8642 13.1308 12.9581 13.0396 13.0495Z" fill="#FF4D4D"/>
</svg>
