<svg width="18" height="16" viewBox="0 0 18 16" fill="none" xmlns="http://www.w3.org/2000/svg">
<path d="M1 8.47703C1.55228 8.47703 2 8.05807 2 7.54125C2 7.02443 1.55228 6.60547 1 6.60547C0.447715 6.60547 0 7.02443 0 7.54125C0 8.05807 0.447715 8.47703 1 8.47703Z" fill="white"/>
<path d="M17.06 6.60547H4.94C4.42085 6.60547 4 6.99929 4 7.4851V7.5974C4 8.0832 4.42085 8.47703 4.94 8.47703H17.06C17.5791 8.47703 18 8.0832 18 7.5974V7.4851C18 6.99929 17.5791 6.60547 17.06 6.60547Z" fill="white"/>
<path d="M17.06 13.1553H0.94C0.420852 13.1553 0 13.5491 0 14.0349V14.1472C0 14.633 0.420852 15.0268 0.94 15.0268H17.06C17.5791 15.0268 18 14.633 18 14.1472V14.0349C18 13.5491 17.5791 13.1553 17.06 13.1553Z" fill="white"/>
<path d="M17.06 0.0546875H0.94C0.420852 0.0546875 0 0.448513 0 0.934321V1.04661C0 1.53242 0.420852 1.92625 0.94 1.92625H17.06C17.5791 1.92625 18 1.53242 18 1.04661V0.934321C18 0.448513 17.5791 0.0546875 17.06 0.0546875Z" fill="white"/>
</svg>
