<svg width="20" height="20" viewBox="0 0 20 20" fill="none" xmlns="http://www.w3.org/2000/svg">
<path d="M19.2592 12.8778C19.3959 12.6428 19.4686 12.376 19.4703 12.1042V11.0515C19.4703 10.6468 19.3129 10.281 19.0618 10.0015C19.3255 9.71365 19.4723 9.33773 19.4734 8.94733V7.8947C19.4722 7.50382 19.325 7.12749 19.0608 6.83944C19.323 6.55205 19.4689 6.17742 19.4703 5.7884V4.73577C19.4703 4.33103 19.3129 3.96525 19.0618 3.68577C19.3255 3.39789 19.4723 3.02196 19.4734 2.63157V1.57894C19.4734 0.708418 18.765 0 17.8945 0H11.5787C10.7082 0 9.99978 0.708418 9.99978 1.57894V2.63157C9.99978 3.0363 10.1571 3.40209 10.4082 3.68156C10.1443 3.96934 9.9973 4.34529 9.99609 4.73577V5.7884C9.99609 6.19524 10.155 6.56313 10.4087 6.84365C10.1469 7.13123 10.0012 7.50579 9.99978 7.8947C9.99978 8.03429 10.0552 8.16816 10.1539 8.26686C10.2526 8.36557 10.3865 8.42102 10.5261 8.42102C10.6657 8.42102 10.7995 8.36557 10.8983 8.26686C10.997 8.16816 11.0524 8.03429 11.0524 7.8947C11.0524 7.6047 11.2887 7.36839 11.5787 7.36839H17.8945C18.1845 7.36839 18.4208 7.6047 18.4208 7.8947V8.94733C18.4207 9.08646 18.3654 9.21988 18.2672 9.31841C18.169 9.41694 18.0357 9.47256 17.8966 9.47312L17.8908 9.47259H12.6277C12.5585 9.47283 12.49 9.4867 12.4262 9.5134C12.3624 9.5401 12.3044 9.57911 12.2557 9.6282C12.2069 9.67729 12.1683 9.73551 12.1421 9.79952C12.1158 9.86353 12.1024 9.93209 12.1027 10.0013C12.1029 10.0705 12.1168 10.1389 12.1435 10.2027C12.1702 10.2666 12.2092 10.3245 12.2583 10.3733C12.3074 10.422 12.3656 10.4606 12.4296 10.4869C12.4936 10.5131 12.5622 10.5265 12.6313 10.5263H17.8955C18.0341 10.5275 18.1666 10.5834 18.2643 10.6817C18.3619 10.7801 18.4168 10.9129 18.4171 11.0515V12.1042C18.4171 12.3942 18.1808 12.6305 17.8908 12.6305H13.154C13.0848 12.6307 13.0163 12.6446 12.9525 12.6713C12.8887 12.698 12.8307 12.737 12.782 12.7861C12.7332 12.8352 12.6946 12.8934 12.6684 12.9574C12.6421 13.0214 12.6287 13.09 12.629 13.1592C12.6292 13.2283 12.6431 13.2968 12.6698 13.3606C12.6965 13.4245 12.7355 13.4824 12.7846 13.5311C12.8337 13.5799 12.8919 13.6185 12.9559 13.6448C13.0199 13.671 13.0885 13.6844 13.1577 13.6842H18.4208C18.7108 13.6842 18.9471 13.9205 18.9471 14.2105V15.2631C18.9471 15.5531 18.7108 15.7894 18.4208 15.7894H17.9013L17.8913 15.7884H12.6282C12.559 15.7886 12.4905 15.8025 12.4267 15.8292C12.3629 15.8559 12.3049 15.8949 12.2562 15.944C12.2074 15.9931 12.1688 16.0513 12.1426 16.1153C12.1163 16.1793 12.1029 16.2479 12.1032 16.317C12.1034 16.3862 12.1173 16.4547 12.144 16.5185C12.1707 16.5823 12.2097 16.6403 12.2588 16.689C12.3079 16.7378 12.3661 16.7764 12.4301 16.8026C12.4941 16.8289 12.5627 16.8423 12.6319 16.842H17.8966C18.0351 16.8434 18.1674 16.8993 18.265 16.9977C18.3625 17.096 18.4174 17.2288 18.4176 17.3673V18.4199C18.4176 18.7099 18.1813 18.9462 17.8913 18.9462H11.5756C11.2856 18.9462 11.0492 18.7099 11.0492 18.4199C11.0492 18.2803 10.9938 18.1465 10.8951 18.0478C10.7964 17.9491 10.6625 17.8936 10.5229 17.8936C10.3833 17.8936 10.2495 17.9491 10.1508 18.0478C10.0521 18.1465 9.99662 18.2803 9.99662 18.4199C9.99662 19.2904 10.705 19.9989 11.5756 19.9989H17.8913C18.7618 19.9989 19.4703 19.2904 19.4703 18.4199V17.3673C19.4703 17.0857 19.3903 16.8247 19.2603 16.5952C19.4861 16.4538 19.6724 16.2575 19.8018 16.0245C19.9311 15.7915 19.9992 15.5295 19.9997 15.2631V14.2105C19.9992 13.9438 19.931 13.6816 19.8015 13.4486C19.672 13.2155 19.4854 13.0191 19.2592 12.8778ZM11.0492 4.73577C11.0494 4.59664 11.1046 4.46322 11.2028 4.36469C11.3011 4.26616 11.4343 4.21054 11.5735 4.20998L11.5792 4.21051H17.8961C18.0346 4.21175 18.1671 4.26761 18.2648 4.36595C18.3624 4.46429 18.4174 4.59718 18.4176 4.73577V5.7884C18.4176 6.07839 18.1813 6.31471 17.8913 6.31471H11.5756C11.2856 6.31471 11.0492 6.07839 11.0492 5.7884V4.73577ZM11.0524 1.57894C11.0524 1.28894 11.2887 1.05263 11.5787 1.05263H17.8945C18.1845 1.05263 18.4208 1.28894 18.4208 1.57894V2.63157C18.4207 2.7707 18.3654 2.90412 18.2672 3.00265C18.169 3.10117 18.0357 3.1568 17.8966 3.15735L17.8908 3.15683H11.574C11.4354 3.15558 11.3029 3.09972 11.2053 3.00138C11.1076 2.90304 11.0527 2.77016 11.0524 2.63157V1.57894Z" fill="white"/>
<path d="M6.84208 6.31372C3.06946 6.31372 0 9.38318 0 13.1558C0 16.9284 3.06946 19.9979 6.84208 19.9979C10.6147 19.9979 13.6842 16.9284 13.6842 13.1558C13.6842 9.38318 10.6147 6.31372 6.84208 6.31372ZM6.84208 18.9452C3.64998 18.9452 1.05263 16.3479 1.05263 13.1558C1.05263 9.96371 3.64998 7.36635 6.84208 7.36635C10.0342 7.36635 12.6315 9.96371 12.6315 13.1558C12.6315 16.3479 10.0342 18.9452 6.84208 18.9452Z" fill="white"/>
<path d="M6.78888 10.5319C6.80782 10.534 6.82414 10.543 6.84361 10.543C6.86256 10.543 6.87887 10.534 6.8973 10.5319C7.1661 10.5456 7.41944 10.6618 7.6051 10.8566C7.79076 11.0515 7.89459 11.3102 7.89519 11.5793C7.89519 11.7189 7.95064 11.8528 8.04934 11.9515C8.14804 12.0502 8.28191 12.1056 8.4215 12.1056C8.56109 12.1056 8.69496 12.0502 8.79366 11.9515C8.89236 11.8528 8.94781 11.7189 8.94781 11.5793C8.94781 10.6014 8.27466 9.78458 7.3694 9.54879L7.36887 8.94721C7.36887 8.80762 7.31342 8.67376 7.21472 8.57505C7.11602 8.47635 6.98215 8.4209 6.84256 8.4209C6.70297 8.4209 6.5691 8.47635 6.4704 8.57505C6.3717 8.67376 6.31625 8.80762 6.31625 8.94721L6.31677 9.54774C5.41099 9.783 4.7373 10.6004 4.7373 11.5783C4.7373 12.7393 5.68151 13.6835 6.84256 13.6835C7.42308 13.6835 7.89519 14.1556 7.89519 14.7361C7.89519 15.3167 7.42308 15.7888 6.84256 15.7888C6.26204 15.7888 5.78993 15.3167 5.78993 14.7361C5.78993 14.5965 5.73448 14.4627 5.63578 14.364C5.53708 14.2653 5.40321 14.2098 5.26362 14.2098C5.12403 14.2098 4.99016 14.2653 4.89146 14.364C4.79276 14.4627 4.7373 14.5965 4.7373 14.7361C4.7373 15.714 5.41099 16.5314 6.31625 16.7667L6.31677 17.3845C6.31677 17.5241 6.37222 17.658 6.47093 17.7567C6.56963 17.8554 6.7035 17.9109 6.84308 17.9109C6.98267 17.9109 7.11654 17.8554 7.21525 17.7567C7.31395 17.658 7.3694 17.5241 7.3694 17.3845L7.36887 16.7672C8.27413 16.5319 8.94781 15.7146 8.94781 14.7367C8.94781 13.5756 8.00361 12.6314 6.84256 12.6314C6.26204 12.6314 5.78993 12.1593 5.78993 11.5788C5.79081 11.3096 5.89488 11.051 6.08073 10.8562C6.26657 10.6615 6.52002 10.5454 6.78888 10.5319Z" fill="white"/>
</svg>
