<svg width="21" height="24" viewBox="0 0 21 24" fill="none" xmlns="http://www.w3.org/2000/svg">
<path d="M7.76728 21.737C8.32529 22.4263 9.14474 22.8724 10.0443 22.9766C10.9438 23.0808 11.8492 22.8344 12.5601 22.292C12.7788 22.1316 12.9755 21.9451 13.1457 21.737M1.00092 13.9658V13.7249C1.03683 13.0123 1.2689 12.3217 1.67322 11.7246C2.34621 11.0072 2.8069 10.1281 3.00697 9.17958C3.00697 8.44645 3.00697 7.70285 3.07204 6.96973C3.40818 3.44026 6.95402 1 10.4565 1H10.5432C14.0457 1 17.5915 3.44026 17.9385 6.96973C18.0036 7.70285 17.9385 8.44645 17.9927 9.17958C18.1955 10.1303 18.6557 11.0121 19.3265 11.735C19.7338 12.3269 19.9663 13.0149 19.9988 13.7249V13.9554C20.023 14.9128 19.6879 15.8465 19.0554 16.5841C18.2195 17.4466 17.0853 17.9832 15.8674 18.0923C12.2961 18.4693 8.6928 18.4693 5.12146 18.0923C3.90493 17.9785 2.77232 17.4427 1.93347 16.5841C1.31071 15.8459 0.980151 14.9178 1.00092 13.9658Z" stroke="white" stroke-width="1.5" stroke-linecap="round" stroke-linejoin="round"/>
</svg>
