<svg width="31" height="34" viewBox="0 0 31 34" fill="none" xmlns="http://www.w3.org/2000/svg">
<g filter="url(#filter0_d_505_13322)">
<path d="M16.9377 25.502C17.5521 25.5196 18.1552 25.6652 18.7059 25.9287H18.7391C19.1992 26.2934 19.2773 26.9442 18.9159 27.4008C18.2578 28.3157 17.2048 28.8925 16.0536 28.9688C14.8709 29.1058 13.6798 28.7878 12.7382 28.0835C12.2539 27.7609 11.9392 27.2507 11.8762 26.6861C11.8762 26.0887 12.4509 25.8114 12.9813 25.694C13.6026 25.5669 14.236 25.5026 14.8711 25.502H16.9377ZM15.5452 5C19.369 5 23.3143 7.68809 23.7232 11.5816C23.7896 12.3816 23.7232 13.2136 23.7896 14.0243C24.0065 15.0698 24.506 16.0413 25.2373 16.8404C25.6919 17.4971 25.9553 18.2598 25.9999 19.0485V19.2938C26.0066 20.3581 25.6141 21.3887 24.8947 22.1953C23.9829 23.1423 22.7458 23.7374 21.4135 23.87C17.4771 24.3606 13.4918 24.3606 9.55539 23.87C8.20738 23.7475 6.95287 23.1515 6.03001 22.1953C5.33319 21.381 4.96779 20.3494 5.00223 19.2938V19.0485C5.04536 18.2627 5.30062 17.5015 5.74267 16.8404C6.47723 16.0406 6.98374 15.0701 7.2125 14.0243C7.27881 13.2136 7.2125 12.3923 7.27881 11.5816C7.69876 7.68809 11.5667 5 15.4347 5H15.5452Z" fill="#00CBB8"/>
</g>
<defs>
<filter id="filter0_d_505_13322" x="0" y="0" width="31" height="34" filterUnits="userSpaceOnUse" color-interpolation-filters="sRGB">
<feFlood flood-opacity="0" result="BackgroundImageFix"/>
<feColorMatrix in="SourceAlpha" type="matrix" values="0 0 0 0 0 0 0 0 0 0 0 0 0 0 0 0 0 0 127 0" result="hardAlpha"/>
<feOffset/>
<feGaussianBlur stdDeviation="2.5"/>
<feComposite in2="hardAlpha" operator="out"/>
<feColorMatrix type="matrix" values="0 0 0 0 0 0 0 0 0 0.796078 0 0 0 0 0.721569 0 0 0 1 0"/>
<feBlend mode="normal" in2="BackgroundImageFix" result="effect1_dropShadow_505_13322"/>
<feBlend mode="normal" in="SourceGraphic" in2="effect1_dropShadow_505_13322" result="shape"/>
</filter>
</defs>
</svg>
