<svg width="137" height="41" viewBox="0 0 137 41" fill="none" xmlns="http://www.w3.org/2000/svg">
<path d="M26.566 12.116C26.566 15.596 25.4253 18.3993 23.144 20.526C20.8627 22.6527 17.4407 23.716 12.878 23.716H4.7V41H0.64V0.457996H12.878C17.402 0.457996 20.8047 1.52133 23.086 3.648C25.406 5.77466 26.566 8.59733 26.566 12.116ZM12.878 20.236C19.2193 20.236 22.39 17.5293 22.39 12.116C22.39 9.40933 21.636 7.36 20.128 5.968C18.62 4.576 16.2033 3.88 12.878 3.88H4.7V20.236H12.878ZM56.8683 31.372H38.4243L34.8863 41H30.5943L45.3843 0.979997H49.9663L64.6983 41H60.4063L56.8683 31.372ZM55.6503 28.008L47.6463 6.084L39.6423 28.008H55.6503ZM92.7902 41L82.7562 24.064H75.2742V41H71.2142V0.457996H83.3942C87.9182 0.457996 91.3402 1.54066 93.6602 3.706C96.0189 5.87133 97.1982 8.71333 97.1982 12.232C97.1982 15.1707 96.3476 17.684 94.6462 19.772C92.9836 21.8213 90.5089 23.1553 87.2222 23.774L97.6622 41H92.7902ZM75.2742 20.758H83.4522C86.6229 20.758 89.0009 19.9847 90.5862 18.438C92.2102 16.8913 93.0222 14.8227 93.0222 12.232C93.0222 9.564 92.2489 7.51467 90.7022 6.084C89.1556 4.61466 86.7196 3.88 83.3942 3.88H75.2742V20.758ZM128.745 31.372H110.301L106.763 41H102.471L117.261 0.979997H121.843L136.575 41H132.283L128.745 31.372ZM127.527 28.008L119.523 6.084L111.519 28.008H127.527Z" fill="white"/>
</svg>
