<svg width="180" height="176" viewBox="0 0 180 176" fill="none" xmlns="http://www.w3.org/2000/svg">
<g clip-path="url(#clip0_341_3002)">
<path d="M43.2602 120.833C50.8797 120.833 57.0566 114.729 57.0566 107.199C57.0566 99.6695 50.8797 93.5653 43.2602 93.5653C35.6407 93.5653 29.4639 99.6695 29.4639 107.199C29.4639 114.729 35.6407 120.833 43.2602 120.833Z" fill="#00433D"/>
<path d="M31.8408 123.886L34.7168 116.623L49.5758 114.413L51.1723 130.491L36.1535 130.806L31.8408 123.886Z" fill="#00433D"/>
<path d="M57.1901 109.715C57.0111 110.424 56.6491 112.112 56.0839 112.12C55.6221 112.127 55.1801 104.804 55.6414 103.593C56.1713 102.201 54.7788 100.441 53.7298 99.5376C51.8438 97.9129 47.6573 101.401 43.4002 99.8211C43.2874 99.7793 43.3099 99.784 41.9656 99.254C37.8291 97.623 37.6116 97.5759 37.3746 97.5527C35.3694 97.3566 32.9222 98.9782 31.9229 100.955C30.8841 103.011 31.752 104.773 30.7752 109.746C30.6613 110.325 30.4825 111.151 30.2013 111.163C29.6871 111.186 29.185 108.472 29.0536 107.761C28.5027 104.783 27.9715 101.911 29.0536 98.6869C29.1716 98.3352 29.899 97.0299 31.349 94.4335C33.438 90.6933 34.4886 88.8161 34.7922 88.4788C36.9697 86.0589 40.9333 83.8513 44.261 84.7926C45.943 85.2683 45.6414 86.0331 47.7042 86.7775C51.3804 88.1039 54.5753 86.4817 55.1645 87.6281C55.4767 88.2354 54.6033 88.7361 54.5906 89.8966C54.5689 91.8879 57.1173 92.4633 58.6077 94.4335C59.4089 95.4927 60.7802 95.5041 57.1901 109.715Z" fill="#ACC7C5"/>
<path d="M74.2821 135.886C73.7261 136.503 73.1493 137.108 72.5518 137.699C64.5247 145.631 53.8517 150 42.4998 150C32.688 150 23.3844 146.736 15.8574 140.728C15.8526 140.725 15.8494 140.722 15.8446 140.717C14.846 139.922 13.8794 139.075 12.9463 138.182C12.9638 138.043 12.983 137.905 13.0038 137.769C13.1348 136.854 13.2802 135.981 13.4432 135.177C14.7773 128.59 32.3317 121.674 32.7887 121.494C32.7951 121.492 32.7983 121.491 32.7983 121.491C32.7983 121.491 35.0575 129.72 44.7382 129.614C51.3321 129.543 50.0539 121.491 50.0539 121.491C50.0539 121.491 50.1338 121.506 50.284 121.538C52.1885 121.937 65.4114 124.808 70.6281 128.725C72.2178 129.919 73.3586 132.461 74.1782 135.493C74.2134 135.622 74.2469 135.755 74.2821 135.886Z" fill="#009E90"/>
<path d="M72.552 78.3016C64.5249 70.3691 53.852 66 42.5 66C31.148 66 20.4751 70.3691 12.448 78.3016C4.42099 86.2343 0 96.7816 0 108C0 118.24 3.68281 127.92 10.4317 135.564C11.0756 136.295 11.7482 137.007 12.448 137.699C12.6126 137.861 12.7788 138.024 12.9465 138.182C13.8796 139.075 14.8463 139.922 15.8449 140.717C15.8496 140.722 15.8528 140.725 15.8576 140.728C23.3846 146.736 32.6883 150 42.5 150C53.852 150 64.5249 145.631 72.552 137.699C73.1495 137.108 73.7263 136.503 74.2824 135.886C81.2118 128.193 85 118.385 85 108C85 96.7816 80.5791 86.2343 72.552 78.3016ZM74.1785 135.493C72.9211 136.906 71.5694 138.235 70.1314 139.469C67.4041 141.813 64.3683 143.815 61.0946 145.41C59.9458 145.971 58.7682 146.481 57.5635 146.937C52.8837 148.712 47.8045 149.684 42.5 149.684C37.3808 149.684 32.4726 148.778 27.9302 147.12C26.0656 146.441 24.2634 145.634 22.533 144.711C22.2789 144.575 22.0265 144.437 21.7757 144.297C20.4559 143.558 19.1793 142.751 17.9539 141.88C16.198 140.635 14.5427 139.26 13.004 137.769C12.1413 136.934 11.3168 136.064 10.5292 135.16C4.16853 127.859 0.319549 118.366 0.319549 108C0.319549 85.0154 19.2416 66.3158 42.5 66.3158C65.7584 66.3158 84.6805 85.0154 84.6805 108C84.6805 118.525 80.7133 128.151 74.1785 135.493Z" fill="white"/>
</g>
<path d="M124.677 40.8247V141.33C124.677 143.384 123.011 145.051 120.957 145.051H72.8495C70.7957 145.051 69.1226 143.384 69.1226 141.33V40.8247C69.1226 38.7709 70.7957 37.1044 72.8495 37.1044H120.957C123.011 37.1044 124.677 38.7709 124.677 40.8247Z" fill="#09776E"/>
<g filter="url(#filter0_d_341_3002)">
<path d="M50.1998 28.0976C47.9529 29.1606 46.7079 30.4056 45.6449 32.653C45.2029 33.588 43.8493 33.588 43.4073 32.653C42.3437 30.4056 41.0993 29.1606 38.8523 28.0976C37.9171 27.6556 37.9171 26.3025 38.8523 25.8605C41.0993 24.7974 42.344 23.5525 43.4073 21.305C43.8493 20.37 45.2029 20.37 45.6449 21.305C46.7079 23.5525 47.9529 24.7974 50.1998 25.8605C51.1351 26.3025 51.1351 27.6556 50.1998 28.0976ZM158.597 150.14C156.35 151.203 155.105 152.448 154.042 154.696C153.599 155.63 152.247 155.63 151.805 154.696C150.742 152.448 149.496 151.203 147.249 150.14C146.314 149.698 146.314 148.345 147.249 147.902C149.496 146.839 150.742 145.594 151.805 143.347C152.247 142.412 153.599 142.412 154.042 143.347C155.105 145.594 156.35 146.839 158.597 147.902C159.532 148.345 159.532 149.697 158.597 150.14ZM123.324 37.9517C123.505 38.1015 123.673 38.2697 123.829 38.4575C123.68 38.2763 123.505 38.1015 123.324 37.9517Z" fill="#00CBB8"/>
</g>
<path d="M125.291 26.8093H68.5182C65.4037 26.8093 62.8813 29.3251 62.8813 32.4398V145.661C62.8813 148.769 65.4037 151.291 68.5118 151.291H125.29C128.4 151.291 130.92 148.769 130.92 145.661V32.44C130.921 29.3312 128.4 26.8093 125.291 26.8093ZM124.678 141.329C124.678 143.382 123.012 145.049 120.959 145.049H90.6843C88.1319 145.049 85.8279 143.419 85.0849 140.98C84.2304 138.157 82.9127 135.536 81.2153 133.208H72.8508C70.7906 133.208 69.1238 131.541 69.1238 129.487V40.8232C69.1238 40.6173 69.1424 40.417 69.1737 40.2234C69.1737 40.2109 69.1804 40.199 69.1804 40.1865C69.1923 40.0988 69.2115 40.0178 69.2303 39.9426C69.2558 39.8491 69.2803 39.7554 69.3119 39.6682C69.3368 39.5931 69.3618 39.5184 69.3929 39.443C69.4303 39.3495 69.4675 39.2562 69.518 39.1686C69.543 39.1064 69.574 39.0499 69.6051 38.9938C69.7108 38.8065 69.8359 38.6259 69.973 38.4572C70.1292 38.2761 70.2984 38.1013 70.4793 37.9515C70.5664 37.8769 70.666 37.8017 70.7662 37.7393C70.8533 37.6771 70.9404 37.6205 71.0344 37.577C71.0724 37.552 71.1035 37.5334 71.1407 37.5209C71.2153 37.4768 71.2905 37.4399 71.3715 37.4147C71.3845 37.4022 71.4026 37.3961 71.4215 37.3897C71.5086 37.3522 71.5968 37.3151 71.6839 37.2901C71.9331 37.2085 72.195 37.1464 72.4699 37.1214C72.595 37.1089 72.7198 37.1023 72.8513 37.1023H120.96C121.09 37.1023 121.216 37.1089 121.34 37.1214C121.446 37.1339 121.546 37.1464 121.646 37.1714C121.721 37.1775 121.79 37.1963 121.859 37.2149C121.946 37.2335 122.04 37.2585 122.127 37.2959C122.208 37.3151 122.289 37.3461 122.365 37.3836C122.396 37.3897 122.427 37.4022 122.458 37.421C122.539 37.4521 122.62 37.4896 122.695 37.5337C122.714 37.5398 122.739 37.5523 122.757 37.5711C122.857 37.6147 122.951 37.6774 123.039 37.7398C123.138 37.802 123.232 37.8705 123.326 37.952C123.507 38.1018 123.675 38.27 123.831 38.4578C123.968 38.6264 124.093 38.8068 124.2 38.9943C124.231 39.0504 124.261 39.107 124.287 39.1691C124.337 39.2568 124.375 39.3503 124.412 39.4435C124.444 39.5187 124.468 39.5933 124.494 39.6688C124.524 39.7559 124.55 39.8499 124.574 39.9432C124.593 40.0183 124.612 40.0993 124.624 40.187C124.624 40.1995 124.63 40.2114 124.63 40.2239C124.662 40.4176 124.68 40.6176 124.68 40.8237V141.329H124.678Z" fill="#DDFFFC"/>
<path d="M124.677 40.8232V129.487C124.677 131.541 123.011 133.207 120.958 133.207H72.8495C70.7894 133.207 69.1226 131.541 69.1226 129.487V40.8232C69.1226 40.6173 69.1411 40.417 69.1725 40.2234C69.1725 40.2109 69.1791 40.199 69.1791 40.1865C69.1911 40.1049 69.2102 40.0178 69.2291 39.9426C69.2546 39.8491 69.279 39.7554 69.3106 39.6682C69.3287 39.5931 69.3606 39.5184 69.3916 39.443C69.4291 39.3495 69.4663 39.2562 69.5167 39.1686C69.5417 39.1064 69.5728 39.0499 69.6039 38.9938C69.7096 38.8065 69.8347 38.6259 69.9718 38.4572C70.1279 38.2761 70.2972 38.1013 70.478 37.9515C70.5715 37.8769 70.6648 37.8078 70.7649 37.7393C70.852 37.6827 70.9455 37.6266 71.0332 37.577C71.0712 37.552 71.1023 37.5334 71.1394 37.5209C71.2141 37.4768 71.2893 37.4457 71.3703 37.4147C71.3833 37.4022 71.4014 37.3961 71.4202 37.3897C71.5073 37.3522 71.5955 37.3212 71.6827 37.2901C71.9318 37.2085 72.1937 37.1464 72.4686 37.1214C72.5937 37.1089 72.7186 37.1023 72.8501 37.1023H120.959C121.083 37.1023 121.215 37.1089 121.339 37.1214C121.445 37.1339 121.545 37.1464 121.645 37.1714C121.72 37.1775 121.789 37.1963 121.857 37.2149C121.945 37.2335 122.039 37.2585 122.126 37.2959C122.207 37.3151 122.288 37.3461 122.363 37.3836C122.394 37.3897 122.426 37.4022 122.457 37.421C122.538 37.4521 122.619 37.4896 122.694 37.5337C122.713 37.5398 122.738 37.5523 122.756 37.5711C122.856 37.6211 122.95 37.6774 123.038 37.7398C123.137 37.8083 123.231 37.8774 123.324 37.952C123.506 38.1018 123.68 38.2769 123.83 38.4578C123.967 38.6265 124.092 38.8068 124.199 38.9943C124.23 39.0504 124.26 39.107 124.286 39.1691C124.336 39.2568 124.373 39.3503 124.41 39.4435C124.442 39.5187 124.473 39.5933 124.492 39.6688C124.523 39.7559 124.548 39.8499 124.573 39.9432C124.591 40.0183 124.611 40.1055 124.623 40.187C124.623 40.1995 124.629 40.2114 124.629 40.2239C124.659 40.417 124.677 40.6173 124.677 40.8232Z" fill="#14181B"/>
<path d="M97.6576 30.2153H84.7578V33.9606H97.6576V30.2153Z" fill="#09776E"/>
<path d="M109.933 30.2153H101.611V33.9606H109.933V30.2153Z" fill="#09776E"/>
<path d="M119.922 54.799H116.177V48.9366H110.315V45.1908H116.897C118.565 45.1908 119.922 46.5484 119.922 48.2171V54.799ZM116.897 125.513H110.315V121.767H116.177V115.905H119.922V122.486C119.922 124.155 118.565 125.513 116.897 125.513ZM77.2316 54.799H73.4863V48.2171C73.4863 46.5487 74.8434 45.1908 76.5126 45.1908H83.0935V48.9366H77.2316V54.799ZM83.0935 125.513H76.5126C74.8437 125.513 73.4863 124.156 73.4863 122.486V115.905H77.2316V121.767H83.0935V125.513Z" fill="#09776E"/>
<path d="M105.925 94.5124H88.2417V76.8218H105.925V94.5124Z" fill="white"/>
<path d="M105.927 76.8218H88.2437V94.5124H105.927V76.8218Z" fill="#14181B"/>
<path d="M113.262 83.7419H109.047V75.8602C109.047 74.6681 108.079 73.7004 106.893 73.7004H98.9574V69.3328H95.2124V73.7004H87.2742C86.0881 73.7004 85.1213 74.6681 85.1213 75.8602V83.638H80.8027V87.3833H85.1213V95.4735C85.1213 96.6656 86.0884 97.6332 87.2742 97.6332H95.1085V101.792H98.8538V97.6332H106.893C108.079 97.6332 109.047 96.6656 109.047 95.4735V87.4872H113.262V83.7419ZM105.926 94.5124H88.2421V76.8218H105.926V94.5124Z" fill="white"/>
<path d="M124.627 40.2255H69.1719C69.4598 38.4527 70.9943 37.1044 72.8492 37.1044H120.958C122.804 37.1044 124.341 38.4527 124.627 40.2255ZM69.1719 130.084H124.627C124.341 131.857 122.805 133.205 120.951 133.205H72.8428C70.9943 133.205 69.4598 131.857 69.1719 130.084Z" fill="#14181B"/>
<path d="M96.6128 145.055C98.7165 145.055 100.422 143.349 100.422 141.246C100.422 139.142 98.7165 137.437 96.6128 137.437C94.5091 137.437 92.8037 139.142 92.8037 141.246C92.8037 143.349 94.5091 145.055 96.6128 145.055Z" fill="white"/>
<defs>
<filter id="filter0_d_341_3002" x="18.1509" y="0.60376" width="161.147" height="174.793" filterUnits="userSpaceOnUse" color-interpolation-filters="sRGB">
<feFlood flood-opacity="0" result="BackgroundImageFix"/>
<feColorMatrix in="SourceAlpha" type="matrix" values="0 0 0 0 0 0 0 0 0 0 0 0 0 0 0 0 0 0 127 0" result="hardAlpha"/>
<feOffset/>
<feGaussianBlur stdDeviation="10"/>
<feComposite in2="hardAlpha" operator="out"/>
<feColorMatrix type="matrix" values="0 0 0 0 0 0 0 0 0 0.796078 0 0 0 0 0.721569 0 0 0 1 0"/>
<feBlend mode="normal" in2="BackgroundImageFix" result="effect1_dropShadow_341_3002"/>
<feBlend mode="normal" in="SourceGraphic" in2="effect1_dropShadow_341_3002" result="shape"/>
</filter>
<clipPath id="clip0_341_3002">
<rect width="85" height="84" fill="white" transform="translate(0 66)"/>
</clipPath>
</defs>
</svg>
