<svg width="17" height="20" viewBox="0 0 17 20" fill="none" xmlns="http://www.w3.org/2000/svg">
<path d="M13.2174 19.0435H0.695652C0.278261 19.0435 0 18.7652 0 18.3478V16.9565C0 13.1304 3.13043 10 6.95652 10C10.7826 10 13.913 13.1304 13.913 16.9565V18.3478C13.913 18.7652 13.6348 19.0435 13.2174 19.0435ZM1.3913 16.9565C1.3913 17.3407 1.70276 17.6522 2.08696 17.6522H11.8261C12.2103 17.6522 12.5217 17.3407 12.5217 16.9565C12.5217 13.8957 10.0174 11.3913 6.95652 11.3913C3.89565 11.3913 1.3913 13.8957 1.3913 16.9565Z" fill="white"/>
<path d="M12.9714 3.76C13.1429 3.92 13.3143 4 13.5714 4C13.8286 4 14 3.92 14.1714 3.76L16.7429 1.36C17.0857 1.04 17.0857 0.56 16.7429 0.24C16.4 -0.08 15.8857 -0.08 15.5429 0.24L13.5714 2.08L12.4571 1.04C12.1143 0.72 11.6 0.72 11.2571 1.04C10.9143 1.36 10.9143 1.84 11.2571 2.16L12.9714 3.76Z" fill="#00CBB8"/>
<path d="M7 9C8.65685 9 10 7.65685 10 6C10 4.34315 8.65685 3 7 3C5.34315 3 4 4.34315 4 6C4 7.65685 5.34315 9 7 9Z" fill="#202426" stroke="white"/>
</svg>
