<svg width="33" height="33" viewBox="0 0 33 33" fill="none" xmlns="http://www.w3.org/2000/svg">
<path d="M21.119 2.07447C23.1738 0.986644 25.6957 2.45285 25.7891 4.81769C25.8825 6.37848 27.0033 7.6082 28.4978 7.84468C30.7861 8.22306 31.9536 10.8717 30.6927 12.8581C29.8521 14.1352 30.0389 15.8378 31.113 16.9257C32.7476 18.5811 32.1872 21.4189 29.9922 22.2702C28.5912 22.8378 27.7505 24.304 27.9841 25.8175C28.3577 28.135 26.2094 30.0742 23.9678 29.5066C22.4733 29.1283 20.9322 29.7904 20.2784 31.2093C19.2042 33.3377 16.3555 33.6214 14.9077 31.7769C13.927 30.5944 12.2925 30.2161 10.9382 30.9255C8.8833 32.0134 6.36144 30.5472 6.26804 28.1823C6.17464 26.6215 5.05381 25.3918 3.55938 25.1553C1.27103 24.7769 0.103499 22.1283 1.36443 20.1419C2.20505 18.8648 2.01824 17.1622 0.94412 16.0743C-0.690419 14.4189 -0.130007 11.5811 2.06494 10.7298C3.46598 10.1622 4.3066 8.69603 4.07309 7.18253C3.69948 4.86498 5.84773 2.92581 8.08939 3.49337C9.58382 3.87175 11.125 3.20959 11.7788 1.79069C12.8529 -0.337666 15.7017 -0.621448 17.1494 1.22313C18.0834 2.40555 19.7647 2.73663 21.119 2.07447Z" fill="#00C2A9"/>
<path d="M27.544 18.7336C28.8251 12.6384 24.8002 6.63306 18.5542 5.32023C12.3082 4.0074 6.20625 7.88424 4.92514 13.9794C3.64402 20.0745 7.66887 26.0799 13.9149 27.3927C20.1609 28.7055 26.2629 24.8287 27.544 18.7336Z" fill="#00A58C"/>
<path d="M5.24971 15.0136C6.53534 8.72888 12.5825 4.71635 18.7726 6.02163C22.9628 6.94016 26.153 10.0342 27.3434 13.9017C26.4387 9.55072 23.058 5.92494 18.5345 4.95807C12.3445 3.65279 6.24964 7.71366 4.96402 13.95C4.53548 15.9804 4.67832 17.9625 5.24971 19.7996C4.9164 18.2526 4.9164 16.6572 5.24971 15.0136Z" fill="#037C68"/>
</svg>
