<svg width="10" height="10" viewBox="0 0 10 10" fill="none" xmlns="http://www.w3.org/2000/svg">
<path d="M5.66772 8.39486C5.50462 8.29885 5.30227 8.29885 5.13916 8.39486L3.17308 9.55208C2.78733 9.77912 2.31375 9.44617 2.39685 9.00635L2.85074 6.60394C2.88319 6.43216 2.82733 6.25555 2.70199 6.13367L0.971193 4.45081C0.657864 4.14616 0.836256 3.61434 1.26992 3.56026L3.564 3.27417C3.74614 3.25146 3.90289 3.13458 3.97664 2.96649L4.92633 0.801761C5.10866 0.38617 5.69823 0.386171 5.88056 0.801761L6.83025 2.96649C6.90399 3.13458 7.06075 3.25146 7.24289 3.27417L9.53697 3.56026C9.97063 3.61434 10.149 4.14616 9.83569 4.45081L8.1049 6.13367C7.97956 6.25555 7.92369 6.43216 7.95615 6.60394L8.41004 9.00635C8.49314 9.44617 8.01955 9.77912 7.63381 9.55208L5.66772 8.39486Z" fill="#FDFDFD"/>
</svg>
