<svg width="25" height="22" viewBox="0 0 25 22" fill="none" xmlns="http://www.w3.org/2000/svg">
<path d="M12.2245 21.0001H1.20408C1.14996 21.0001 1.09805 20.9786 1.05977 20.9403C1.0215 20.9021 1 20.8502 1 20.796V2.42869C1 2.37457 1.0215 2.32266 1.05977 2.28438C1.09805 2.24611 1.14996 2.22461 1.20408 2.22461H12.2245C12.2786 2.22461 12.3305 2.24611 12.3688 2.28438C12.4071 2.32266 12.4286 2.37457 12.4286 2.42869V20.796C12.4286 20.8502 12.4071 20.9021 12.3688 20.9403C12.3305 20.9786 12.2786 21.0001 12.2245 21.0001ZM1.40816 20.592H12.0204V2.63277H1.40816V20.592Z" fill="white" stroke="white" stroke-width="0.2"/>
<path d="M19.5715 21H12.2246C12.1705 21 12.1186 20.9785 12.0803 20.9402C12.042 20.902 12.0205 20.85 12.0205 20.7959V7.32653C12.0205 7.27241 12.042 7.2205 12.0803 7.18222C12.1186 7.14395 12.1705 7.12245 12.2246 7.12245H19.5715C19.6257 7.12245 19.6776 7.14395 19.7159 7.18222C19.7541 7.2205 19.7756 7.27241 19.7756 7.32653V20.7959C19.7756 20.85 19.7541 20.902 19.7159 20.9402C19.6776 20.9785 19.6257 21 19.5715 21ZM12.4287 20.5918H19.3675V7.53061H12.4287V20.5918ZM11.0001 2.63265H2.42869C2.37457 2.63265 2.32266 2.61115 2.28438 2.57288C2.24611 2.53461 2.22461 2.4827 2.22461 2.42857V1.20408C2.22461 1.14996 2.24611 1.09805 2.28438 1.05977C2.32266 1.0215 2.37457 1 2.42869 1H11.0001C11.0542 1 11.1062 1.0215 11.1444 1.05977C11.1827 1.09805 11.2042 1.14996 11.2042 1.20408V2.42857C11.2042 2.4827 11.1827 2.53461 11.1444 2.57288C11.1062 2.61115 11.0542 2.63265 11.0001 2.63265ZM2.63277 2.22449H10.796V1.40816H2.63277V2.22449Z" fill="white" stroke="white" stroke-width="0.2"/>
<path d="M18.3463 7.53085H13.4483C13.3942 7.53085 13.3423 7.50935 13.304 7.47108C13.2658 7.4328 13.2443 7.3809 13.2443 7.32677V6.10228C13.2443 6.04815 13.2658 5.99624 13.304 5.95797C13.3423 5.9197 13.3942 5.8982 13.4483 5.8982H18.3463C18.4004 5.8982 18.4523 5.9197 18.4906 5.95797C18.5289 5.99624 18.5504 6.04815 18.5504 6.10228V7.32677C18.5504 7.3809 18.5289 7.4328 18.4906 7.47108C18.4523 7.50935 18.4004 7.53085 18.3463 7.53085ZM13.6524 7.12269H18.1422V6.30636H13.6524V7.12269ZM3.66099 5.08187H2.4365C2.38238 5.08187 2.33047 5.06037 2.2922 5.0221C2.25392 4.98383 2.23242 4.93192 2.23242 4.87779C2.23242 4.82366 2.25392 4.77176 2.2922 4.73348C2.33047 4.69521 2.38238 4.67371 2.4365 4.67371H3.45691V3.6533C3.45691 3.59917 3.47841 3.54727 3.51669 3.50899C3.55496 3.47072 3.60687 3.44922 3.66099 3.44922C3.71512 3.44922 3.76703 3.47072 3.8053 3.50899C3.84357 3.54727 3.86507 3.59917 3.86507 3.6533V4.87779C3.86507 4.93192 3.84357 4.98383 3.8053 5.0221C3.76703 5.06037 3.71512 5.08187 3.66099 5.08187ZM6.10997 5.08187H4.88548C4.83136 5.08187 4.77945 5.06037 4.74118 5.0221C4.7029 4.98383 4.6814 4.93192 4.6814 4.87779C4.6814 4.82366 4.7029 4.77176 4.74118 4.73348C4.77945 4.69521 4.83136 4.67371 4.88548 4.67371H5.90589V3.6533C5.90589 3.59917 5.92739 3.54727 5.96567 3.50899C6.00394 3.47072 6.05585 3.44922 6.10997 3.44922C6.1641 3.44922 6.21601 3.47072 6.25428 3.50899C6.29255 3.54727 6.31405 3.59917 6.31405 3.6533V4.87779C6.31405 4.93192 6.29255 4.98383 6.25428 5.0221C6.21601 5.06037 6.1641 5.08187 6.10997 5.08187ZM8.55895 5.08187H7.33446C7.28034 5.08187 7.22843 5.06037 7.19016 5.0221C7.15188 4.98383 7.13038 4.93192 7.13038 4.87779C7.13038 4.82366 7.15188 4.77176 7.19016 4.73348C7.22843 4.69521 7.28034 4.67371 7.33446 4.67371H8.35487V3.6533C8.35487 3.59917 8.37637 3.54727 8.41464 3.50899C8.45292 3.47072 8.50483 3.44922 8.55895 3.44922C8.61308 3.44922 8.66499 3.47072 8.70326 3.50899C8.74153 3.54727 8.76303 3.59917 8.76303 3.6533V4.87779C8.76303 4.93192 8.74153 4.98383 8.70326 5.0221C8.66499 5.06037 8.61308 5.08187 8.55895 5.08187ZM14.2732 9.57167H13.4569C13.4028 9.57167 13.3509 9.55017 13.3126 9.51189C13.2743 9.47362 13.2528 9.42171 13.2528 9.36759C13.2528 9.31346 13.2743 9.26155 13.3126 9.22328C13.3509 9.18501 13.4028 9.1635 13.4569 9.1635H14.0692V8.55126C14.0692 8.49713 14.0907 8.44522 14.1289 8.40695C14.1672 8.36868 14.2191 8.34718 14.2732 8.34718C14.3274 8.34718 14.3793 8.36868 14.4175 8.40695C14.4558 8.44522 14.4773 8.49713 14.4773 8.55126V9.36759C14.4773 9.42171 14.4558 9.47362 14.4175 9.51189C14.3793 9.55017 14.3274 9.57167 14.2732 9.57167ZM16.3141 9.57167H15.4977C15.4436 9.57167 15.3917 9.55017 15.3534 9.51189C15.3151 9.47362 15.2936 9.42171 15.2936 9.36759C15.2936 9.31346 15.3151 9.26155 15.3534 9.22328C15.3917 9.18501 15.4436 9.1635 15.4977 9.1635H16.11V8.55126C16.11 8.49713 16.1315 8.44522 16.1697 8.40695C16.208 8.36868 16.2599 8.34718 16.3141 8.34718C16.3682 8.34718 16.4201 8.36868 16.4584 8.40695C16.4966 8.44522 16.5181 8.49713 16.5181 8.55126V9.36759C16.5181 9.42171 16.4966 9.47362 16.4584 9.51189C16.4201 9.55017 16.3682 9.57167 16.3141 9.57167ZM18.3549 9.57167H17.5385C17.4844 9.57167 17.4325 9.55017 17.3942 9.51189C17.356 9.47362 17.3345 9.42171 17.3345 9.36759C17.3345 9.31346 17.356 9.26155 17.3942 9.22328C17.4325 9.18501 17.4844 9.1635 17.5385 9.1635H18.1508V8.55126C18.1508 8.49713 18.1723 8.44522 18.2106 8.40695C18.2488 8.36868 18.3007 8.34718 18.3549 8.34718C18.409 8.34718 18.4609 8.36868 18.4992 8.40695C18.5375 8.44522 18.559 8.49713 18.559 8.55126V9.36759C18.559 9.42171 18.5375 9.47362 18.4992 9.51189C18.4609 9.55017 18.409 9.57167 18.3549 9.57167ZM14.2732 11.6125H13.4569C13.4028 11.6125 13.3509 11.591 13.3126 11.5527C13.2743 11.5144 13.2528 11.4625 13.2528 11.4084C13.2528 11.3543 13.2743 11.3024 13.3126 11.2641C13.3509 11.2258 13.4028 11.2043 13.4569 11.2043H14.0692V10.5921C14.0692 10.538 14.0907 10.486 14.1289 10.4478C14.1672 10.4095 14.2191 10.388 14.2732 10.388C14.3274 10.388 14.3793 10.4095 14.4175 10.4478C14.4558 10.486 14.4773 10.538 14.4773 10.5921V11.4084C14.4773 11.4625 14.4558 11.5144 14.4175 11.5527C14.3793 11.591 14.3274 11.6125 14.2732 11.6125ZM16.3141 11.6125H15.4977C15.4436 11.6125 15.3917 11.591 15.3534 11.5527C15.3151 11.5144 15.2936 11.4625 15.2936 11.4084C15.2936 11.3543 15.3151 11.3024 15.3534 11.2641C15.3917 11.2258 15.4436 11.2043 15.4977 11.2043H16.11V10.5921C16.11 10.538 16.1315 10.486 16.1697 10.4478C16.208 10.4095 16.2599 10.388 16.3141 10.388C16.3682 10.388 16.4201 10.4095 16.4584 10.4478C16.4966 10.486 16.5181 10.538 16.5181 10.5921V11.4084C16.5181 11.4625 16.4966 11.5144 16.4584 11.5527C16.4201 11.591 16.3682 11.6125 16.3141 11.6125ZM18.3549 11.6125H17.5385C17.4844 11.6125 17.4325 11.591 17.3942 11.5527C17.356 11.5144 17.3345 11.4625 17.3345 11.4084C17.3345 11.3543 17.356 11.3024 17.3942 11.2641C17.4325 11.2258 17.4844 11.2043 17.5385 11.2043H18.1508V10.5921C18.1508 10.538 18.1723 10.486 18.2106 10.4478C18.2488 10.4095 18.3007 10.388 18.3549 10.388C18.409 10.388 18.4609 10.4095 18.4992 10.4478C18.5375 10.486 18.559 10.538 18.559 10.5921V11.4084C18.559 11.4625 18.5375 11.5144 18.4992 11.5527C18.4609 11.591 18.409 11.6125 18.3549 11.6125ZM14.2732 13.6533H13.4569C13.4028 13.6533 13.3509 13.6318 13.3126 13.5935C13.2743 13.5553 13.2528 13.5033 13.2528 13.4492C13.2528 13.3951 13.2743 13.3432 13.3126 13.3049C13.3509 13.2666 13.4028 13.2451 13.4569 13.2451H14.0692V12.6329C14.0692 12.5788 14.0907 12.5269 14.1289 12.4886C14.1672 12.4503 14.2191 12.4288 14.2732 12.4288C14.3274 12.4288 14.3793 12.4503 14.4175 12.4886C14.4558 12.5269 14.4773 12.5788 14.4773 12.6329V13.4492C14.4773 13.5033 14.4558 13.5553 14.4175 13.5935C14.3793 13.6318 14.3274 13.6533 14.2732 13.6533ZM16.3141 13.6533H15.4977C15.4436 13.6533 15.3917 13.6318 15.3534 13.5935C15.3151 13.5553 15.2936 13.5033 15.2936 13.4492C15.2936 13.3951 15.3151 13.3432 15.3534 13.3049C15.3917 13.2666 15.4436 13.2451 15.4977 13.2451H16.11V12.6329C16.11 12.5788 16.1315 12.5269 16.1697 12.4886C16.208 12.4503 16.2599 12.4288 16.3141 12.4288C16.3682 12.4288 16.4201 12.4503 16.4584 12.4886C16.4966 12.5269 16.5181 12.5788 16.5181 12.6329V13.4492C16.5181 13.5033 16.4966 13.5553 16.4584 13.5935C16.4201 13.6318 16.3682 13.6533 16.3141 13.6533ZM18.3549 13.6533H17.5385C17.4844 13.6533 17.4325 13.6318 17.3942 13.5935C17.356 13.5553 17.3345 13.5033 17.3345 13.4492C17.3345 13.3951 17.356 13.3432 17.3942 13.3049C17.4325 13.2666 17.4844 13.2451 17.5385 13.2451H18.1508V12.6329C18.1508 12.5788 18.1723 12.5269 18.2106 12.4886C18.2488 12.4503 18.3007 12.4288 18.3549 12.4288C18.409 12.4288 18.4609 12.4503 18.4992 12.4886C18.5375 12.5269 18.559 12.5788 18.559 12.6329V13.4492C18.559 13.5033 18.5375 13.5553 18.4992 13.5935C18.4609 13.6318 18.409 13.6533 18.3549 13.6533ZM14.2732 15.6941H13.4569C13.4028 15.6941 13.3509 15.6726 13.3126 15.6343C13.2743 15.5961 13.2528 15.5442 13.2528 15.49C13.2528 15.4359 13.2743 15.384 13.3126 15.3457C13.3509 15.3075 13.4028 15.286 13.4569 15.286H14.0692V14.6737C14.0692 14.6196 14.0907 14.5677 14.1289 14.5294C14.1672 14.4911 14.2191 14.4696 14.2732 14.4696C14.3274 14.4696 14.3793 14.4911 14.4175 14.5294C14.4558 14.5677 14.4773 14.6196 14.4773 14.6737V15.49C14.4773 15.5442 14.4558 15.5961 14.4175 15.6343C14.3793 15.6726 14.3274 15.6941 14.2732 15.6941ZM16.3141 15.6941H15.4977C15.4436 15.6941 15.3917 15.6726 15.3534 15.6343C15.3151 15.5961 15.2936 15.5442 15.2936 15.49C15.2936 15.4359 15.3151 15.384 15.3534 15.3457C15.3917 15.3075 15.4436 15.286 15.4977 15.286H16.11V14.6737C16.11 14.6196 16.1315 14.5677 16.1697 14.5294C16.208 14.4911 16.2599 14.4696 16.3141 14.4696C16.3682 14.4696 16.4201 14.4911 16.4584 14.5294C16.4966 14.5677 16.5181 14.6196 16.5181 14.6737V15.49C16.5181 15.5442 16.4966 15.5961 16.4584 15.6343C16.4201 15.6726 16.3682 15.6941 16.3141 15.6941ZM18.3549 15.6941H17.5385C17.4844 15.6941 17.4325 15.6726 17.3942 15.6343C17.356 15.5961 17.3345 15.5442 17.3345 15.49C17.3345 15.4359 17.356 15.384 17.3942 15.3457C17.4325 15.3075 17.4844 15.286 17.5385 15.286H18.1508V14.6737C18.1508 14.6196 18.1723 14.5677 18.2106 14.5294C18.2488 14.4911 18.3007 14.4696 18.3549 14.4696C18.409 14.4696 18.4609 14.4911 18.4992 14.5294C18.5375 14.5677 18.559 14.6196 18.559 14.6737V15.49C18.559 15.5442 18.5375 15.5961 18.4992 15.6343C18.4609 15.6726 18.409 15.6941 18.3549 15.6941ZM14.2732 17.7349H13.4569C13.4028 17.7349 13.3509 17.7134 13.3126 17.6752C13.2743 17.6369 13.2528 17.585 13.2528 17.5309C13.2528 17.4767 13.2743 17.4248 13.3126 17.3865C13.3509 17.3483 13.4028 17.3268 13.4569 17.3268H14.0692V16.7145C14.0692 16.6604 14.0907 16.6085 14.1289 16.5702C14.1672 16.5319 14.2191 16.5104 14.2732 16.5104C14.3274 16.5104 14.3793 16.5319 14.4175 16.5702C14.4558 16.6085 14.4773 16.6604 14.4773 16.7145V17.5309C14.4773 17.585 14.4558 17.6369 14.4175 17.6752C14.3793 17.7134 14.3274 17.7349 14.2732 17.7349ZM16.3141 17.7349H15.4977C15.4436 17.7349 15.3917 17.7134 15.3534 17.6752C15.3151 17.6369 15.2936 17.585 15.2936 17.5309C15.2936 17.4767 15.3151 17.4248 15.3534 17.3865C15.3917 17.3483 15.4436 17.3268 15.4977 17.3268H16.11V16.7145C16.11 16.6604 16.1315 16.6085 16.1697 16.5702C16.208 16.5319 16.2599 16.5104 16.3141 16.5104C16.3682 16.5104 16.4201 16.5319 16.4584 16.5702C16.4966 16.6085 16.5181 16.6604 16.5181 16.7145V17.5309C16.5181 17.585 16.4966 17.6369 16.4584 17.6752C16.4201 17.7134 16.3682 17.7349 16.3141 17.7349ZM18.3549 17.7349H17.5385C17.4844 17.7349 17.4325 17.7134 17.3942 17.6752C17.356 17.6369 17.3345 17.585 17.3345 17.5309C17.3345 17.4767 17.356 17.4248 17.3942 17.3865C17.4325 17.3483 17.4844 17.3268 17.5385 17.3268H18.1508V16.7145C18.1508 16.6604 18.1723 16.6085 18.2106 16.5702C18.2488 16.5319 18.3007 16.5104 18.3549 16.5104C18.409 16.5104 18.4609 16.5319 18.4992 16.5702C18.5375 16.6085 18.559 16.6604 18.559 16.7145V17.5309C18.559 17.585 18.5375 17.6369 18.4992 17.6752C18.4609 17.7134 18.409 17.7349 18.3549 17.7349ZM14.2732 19.7757H13.4569C13.4028 19.7757 13.3509 19.7542 13.3126 19.716C13.2743 19.6777 13.2528 19.6258 13.2528 19.5717C13.2528 19.5175 13.2743 19.4656 13.3126 19.4274C13.3509 19.3891 13.4028 19.3676 13.4569 19.3676H14.0692V18.7553C14.0692 18.7012 14.0907 18.6493 14.1289 18.611C14.1672 18.5728 14.2191 18.5513 14.2732 18.5513C14.3274 18.5513 14.3793 18.5728 14.4175 18.611C14.4558 18.6493 14.4773 18.7012 14.4773 18.7553V19.5717C14.4773 19.6258 14.4558 19.6777 14.4175 19.716C14.3793 19.7542 14.3274 19.7757 14.2732 19.7757ZM16.3141 19.7757H15.4977C15.4436 19.7757 15.3917 19.7542 15.3534 19.716C15.3151 19.6777 15.2936 19.6258 15.2936 19.5717C15.2936 19.5175 15.3151 19.4656 15.3534 19.4274C15.3917 19.3891 15.4436 19.3676 15.4977 19.3676H16.11V18.7553C16.11 18.7012 16.1315 18.6493 16.1697 18.611C16.208 18.5728 16.2599 18.5513 16.3141 18.5513C16.3682 18.5513 16.4201 18.5728 16.4584 18.611C16.4966 18.6493 16.5181 18.7012 16.5181 18.7553V19.5717C16.5181 19.6258 16.4966 19.6777 16.4584 19.716C16.4201 19.7542 16.3682 19.7757 16.3141 19.7757ZM18.3549 19.7757H17.5385C17.4844 19.7757 17.4325 19.7542 17.3942 19.716C17.356 19.6777 17.3345 19.6258 17.3345 19.5717C17.3345 19.5175 17.356 19.4656 17.3942 19.4274C17.4325 19.3891 17.4844 19.3676 17.5385 19.3676H18.1508V18.7553C18.1508 18.7012 18.1723 18.6493 18.2106 18.611C18.2488 18.5728 18.3007 18.5513 18.3549 18.5513C18.409 18.5513 18.4609 18.5728 18.4992 18.611C18.5375 18.6493 18.559 18.7012 18.559 18.7553V19.5717C18.559 19.6258 18.5375 19.6777 18.4992 19.716C18.4609 19.7542 18.409 19.7757 18.3549 19.7757ZM11.0079 5.08187H9.78344C9.72932 5.08187 9.67741 5.06037 9.63913 5.0221C9.60086 4.98383 9.57936 4.93192 9.57936 4.87779C9.57936 4.82366 9.60086 4.77176 9.63913 4.73348C9.67741 4.69521 9.72932 4.67371 9.78344 4.67371H10.8039V3.6533C10.8039 3.59917 10.8254 3.54727 10.8636 3.50899C10.9019 3.47072 10.9538 3.44922 11.0079 3.44922C11.0621 3.44922 11.114 3.47072 11.1522 3.50899C11.1905 3.54727 11.212 3.59917 11.212 3.6533V4.87779C11.212 4.93192 11.1905 4.98383 11.1522 5.0221C11.114 5.06037 11.0621 5.08187 11.0079 5.08187ZM3.66099 7.53085H2.4365C2.38238 7.53085 2.33047 7.50935 2.2922 7.47108C2.25392 7.4328 2.23242 7.3809 2.23242 7.32677C2.23242 7.27264 2.25392 7.22073 2.2922 7.18246C2.33047 7.14419 2.38238 7.12269 2.4365 7.12269H3.45691V6.10228C3.45691 6.04815 3.47841 5.99624 3.51669 5.95797C3.55496 5.9197 3.60687 5.8982 3.66099 5.8982C3.71512 5.8982 3.76703 5.9197 3.8053 5.95797C3.84357 5.99624 3.86507 6.04815 3.86507 6.10228V7.32677C3.86507 7.3809 3.84357 7.4328 3.8053 7.47108C3.76703 7.50935 3.71512 7.53085 3.66099 7.53085ZM6.10997 7.53085H4.88548C4.83136 7.53085 4.77945 7.50935 4.74118 7.47108C4.7029 7.4328 4.6814 7.3809 4.6814 7.32677C4.6814 7.27264 4.7029 7.22073 4.74118 7.18246C4.77945 7.14419 4.83136 7.12269 4.88548 7.12269H5.90589V6.10228C5.90589 6.04815 5.92739 5.99624 5.96567 5.95797C6.00394 5.9197 6.05585 5.8982 6.10997 5.8982C6.1641 5.8982 6.21601 5.9197 6.25428 5.95797C6.29255 5.99624 6.31405 6.04815 6.31405 6.10228V7.32677C6.31405 7.3809 6.29255 7.4328 6.25428 7.47108C6.21601 7.50935 6.1641 7.53085 6.10997 7.53085ZM8.55895 7.53085H7.33446C7.28034 7.53085 7.22843 7.50935 7.19016 7.47108C7.15188 7.4328 7.13038 7.3809 7.13038 7.32677C7.13038 7.27264 7.15188 7.22073 7.19016 7.18246C7.22843 7.14419 7.28034 7.12269 7.33446 7.12269H8.35487V6.10228C8.35487 6.04815 8.37637 5.99624 8.41464 5.95797C8.45292 5.9197 8.50483 5.8982 8.55895 5.8982C8.61308 5.8982 8.66499 5.9197 8.70326 5.95797C8.74153 5.99624 8.76303 6.04815 8.76303 6.10228V7.32677C8.76303 7.3809 8.74153 7.4328 8.70326 7.47108C8.66499 7.50935 8.61308 7.53085 8.55895 7.53085ZM11.0079 7.53085H9.78344C9.72932 7.53085 9.67741 7.50935 9.63913 7.47108C9.60086 7.4328 9.57936 7.3809 9.57936 7.32677C9.57936 7.27264 9.60086 7.22073 9.63913 7.18246C9.67741 7.14419 9.72932 7.12269 9.78344 7.12269H10.8039V6.10228C10.8039 6.04815 10.8254 5.99624 10.8636 5.95797C10.9019 5.9197 10.9538 5.8982 11.0079 5.8982C11.0621 5.8982 11.114 5.9197 11.1522 5.95797C11.1905 5.99624 11.212 6.04815 11.212 6.10228V7.32677C11.212 7.3809 11.1905 7.4328 11.1522 7.47108C11.114 7.50935 11.0621 7.53085 11.0079 7.53085ZM3.66099 9.97983H2.4365C2.38238 9.97983 2.33047 9.95833 2.2922 9.92006C2.25392 9.88178 2.23242 9.82987 2.23242 9.77575C2.23242 9.72162 2.25392 9.66971 2.2922 9.63144C2.33047 9.59317 2.38238 9.57167 2.4365 9.57167H3.45691V8.55126C3.45691 8.49713 3.47841 8.44522 3.51669 8.40695C3.55496 8.36868 3.60687 8.34718 3.66099 8.34718C3.71512 8.34718 3.76703 8.36868 3.8053 8.40695C3.84357 8.44522 3.86507 8.49713 3.86507 8.55126V9.77575C3.86507 9.82987 3.84357 9.88178 3.8053 9.92006C3.76703 9.95833 3.71512 9.97983 3.66099 9.97983ZM6.10997 9.97983H4.88548C4.83136 9.97983 4.77945 9.95833 4.74118 9.92006C4.7029 9.88178 4.6814 9.82987 4.6814 9.77575C4.6814 9.72162 4.7029 9.66971 4.74118 9.63144C4.77945 9.59317 4.83136 9.57167 4.88548 9.57167H5.90589V8.55126C5.90589 8.49713 5.92739 8.44522 5.96567 8.40695C6.00394 8.36868 6.05585 8.34718 6.10997 8.34718C6.1641 8.34718 6.21601 8.36868 6.25428 8.40695C6.29255 8.44522 6.31405 8.49713 6.31405 8.55126V9.77575C6.31405 9.82987 6.29255 9.88178 6.25428 9.92006C6.21601 9.95833 6.1641 9.97983 6.10997 9.97983ZM8.55895 9.97983H7.33446C7.28034 9.97983 7.22843 9.95833 7.19016 9.92006C7.15188 9.88178 7.13038 9.82987 7.13038 9.77575C7.13038 9.72162 7.15188 9.66971 7.19016 9.63144C7.22843 9.59317 7.28034 9.57167 7.33446 9.57167H8.35487V8.55126C8.35487 8.49713 8.37637 8.44522 8.41464 8.40695C8.45292 8.36868 8.50483 8.34718 8.55895 8.34718C8.61308 8.34718 8.66499 8.36868 8.70326 8.40695C8.74153 8.44522 8.76303 8.49713 8.76303 8.55126V9.77575C8.76303 9.82987 8.74153 9.88178 8.70326 9.92006C8.66499 9.95833 8.61308 9.97983 8.55895 9.97983ZM11.0079 9.97983H9.78344C9.72932 9.97983 9.67741 9.95833 9.63913 9.92006C9.60086 9.88178 9.57936 9.82987 9.57936 9.77575C9.57936 9.72162 9.60086 9.66971 9.63913 9.63144C9.67741 9.59317 9.72932 9.57167 9.78344 9.57167H10.8039V8.55126C10.8039 8.49713 10.8254 8.44522 10.8636 8.40695C10.9019 8.36868 10.9538 8.34718 11.0079 8.34718C11.0621 8.34718 11.114 8.36868 11.1522 8.40695C11.1905 8.44522 11.212 8.49713 11.212 8.55126V9.77575C11.212 9.82987 11.1905 9.88178 11.1522 9.92006C11.114 9.95833 11.0621 9.97983 11.0079 9.97983ZM3.66099 12.4288H2.4365C2.38238 12.4288 2.33047 12.4073 2.2922 12.369C2.25392 12.3308 2.23242 12.2789 2.23242 12.2247C2.23242 12.1706 2.25392 12.1187 2.2922 12.0804C2.33047 12.0421 2.38238 12.0206 2.4365 12.0206H3.45691V11.0002C3.45691 10.9461 3.47841 10.8942 3.51669 10.8559C3.55496 10.8177 3.60687 10.7962 3.66099 10.7962C3.71512 10.7962 3.76703 10.8177 3.8053 10.8559C3.84357 10.8942 3.86507 10.9461 3.86507 11.0002V12.2247C3.86507 12.2789 3.84357 12.3308 3.8053 12.369C3.76703 12.4073 3.71512 12.4288 3.66099 12.4288ZM6.10997 12.4288H4.88548C4.83136 12.4288 4.77945 12.4073 4.74118 12.369C4.7029 12.3308 4.6814 12.2789 4.6814 12.2247C4.6814 12.1706 4.7029 12.1187 4.74118 12.0804C4.77945 12.0421 4.83136 12.0206 4.88548 12.0206H5.90589V11.0002C5.90589 10.9461 5.92739 10.8942 5.96567 10.8559C6.00394 10.8177 6.05585 10.7962 6.10997 10.7962C6.1641 10.7962 6.21601 10.8177 6.25428 10.8559C6.29255 10.8942 6.31405 10.9461 6.31405 11.0002V12.2247C6.31405 12.2789 6.29255 12.3308 6.25428 12.369C6.21601 12.4073 6.1641 12.4288 6.10997 12.4288ZM8.55895 12.4288H7.33446C7.28034 12.4288 7.22843 12.4073 7.19016 12.369C7.15188 12.3308 7.13038 12.2789 7.13038 12.2247C7.13038 12.1706 7.15188 12.1187 7.19016 12.0804C7.22843 12.0421 7.28034 12.0206 7.33446 12.0206H8.35487V11.0002C8.35487 10.9461 8.37637 10.8942 8.41464 10.8559C8.45292 10.8177 8.50483 10.7962 8.55895 10.7962C8.61308 10.7962 8.66499 10.8177 8.70326 10.8559C8.74153 10.8942 8.76303 10.9461 8.76303 11.0002V12.2247C8.76303 12.2789 8.74153 12.3308 8.70326 12.369C8.66499 12.4073 8.61308 12.4288 8.55895 12.4288ZM11.0079 12.4288H9.78344C9.72932 12.4288 9.67741 12.4073 9.63913 12.369C9.60086 12.3308 9.57936 12.2789 9.57936 12.2247C9.57936 12.1706 9.60086 12.1187 9.63913 12.0804C9.67741 12.0421 9.72932 12.0206 9.78344 12.0206H10.8039V11.0002C10.8039 10.9461 10.8254 10.8942 10.8636 10.8559C10.9019 10.8177 10.9538 10.7962 11.0079 10.7962C11.0621 10.7962 11.114 10.8177 11.1522 10.8559C11.1905 10.8942 11.212 10.9461 11.212 11.0002V12.2247C11.212 12.2789 11.1905 12.3308 11.1522 12.369C11.114 12.4073 11.0621 12.4288 11.0079 12.4288ZM3.66099 14.8778H2.4365C2.38238 14.8778 2.33047 14.8563 2.2922 14.818C2.25392 14.7797 2.23242 14.7278 2.23242 14.6737C2.23242 14.6196 2.25392 14.5677 2.2922 14.5294C2.33047 14.4911 2.38238 14.4696 2.4365 14.4696H3.45691V13.4492C3.45691 13.3951 3.47841 13.3432 3.51669 13.3049C3.55496 13.2666 3.60687 13.2451 3.66099 13.2451C3.71512 13.2451 3.76703 13.2666 3.8053 13.3049C3.84357 13.3432 3.86507 13.3951 3.86507 13.4492V14.6737C3.86507 14.7278 3.84357 14.7797 3.8053 14.818C3.76703 14.8563 3.71512 14.8778 3.66099 14.8778ZM6.10997 14.8778H4.88548C4.83136 14.8778 4.77945 14.8563 4.74118 14.818C4.7029 14.7797 4.6814 14.7278 4.6814 14.6737C4.6814 14.6196 4.7029 14.5677 4.74118 14.5294C4.77945 14.4911 4.83136 14.4696 4.88548 14.4696H5.90589V13.4492C5.90589 13.3951 5.92739 13.3432 5.96567 13.3049C6.00394 13.2666 6.05585 13.2451 6.10997 13.2451C6.1641 13.2451 6.21601 13.2666 6.25428 13.3049C6.29255 13.3432 6.31405 13.3951 6.31405 13.4492V14.6737C6.31405 14.7278 6.29255 14.7797 6.25428 14.818C6.21601 14.8563 6.1641 14.8778 6.10997 14.8778ZM8.55895 14.8778H7.33446C7.28034 14.8778 7.22843 14.8563 7.19016 14.818C7.15188 14.7797 7.13038 14.7278 7.13038 14.6737C7.13038 14.6196 7.15188 14.5677 7.19016 14.5294C7.22843 14.4911 7.28034 14.4696 7.33446 14.4696H8.35487V13.4492C8.35487 13.3951 8.37637 13.3432 8.41464 13.3049C8.45292 13.2666 8.50483 13.2451 8.55895 13.2451C8.61308 13.2451 8.66499 13.2666 8.70326 13.3049C8.74153 13.3432 8.76303 13.3951 8.76303 13.4492V14.6737C8.76303 14.7278 8.74153 14.7797 8.70326 14.818C8.66499 14.8563 8.61308 14.8778 8.55895 14.8778ZM11.0079 14.8778H9.78344C9.72932 14.8778 9.67741 14.8563 9.63913 14.818C9.60086 14.7797 9.57936 14.7278 9.57936 14.6737C9.57936 14.6196 9.60086 14.5677 9.63913 14.5294C9.67741 14.4911 9.72932 14.4696 9.78344 14.4696H10.8039V13.4492C10.8039 13.3951 10.8254 13.3432 10.8636 13.3049C10.9019 13.2666 10.9538 13.2451 11.0079 13.2451C11.0621 13.2451 11.114 13.2666 11.1522 13.3049C11.1905 13.3432 11.212 13.3951 11.212 13.4492V14.6737C11.212 14.7278 11.1905 14.7797 11.1522 14.818C11.114 14.8563 11.0621 14.8778 11.0079 14.8778ZM3.66099 17.3268H2.4365C2.38238 17.3268 2.33047 17.3053 2.2922 17.267C2.25392 17.2287 2.23242 17.1768 2.23242 17.1227C2.23242 17.0686 2.25392 17.0167 2.2922 16.9784C2.33047 16.9401 2.38238 16.9186 2.4365 16.9186H3.45691V15.8982C3.45691 15.8441 3.47841 15.7922 3.51669 15.7539C3.55496 15.7156 3.60687 15.6941 3.66099 15.6941C3.71512 15.6941 3.76703 15.7156 3.8053 15.7539C3.84357 15.7922 3.86507 15.8441 3.86507 15.8982V17.1227C3.86507 17.1768 3.84357 17.2287 3.8053 17.267C3.76703 17.3053 3.71512 17.3268 3.66099 17.3268ZM11.0079 17.41H9.78344C9.72932 17.41 9.67741 17.3885 9.63913 17.3503C9.60086 17.312 9.57936 17.2601 9.57936 17.206C9.57936 17.1518 9.60086 17.0999 9.63913 17.0616C9.67741 17.0234 9.72932 17.0019 9.78344 17.0019H10.8039V15.9815C10.8039 15.9273 10.8254 15.8754 10.8636 15.8372C10.9019 15.7989 10.9538 15.7774 11.0079 15.7774C11.0621 15.7774 11.114 15.7989 11.1522 15.8372C11.1905 15.8754 11.212 15.9273 11.212 15.9815V17.206C11.212 17.2601 11.1905 17.312 11.1522 17.3503C11.114 17.3885 11.0621 17.41 11.0079 17.41ZM3.66099 19.7757H2.4365C2.38238 19.7757 2.33047 19.7542 2.2922 19.716C2.25392 19.6777 2.23242 19.6258 2.23242 19.5717C2.23242 19.5175 2.25392 19.4656 2.2922 19.4274C2.33047 19.3891 2.38238 19.3676 2.4365 19.3676H3.45691V18.3472C3.45691 18.2931 3.47841 18.2411 3.51669 18.2029C3.55496 18.1646 3.60687 18.1431 3.66099 18.1431C3.71512 18.1431 3.76703 18.1646 3.8053 18.2029C3.84357 18.2411 3.86507 18.2931 3.86507 18.3472V19.5717C3.86507 19.6258 3.84357 19.6777 3.8053 19.716C3.76703 19.7542 3.71512 19.7757 3.66099 19.7757ZM11.0079 19.859H9.78344C9.72932 19.859 9.67741 19.8375 9.63913 19.7992C9.60086 19.761 9.57936 19.7091 9.57936 19.6549C9.57936 19.6008 9.60086 19.5489 9.63913 19.5106C9.67741 19.4724 9.72932 19.4509 9.78344 19.4509H10.8039V18.4304C10.8039 18.3763 10.8254 18.3244 10.8636 18.2861C10.9019 18.2479 10.9538 18.2264 11.0079 18.2264C11.0621 18.2264 11.114 18.2479 11.1522 18.2861C11.1905 18.3244 11.212 18.3763 11.212 18.4304V19.6549C11.212 19.7091 11.1905 19.761 11.1522 19.7992C11.114 19.8375 11.0621 19.859 11.0079 19.859ZM8.55038 21.0002H4.87691C4.82279 21.0002 4.77088 20.9787 4.7326 20.9405C4.69433 20.9022 4.67283 20.8503 4.67283 20.7962V15.8982C4.67283 15.8441 4.69433 15.7922 4.7326 15.7539C4.77088 15.7156 4.82279 15.6941 4.87691 15.6941H8.55038C8.60451 15.6941 8.65642 15.7156 8.69469 15.7539C8.73296 15.7922 8.75446 15.8441 8.75446 15.8982V20.7962C8.75446 20.8503 8.73296 20.9022 8.69469 20.9405C8.65642 20.9787 8.60451 21.0002 8.55038 21.0002ZM5.08099 20.5921H8.3463V16.1023H5.08099V20.5921Z" fill="white" stroke="white" stroke-width="0.2"/>
<path d="M6.72166 21.0005C6.66753 21.0005 6.61562 20.979 6.57735 20.9407C6.53908 20.9024 6.51758 20.8505 6.51758 20.7964V15.8984C6.51758 15.8443 6.53908 15.7924 6.57735 15.7541C6.61562 15.7158 6.66753 15.6943 6.72166 15.6943C6.77579 15.6943 6.82769 15.7158 6.86597 15.7541C6.90424 15.7924 6.92574 15.8443 6.92574 15.8984V20.7964C6.92574 20.8505 6.90424 20.9024 6.86597 20.9407C6.82769 20.979 6.77579 21.0005 6.72166 21.0005Z" fill="white" stroke="white" stroke-width="0.2"/>
<path d="M19.7536 20.1487C19.5971 20.0566 19.4029 20.0566 19.2464 20.1487L17.0506 21.4412C16.6804 21.659 16.2259 21.3395 16.3056 20.9174L16.8102 18.2467C16.8414 18.0818 16.7878 17.9123 16.6675 17.7954L14.7465 15.9276C14.4458 15.6352 14.617 15.1248 15.0331 15.0729L17.5864 14.7545C17.7612 14.7327 17.9116 14.6205 17.9824 14.4592L19.0421 12.0437C19.2171 11.6448 19.7829 11.6448 19.9579 12.0437L21.0176 14.4592C21.0884 14.6205 21.2388 14.7327 21.4136 14.7545L23.9669 15.0729C24.383 15.1248 24.5542 15.6352 24.2535 15.9276L22.3325 17.7954C22.2122 17.9123 22.1586 18.0818 22.1898 18.2467L22.6944 20.9174C22.7741 21.3395 22.3196 21.659 21.9494 21.4412L19.7536 20.1487Z" fill="white"/>
</svg>
