<svg width="24" height="26" viewBox="0 0 24 26" fill="none" xmlns="http://www.w3.org/2000/svg">
<path d="M9.33345 25.6831C9.33345 18.0733 12.4446 14.2684 18.6669 14.2684C12.4446 14.2684 9.33345 10.4635 9.33345 2.85364C9.33345 10.4635 6.2223 14.2684 0 14.2684C6.2223 14.2684 9.33345 18.0733 9.33345 25.6831Z" fill="#FABD20"/>
<path d="M18.2222 14.2684C18.2222 9.51229 20.1481 7.13422 24 7.13422C20.1481 7.13422 18.2222 4.75615 18.2222 0C18.2222 4.75615 16.2962 7.13422 12.4443 7.13422C16.2962 7.13422 18.2222 9.51229 18.2222 14.2684Z" fill="#FABD20"/>
<path d="M9.3916 10.4349C10.2769 11.444 11.0853 12.4602 12.2045 13.3943C12.29 13.4657 12.4534 13.489 12.5221 13.5654" stroke="white" stroke-linecap="round"/>
<path d="M18.7827 5.21753C19.1151 5.58296 19.4862 5.90798 19.8262 6.26102" stroke="white" stroke-linecap="round"/>
</svg>
