<svg width="22" height="22" viewBox="0 0 22 22" fill="none" xmlns="http://www.w3.org/2000/svg">
<path d="M11 5C10.8687 4.99997 10.7386 5.02581 10.6173 5.07605C10.4959 5.12629 10.3857 5.19995 10.2928 5.29282C10.2 5.38568 10.1263 5.49593 10.0761 5.61728C10.0258 5.73862 9.99997 5.86867 10 6V10.3838L7.56934 11.6069C7.45206 11.6659 7.34755 11.7474 7.26178 11.8468C7.176 11.9462 7.11064 12.0615 7.06942 12.1861C7.0282 12.3108 7.01194 12.4423 7.02156 12.5733C7.03118 12.7042 7.0665 12.8319 7.12549 12.9492C7.18448 13.0665 7.26599 13.171 7.36538 13.2568C7.46476 13.3426 7.58006 13.4079 7.70471 13.4491C7.82935 13.4904 7.96089 13.5066 8.09182 13.497C8.22274 13.4874 8.35049 13.4521 8.46777 13.3931L11.4492 11.8931C11.6148 11.81 11.7541 11.6824 11.8513 11.5247C11.9486 11.367 12.0001 11.1853 12 11V6C12 5.86867 11.9742 5.73862 11.924 5.61728C11.8737 5.49593 11.8001 5.38568 11.7072 5.29282C11.6143 5.19995 11.5041 5.12629 11.3827 5.07605C11.2614 5.02581 11.1313 4.99997 11 5ZM11 1C9.02219 1 7.08879 1.58649 5.4443 2.6853C3.79981 3.78412 2.51809 5.3459 1.76121 7.17317C1.00433 9.00043 0.806299 11.0111 1.19215 12.9509C1.578 14.8907 2.53041 16.6725 3.92894 18.0711C5.32746 19.4696 7.10929 20.422 9.0491 20.8079C10.9889 21.1937 12.9996 20.9957 14.8268 20.2388C16.6541 19.4819 18.2159 18.2002 19.3147 16.5557C20.4135 14.9112 21 12.9778 21 11C20.997 8.34877 19.9424 5.80699 18.0677 3.93228C16.193 2.05758 13.6512 1.00303 11 1ZM11 19C9.41775 19 7.87104 18.5308 6.55544 17.6518C5.23985 16.7727 4.21447 15.5233 3.60897 14.0615C3.00347 12.5997 2.84504 10.9911 3.15372 9.43928C3.4624 7.88743 4.22433 6.46197 5.34315 5.34315C6.46197 4.22433 7.88743 3.4624 9.43928 3.15372C10.9911 2.84504 12.5997 3.00346 14.0615 3.60896C15.5233 4.21447 16.7727 5.23984 17.6518 6.55544C18.5308 7.87103 19 9.41775 19 11C18.9976 13.121 18.1539 15.1544 16.6542 16.6542C15.1544 18.1539 13.121 18.9976 11 19Z" fill="white" stroke="#202426" stroke-width="0.5"/>
</svg>
