<svg width="23" height="21" viewBox="0 0 23 21" fill="none" xmlns="http://www.w3.org/2000/svg">
<g clip-path="url(#clip0_505_13021)">
<path d="M0.439732 15.894L8.46207 1.92039L8.49384 1.86956C8.82726 1.32241 9.27726 0.856806 9.81128 0.506458C10.3173 0.179466 10.905 0.00384647 11.5062 2.4824e-06C12.1103 -0.000762243 12.7017 0.175174 13.2086 0.506458C13.7405 0.857942 14.1874 1.325 14.5167 1.87332C14.5403 1.91349 14.5628 1.95302 14.5839 1.99193L22.4755 15.7999L22.5203 15.8827C22.8157 16.4782 22.9674 17.1355 22.9632 17.8012C22.9593 18.351 22.82 18.8912 22.5577 19.3733C22.2625 19.9114 21.8105 20.3451 21.2627 20.6159C21.2272 20.6348 21.1898 20.6498 21.1543 20.6649C20.618 20.9 20.0366 21.0126 19.4519 20.9944H3.29137C3.25026 20.9944 3.20915 20.9944 3.16991 20.9944C2.7741 20.9912 2.38193 20.9179 2.01131 20.7778C1.42196 20.5529 0.915653 20.1506 0.561197 19.6256C0.204152 19.0928 0.0093063 18.4666 0.000586682 17.8238C-0.00863868 17.2613 0.0910137 16.7024 0.293973 16.1783C0.33135 16.0785 0.379609 15.9831 0.437863 15.894H0.439732Z" fill="#FF4D4D"/>
<path fill-rule="evenodd" clip-rule="evenodd" d="M1.68278 16.7094L9.74063 2.66614C10.7198 1.11289 12.2709 1.07335 13.2669 2.66614L21.1958 16.54C21.8293 17.8221 21.5153 19.5524 19.4523 19.5091H3.29173C1.93506 19.543 1.0605 18.3437 1.68278 16.7094Z" fill="#14181B"/>
<path d="M10.7584 15.7738C10.9308 15.6019 11.1577 15.4966 11.3993 15.4763C11.552 15.4656 11.705 15.4887 11.8478 15.5441C11.9882 15.5982 12.1155 15.6816 12.2216 15.7888C12.3425 15.9099 12.432 16.0591 12.4822 16.2233C12.5324 16.3874 12.5417 16.5615 12.5094 16.7302C12.4928 16.8176 12.4665 16.9029 12.4309 16.9844C12.3461 17.1719 12.2084 17.3301 12.0349 17.4393C11.8614 17.5485 11.6599 17.6037 11.4554 17.5981C11.3087 17.5946 11.1643 17.5606 11.0312 17.4983C10.7967 17.3857 10.6132 17.188 10.5173 16.9448C10.4849 16.8683 10.4623 16.788 10.45 16.7057C10.4371 16.6242 10.4333 16.5414 10.4388 16.4591C10.4541 16.3286 10.4901 16.2015 10.5453 16.0825C10.5954 15.9708 10.6679 15.8708 10.7584 15.7888V15.7738ZM12.2814 13.8458C12.2459 14.7477 10.7285 14.7495 10.6948 13.8458C10.5416 12.3001 10.1492 8.3219 10.1604 6.87031C10.1735 6.42222 10.5341 6.15676 11.0125 6.05509C11.321 5.99336 11.6384 5.99336 11.9469 6.05509C12.4346 6.16052 12.8158 6.43164 12.8158 6.89102V6.93621L12.2814 13.8458Z" fill="#FF4D4D"/>
</g>
<defs>
<clipPath id="clip0_505_13021">
<rect width="22.9626" height="21" fill="white"/>
</clipPath>
</defs>
</svg>
