<svg width="30" height="30" viewBox="0 0 30 30" fill="none" xmlns="http://www.w3.org/2000/svg">
<path d="M15 30C12.0333 30 9.13319 29.1203 6.66645 27.4721C4.19972 25.8238 2.27713 23.4812 1.14181 20.7403C0.00649941 17.9994 -0.290551 14.9834 0.288228 12.0737C0.867006 9.16394 2.29562 6.49119 4.3934 4.3934C6.49119 2.29562 9.16394 0.867006 12.0737 0.288228C14.9834 -0.290551 17.9994 0.00649941 20.7403 1.14181C23.4812 2.27713 25.8238 4.19972 27.4721 6.66645C29.1203 9.13319 30 12.0333 30 15C30 18.9783 28.4197 22.7936 25.6066 25.6066C22.7936 28.4197 18.9783 30 15 30ZM15 2.00001C12.4288 2.00001 9.91543 2.76244 7.77759 4.1909C5.63975 5.61936 3.97351 7.64968 2.98957 10.0251C2.00563 12.4006 1.74819 15.0144 2.2498 17.5362C2.75141 20.0579 3.98954 22.3743 5.80762 24.1924C7.6257 26.0105 9.94208 27.2486 12.4638 27.7502C14.9856 28.2518 17.5995 27.9944 19.9749 27.0104C22.3503 26.0265 24.3807 24.3603 25.8091 22.2224C27.2376 20.0846 28 17.5712 28 15C28 11.5522 26.6304 8.24559 24.1924 5.80762C21.7544 3.36965 18.4478 2.00001 15 2.00001Z" fill="white"/>
<path d="M15 23C14.6044 23 14.2178 22.8827 13.8889 22.6629C13.56 22.4432 13.3036 22.1308 13.1522 21.7654C13.0009 21.3999 12.9613 20.9978 13.0384 20.6098C13.1156 20.2219 13.3061 19.8655 13.5858 19.5858C13.8655 19.3061 14.2219 19.1156 14.6098 19.0384C14.9978 18.9613 15.3999 19.0009 15.7654 19.1522C16.1308 19.3036 16.4432 19.56 16.6629 19.8889C16.8827 20.2178 17 20.6044 17 21C17 21.5304 16.7893 22.0391 16.4142 22.4142C16.0391 22.7893 15.5304 23 15 23ZM15 17C14.7348 17 14.4804 16.8946 14.2929 16.7071C14.1054 16.5196 14 16.2652 14 16V7C14 6.73478 14.1054 6.48043 14.2929 6.29289C14.4804 6.10536 14.7348 6 15 6C15.2652 6 15.5196 6.10536 15.7071 6.29289C15.8946 6.48043 16 6.73478 16 7V16C16 16.2652 15.8946 16.5196 15.7071 16.7071C15.5196 16.8946 15.2652 17 15 17Z" fill="white"/>
</svg>
