<svg width="24" height="21" viewBox="0 0 24 21" fill="none" xmlns="http://www.w3.org/2000/svg">
<g clip-path="url(#clip0_505_13029)">
<path d="M0.982701 15.894L9.00504 1.92039L9.03681 1.86956C9.37023 1.32241 9.82023 0.856806 10.3542 0.506458C10.8603 0.179466 11.448 0.00384647 12.0492 2.4824e-06C12.6533 -0.000762243 13.2447 0.175174 13.7515 0.506458C14.2834 0.857942 14.7304 1.325 15.0596 1.87332C15.0833 1.91349 15.1057 1.95302 15.1269 1.99193L23.0184 15.7999L23.0633 15.8827C23.3586 16.4782 23.5104 17.1355 23.5062 17.8012C23.5023 18.351 23.363 18.8912 23.1007 19.3733C22.8055 19.9114 22.3535 20.3451 21.8057 20.6159C21.7701 20.6348 21.7328 20.6498 21.6973 20.6649C21.1609 20.9 20.5795 21.0126 19.9949 20.9944H3.83434C3.79323 20.9944 3.75212 20.9944 3.71287 20.9944C3.31707 20.9912 2.9249 20.9179 2.55428 20.7778C1.96493 20.5529 1.45862 20.1506 1.10417 19.6256C0.747121 19.0928 0.552275 18.4666 0.543555 17.8238C0.53433 17.2613 0.633982 16.7024 0.836942 16.1783C0.874319 16.0785 0.922578 15.9831 0.980832 15.894H0.982701Z" fill="white"/>
<path fill-rule="evenodd" clip-rule="evenodd" d="M2.22575 16.7094L10.2836 2.66614C11.2628 1.11289 12.8138 1.07335 13.8098 2.66614L21.7387 16.54C22.3722 17.8221 22.0583 19.5524 19.9952 19.5091H3.8347C2.47802 19.543 1.60347 18.3437 2.22575 16.7094Z" fill="#14181B"/>
<path d="M11.3013 15.7738C11.4737 15.6019 11.7006 15.4966 11.9423 15.4763C12.0949 15.4656 12.248 15.4887 12.3908 15.5441C12.5311 15.5982 12.6585 15.6816 12.7645 15.7888C12.8855 15.9099 12.975 16.0591 13.0252 16.2233C13.0754 16.3874 13.0847 16.5615 13.0523 16.7302C13.0358 16.8176 13.0095 16.9029 12.9738 16.9844C12.8891 17.1719 12.7514 17.3301 12.5779 17.4393C12.4044 17.5485 12.2028 17.6037 11.9984 17.5981C11.8517 17.5946 11.7073 17.5606 11.5742 17.4983C11.3397 17.3857 11.1562 17.188 11.0603 16.9448C11.0278 16.8683 11.0052 16.788 10.993 16.7057C10.9801 16.6242 10.9763 16.5414 10.9818 16.4591C10.9971 16.3286 11.0331 16.2015 11.0883 16.0825C11.1384 15.9708 11.2109 15.8708 11.3013 15.7888V15.7738ZM12.8243 13.8458C12.7888 14.7477 11.2714 14.7495 11.2378 13.8458C11.0846 12.3001 10.6921 8.3219 10.7034 6.87031C10.7164 6.42222 11.0771 6.15676 11.5555 6.05509C11.8639 5.99336 12.1814 5.99336 12.4898 6.05509C12.9776 6.16052 13.3588 6.43164 13.3588 6.89102V6.93621L12.8243 13.8458Z" fill="white"/>
</g>
<defs>
<clipPath id="clip0_505_13029">
<rect width="22.9626" height="21" fill="white" transform="translate(0.542969)"/>
</clipPath>
</defs>
</svg>
